{
.appVersion = "3343";
.formatVersion = 3;
axes = (
{
name = Weight;
tag = wght;
}
);
customParameters = (
{
name = macintoshFONDFamilyID;
value = 128;
},
{
name = macintoshFONDName;
value = "Libre Baskerville";
},
{
name = openTypeHeadLowestRecPPEM;
value = 9;
},
{
name = compatibleFullNames;
value = "Libre Baskerville Italic";
},
{
name = descriptions;
value = "Libre Baskerville is webfont optimized for web body text (typically 16px). It's based on 1941 ATF Specimens, but it has a taller x height, wider counters and minor contrast that allow it to work on small sizes in any screen.";
},
{
name = licenses;
value = "This Font Software is licensed under the SIL Open Font License, Version 1.1. This license is available with a FAQ at: http://scripts.sil.org/OFL";
},
{
name = licenseURL;
value = "http://scripts.sil.org/OFL";
},
{
name = preferredFamilyNames;
value = "Libre Baskerville";
},
{
name = uniqueID;
value = "PabloImpallari,RodrigoFuenzalida: Libre Baskerville Italic: 2012";
},
{
name = codePageRanges;
value = (
"1252",
"1250",
"1254",
"1257"
);
},
{
name = openTypeOS2FamilyClass;
value = (
0,
0
);
},
{
name = panose;
value = (
2,
0,
0,
0,
0,
0,
0,
0,
0,
0
);
},
{
name = fsType;
value = (
);
},
{
name = unicodeRanges;
value = (
0,
1,
2,
3,
4,
5,
7,
29,
31,
32,
33,
35,
36,
38,
60,
62
);
},
{
name = vendorID;
value = pyrs;
},
{
name = blueFuzz;
value = 0;
},
{
name = blueScale;
value = 0.016667;
},
{
name = blueShift;
value = 10;
},
{
name = postscriptDefaultWidthX;
value = 500;
},
{
name = postscriptForceBold;
value = 0;
},
{
name = postscriptIsFixedPitch;
value = 0;
},
{
name = postscriptSlantAngle;
value = 0;
},
{
name = postscriptUniqueID;
value = -1;
},
{
name = postscriptWindowsCharacterSet;
value = 1;
},
{
name = trademarks;
value = "Libre Baskerville is a trademark of Pablo Impallari";
},
{
name = year;
value = 2012;
}
);
date = "2012-11-30 02:57:57 +0000";
familyName = "Libre Baskerville";
features = (
{
code = "	sub f f i by f_f_i;
	sub f f l by f_f_l;

glyphs = (
{
color = 4;
glyphname = A;
kernLeft = KERN_A;
kernRight = KERN_A;
lastChange = "2025-08-05 07:40:38 +0000";
layers = (
{
anchors = (
{
name = bottom;
pos = (251,0);
},
{
name = ogonek;
pos = (474,0);
},
{
name = top;
pos = (658,824);
}
);
guides = (
{
angle = 229.3045;
pos = (289,315);
}
);
layerId = m001;
shapes = (
{
closed = 1;
nodes = (
(606,780,l),
(145,231,ls),
(22,85,o),
(-35,40,o),
(-98,40,c),
(-108,0,l),
(150,0,l),
(160,40,l),
(108,40,o),
(87,48,o),
(87,69,cs),
(87,94,o),
(114,125,o),
(204,223,cs),
(266,290,l),
(482,290,l),
(455,167,ls),
(431,58,o),
(414,40,o),
(336,40,c),
(326,0,l),
(622,0,l),
(632,40,l),
(559,40,o),
(539,50,o),
(539,89,cs),
(539,105,o),
(543,131,o),
(551,166,cs),
(690,780,l)
);
},
{
closed = 1;
nodes = (
(569,650,l),
(573,650,l),
(491,340,l),
(310,340,l)
);
}
);
width = 763;
},
{
anchors = (
{
name = bottom;
pos = (247,0);
},
{
name = ogonek;
pos = (498,0);
},
{
name = top;
pos = (675,830);
}
);
background = {
shapes = (
{
closed = 1;
nodes = (
(602,780,l),
(141,231,ls),
(18,85,o),
(-39,40,o),
(-102,40,c),
(-112,0,l),
(147,0,l),
(157,40,l),
(102,40,o),
(82,49,o),
(82,74,cs),
(82,90,o),
(91,110,o),
(200,224,cs),
(263,290,l),
(478,290,l),
(451,167,ls),
(427,58,o),
(410,40,o),
(332,40,c),
(322,0,l),
(618,0,l),
(628,40,l),
(555,40,o),
(535,50,o),
(535,89,cs),
(535,105,o),
(539,131,o),
(547,166,cs),
(686,780,l)
);
},
{
closed = 1;
nodes = (
(565,650,l),
(569,650,l),
(487,340,l),
(306,340,l)
);
}
);
};
layerId = m002;
shapes = (
{
closed = 1;
nodes = (
(600,780,l),
(139,231,ls),
(16,85,o),
(-41,40,o),
(-104,40,c),
(-114,0,l),
(165,0,l),
(175,40,l),
(120,40,o),
(102,48,o),
(102,73,cs),
(102,89,o),
(112,108,o),
(218,224,cs),
(278,290,l),
(478,290,l),
(451,167,ls),
(427,58,o),
(410,40,o),
(332,40,c),
(322,0,l),
(666,0,l),
(676,40,l),
(603,40,o),
(583,50,o),
(583,89,cs),
(583,105,o),
(587,131,o),
(595,166,cs),
(734,780,l)
);
},
{
closed = 1;
nodes = (
(558,621,l),
(562,621,l),
(487,340,l),
(322,340,l)
);
}
);
width = 771;
},
{
anchors = (
{
name = bottom;
pos = (251,0);
},
{
name = ogonek;
pos = (474,0);
},
{
name = top;
pos = (658,824);
}
);
associatedMasterId = m002;
layerId = "4D625F97-7E65-4EDD-834F-6D8ECB8A3228";
name = "29 May 25 at 11:37AM";
shapes = (
{
closed = 1;
nodes = (
(606,780,l),
(145,231,ls),
(22,85,o),
(-35,40,o),
(-98,40,c),
(-108,0,l),
(151,0,l),
(161,40,l),
(106,40,o),
(86,49,o),
(86,74,cs),
(86,90,o),
(95,110,o),
(204,224,cs),
(267,290,l),
(482,290,l),
(455,167,ls),
(431,58,o),
(414,40,o),
(336,40,c),
(326,0,l),
(622,0,l),
(632,40,l),
(559,40,o),
(539,50,o),
(539,89,cs),
(539,105,o),
(543,131,o),
(551,166,cs),
(690,780,l)
);
},
{
closed = 1;
nodes = (
(569,650,l),
(573,650,l),
(491,340,l),
(310,340,l)
);
}
);
width = 763;
}
);
unicode = 65;
},
{
color = 4;
glyphname = "Alpha-latin";
lastChange = "2025-08-06 22:53:32 +0000";
layers = (
{
background = {
shapes = (
{
closed = 1;
nodes = (
(689,595,o),
(656,780,o),
(456,780,cs),
(210,780,o),
(15,513,o),
(15,269,cs),
(15,70,o),
(124,-9,o),
(258,-9,cs),
(444,-9,o),
(621,182,o),
(662,432,cs)
);
},
{
closed = 1;
nodes = (
(613,727,o),
(619,603,o),
(596,469,cs),
(552,215,o),
(423,43,o),
(278,43,cs),
(174,43,o),
(130,132,o),
(130,247,cs),
(130,433,o),
(244,727,o),
(468,727,cs)
);
},
{
closed = 1;
nodes = (
(642,-10,o),
(727,60,o),
(778,164,c),
(748,181,l),
(732,151,o),
(674,67,o),
(631,67,cs),
(616,67,o),
(610,77,o),
(610,93,cs),
(610,108,o),
(616,134,o),
(625,168,cs),
(783,770,l),
(704,770,l),
(644,630,l),
(530,202,ls),
(510,127,o),
(503,85,o),
(503,59,cs),
(503,11,o),
(527,-10,o),
(568,-10,cs)
);
}
);
};
layerId = m001;
shapes = (
{
closed = 1;
nodes = (
(689,595,o),
(656,780,o),
(456,780,cs),
(210,780,o),
(15,513,o),
(15,269,cs),
(15,70,o),
(124,-9,o),
(258,-9,cs),
(444,-9,o),
(621,182,o),
(662,432,cs)
);
},
{
closed = 1;
nodes = (
(613,727,o),
(619,603,o),
(596,469,cs),
(552,215,o),
(423,43,o),
(278,43,cs),
(174,43,o),
(130,132,o),
(130,247,cs),
(130,433,o),
(244,727,o),
(468,727,cs)
);
},
{
closed = 1;
nodes = (
(642,-10,o),
(727,60,o),
(778,164,c),
(748,181,l),
(732,151,o),
(674,67,o),
(631,67,cs),
(616,67,o),
(610,77,o),
(610,93,cs),
(610,108,o),
(616,134,o),
(625,168,cs),
(783,770,l),
(704,770,l),
(644,630,l),
(530,202,ls),
(510,127,o),
(503,85,o),
(503,59,cs),
(503,11,o),
(527,-10,o),
(568,-10,cs)
);
}
);
width = 805;
},
{
associatedMasterId = m001;
background = {
shapes = (
{
closed = 1;
nodes = (
(690,590,o),
(660,780,o),
(453,780,cs),
(209,780,o),
(15,536,o),
(15,288,cs),
(15,121,o),
(115,-9,o),
(267,-9,cs),
(444,-9,o),
(617,182,o),
(662,431,cs)
);
},
{
closed = 1;
nodes = (
(613,727,o),
(619,604,o),
(597,472,cs),
(551,215,o),
(423,43,o),
(280,43,cs),
(173,43,o),
(130,131,o),
(130,242,cs),
(130,425,o),
(244,727,o),
(465,727,cs)
);
},
{
closed = 1;
nodes = (
(642,-10,o),
(736,73,o),
(778,164,c),
(748,181,l),
(732,151,o),
(674,67,o),
(631,67,cs),
(616,67,o),
(610,78,o),
(610,90,cs),
(610,109,o),
(616,134,o),
(625,168,cs),
(781,763,l),
(724,763,l),
(649,635,l),
(636,600,l),
(530,202,ls),
(510,124,o),
(503,82,o),
(503,55,cs),
(503,9,o),
(527,-10,o),
(578,-10,cs)
);
}
);
};
layerId = "9C83ED8E-6945-4E5D-A460-CAA29AE02533";
name = "28 Oct 24 at 11:53AM";
shapes = (
{
closed = 1;
nodes = (
(690,590,o),
(660,780,o),
(453,780,cs),
(209,780,o),
(15,536,o),
(15,288,cs),
(15,121,o),
(115,-9,o),
(267,-9,cs),
(444,-9,o),
(617,182,o),
(662,431,cs)
);
},
{
closed = 1;
nodes = (
(613,727,o),
(619,604,o),
(597,472,cs),
(551,215,o),
(423,43,o),
(280,43,cs),
(173,43,o),
(130,131,o),
(130,242,cs),
(130,425,o),
(244,727,o),
(465,727,cs)
);
},
{
closed = 1;
nodes = (
(642,-10,o),
(736,73,o),
(778,164,c),
(748,181,l),
(732,151,o),
(674,67,o),
(631,67,cs),
(616,67,o),
(610,78,o),
(610,90,cs),
(610,109,o),
(616,134,o),
(625,168,cs),
(783,770,l),
(715,770,l),
(644,630,l),
(530,202,ls),
(509,125,o),
(503,82,o),
(503,55,cs),
(503,9,o),
(527,-10,o),
(578,-10,cs)
);
}
);
width = 805;
},
{
associatedMasterId = m001;
layerId = "70A62BB4-2B38-4E8D-9F69-37A65E32628C";
name = "28 Oct 24 at 11:44AM";
shapes = (
{
closed = 1;
nodes = (
(313,813,o),
(86,628,o),
(42,377,cs),
(7,177,o),
(89,23,o),
(245,-5,cs),
(435,-38,o),
(633,162,o),
(681,431,cs),
(714,618,o),
(653,753,o),
(529,775,cs)
);
},
{
closed = 1;
nodes = (
(613,708,o),
(643,628,o),
(616,472,cs),
(567,197,o),
(423,19,o),
(268,46,cs),
(169,64,o),
(128,171,o),
(160,353,cs),
(202,589,o),
(360,752,o),
(520,724,cs)
);
},
{
closed = 1;
nodes = (
(786,702,o),
(809,730,o),
(897,730,c),
(908,770,l),
(703,770,l),
(671,682,l),
(671,663,o),
(666,637,o),
(656,600,cs),
(539,158,ls),
(524,100,o),
(522,28,o),
(533,0,c),
(712,0,l),
(724,40,l),
(660,40,o),
(633,53,o),
(633,98,cs),
(633,116,o),
(637,139,o),
(645,168,cs),
(750,566,ls)
);
}
);
width = 841;
},
{
associatedMasterId = m001;
layerId = "4E2889C2-266A-4FDE-B5F4-D65F1826C22E";
name = "28 Oct 24 at 11:46AM";
shapes = (
{
closed = 1;
nodes = (
(679,780,o),
(472,780,cs),
(228,780,o),
(34,536,o),
(34,288,cs),
(34,121,o),
(134,-9,o),
(286,-9,cs),
(463,-9,o),
(636,182,o),
(681,431,cs),
(709,590,o)
);
},
{
closed = 1;
nodes = (
(638,604,o),
(616,472,cs),
(570,215,o),
(442,43,o),
(299,43,cs),
(192,43,o),
(149,131,o),
(149,242,cs),
(149,425,o),
(263,727,o),
(484,727,cs),
(632,727,o)
);
},
{
closed = 1;
nodes = (
(785,702,o),
(808,730,o),
(896,730,c),
(907,770,l),
(702,770,l),
(655,600,l),
(538,158,l),
(532,0,l),
(711,0,l),
(723,40,l),
(659,40,o),
(632,53,o),
(632,98,cs),
(632,116,o),
(636,139,o),
(644,168,cs),
(749,566,ls)
);
}
);
width = 841;
},
{
background = {
shapes = (
{
closed = 1;
nodes = (
(727,595,o),
(694,780,o),
(494,780,cs),
(248,780,o),
(53,513,o),
(53,269,cs),
(53,70,o),
(162,-9,o),
(296,-9,cs),
(482,-9,o),
(659,182,o),
(700,432,cs)
);
},
{
closed = 1;
nodes = (
(651,727,o),
(657,603,o),
(634,469,cs),
(590,215,o),
(461,43,o),
(316,43,cs),
(212,43,o),
(168,132,o),
(168,247,cs),
(168,433,o),
(282,727,o),
(506,727,cs)
);
},
{
closed = 1;
nodes = (
(680,-10,o),
(765,60,o),
(816,164,c),
(786,181,l),
(770,151,o),
(712,67,o),
(669,67,cs),
(654,67,o),
(648,77,o),
(648,93,cs),
(648,108,o),
(654,134,o),
(663,168,cs),
(821,770,l),
(742,770,l),
(682,630,l),
(568,202,ls),
(548,127,o),
(541,85,o),
(541,59,cs),
(541,11,o),
(565,-10,o),
(606,-10,cs)
);
}
);
};
layerId = m002;
shapes = (
{
closed = 1;
nodes = (
(730,596,o),
(694,780,o),
(494,780,cs),
(237,780,o),
(33,513,o),
(33,269,cs),
(33,70,o),
(151,-9,o),
(296,-9,cs),
(482,-9,o),
(659,205,o),
(700,432,cs)
);
},
{
closed = 1;
nodes = (
(651,717,o),
(656,598,o),
(634,469,cs),
(591,221,o),
(461,53,o),
(316,53,cs),
(226,53,o),
(188,138,o),
(188,247,cs),
(188,429,o),
(295,717,o),
(506,717,cs)
);
},
{
closed = 1;
nodes = (
(713,-10,o),
(815,64,o),
(867,174,c),
(825,192,l),
(811,164,o),
(756,79,o),
(716,79,cs),
(701,79,o),
(695,89,o),
(695,105,cs),
(695,120,o),
(701,146,o),
(710,180,cs),
(867,770,l),
(742,770,l),
(682,630,l),
(568,202,ls),
(548,127,o),
(541,85,o),
(541,59,cs),
(541,11,o),
(573,-10,o),
(629,-10,cs)
);
}
);
width = 890;
},
{
associatedMasterId = m002;
background = {
shapes = (
{
closed = 1;
nodes = (
(690,590,o),
(660,780,o),
(453,780,cs),
(209,780,o),
(15,536,o),
(15,288,cs),
(15,121,o),
(115,-9,o),
(267,-9,cs),
(444,-9,o),
(617,182,o),
(662,431,cs)
);
},
{
closed = 1;
nodes = (
(613,727,o),
(619,604,o),
(597,472,cs),
(551,215,o),
(423,43,o),
(280,43,cs),
(173,43,o),
(130,131,o),
(130,242,cs),
(130,425,o),
(244,727,o),
(465,727,cs)
);
},
{
closed = 1;
nodes = (
(642,-10,o),
(736,73,o),
(778,164,c),
(748,181,l),
(732,151,o),
(674,67,o),
(631,67,cs),
(616,67,o),
(610,78,o),
(610,90,cs),
(610,109,o),
(616,134,o),
(625,168,cs),
(781,763,l),
(724,763,l),
(649,635,l),
(636,600,l),
(530,202,ls),
(510,124,o),
(503,82,o),
(503,55,cs),
(503,9,o),
(527,-10,o),
(578,-10,cs)
);
}
);
};
layerId = "967EBCA6-920F-47B0-97F9-1F42C5D5BE21";
name = "28 Oct 24 at 11:53AM";
shapes = (
{
closed = 1;
nodes = (
(690,590,o),
(660,780,o),
(453,780,cs),
(209,780,o),
(15,536,o),
(15,288,cs),
(15,121,o),
(115,-9,o),
(267,-9,cs),
(444,-9,o),
(617,182,o),
(662,431,cs)
);
},
{
closed = 1;
nodes = (
(613,727,o),
(619,604,o),
(597,472,cs),
(551,215,o),
(423,43,o),
(280,43,cs),
(173,43,o),
(130,131,o),
(130,242,cs),
(130,425,o),
(244,727,o),
(465,727,cs)
);
},
{
closed = 1;
nodes = (
(642,-10,o),
(736,73,o),
(778,164,c),
(748,181,l),
(732,151,o),
(674,67,o),
(631,67,cs),
(616,67,o),
(610,78,o),
(610,90,cs),
(610,109,o),
(616,134,o),
(625,168,cs),
(783,770,l),
(715,770,l),
(644,630,l),
(530,202,ls),
(509,125,o),
(503,82,o),
(503,55,cs),
(503,9,o),
(527,-10,o),
(578,-10,cs)
);
}
);
width = 805;
},
{
associatedMasterId = m002;
layerId = "95E90B32-8E1B-416B-AD8A-B830C05D310E";
name = "28 Oct 24 at 11:44AM";
shapes = (
{
closed = 1;
nodes = (
(313,813,o),
(86,628,o),
(42,377,cs),
(7,177,o),
(89,23,o),
(245,-5,cs),
(435,-38,o),
(633,162,o),
(681,431,cs),
(714,618,o),
(653,753,o),
(529,775,cs)
);
},
{
closed = 1;
nodes = (
(613,708,o),
(643,628,o),
(616,472,cs),
(567,197,o),
(423,19,o),
(268,46,cs),
(169,64,o),
(128,171,o),
(160,353,cs),
(202,589,o),
(360,752,o),
(520,724,cs)
);
},
{
closed = 1;
nodes = (
(786,702,o),
(809,730,o),
(897,730,c),
(908,770,l),
(703,770,l),
(671,682,l),
(671,663,o),
(666,637,o),
(656,600,cs),
(539,158,ls),
(524,100,o),
(522,28,o),
(533,0,c),
(712,0,l),
(724,40,l),
(660,40,o),
(633,53,o),
(633,98,cs),
(633,116,o),
(637,139,o),
(645,168,cs),
(750,566,ls)
);
}
);
width = 841;
},
{
associatedMasterId = m002;
layerId = "226FDCAE-9F68-4B0E-9DCF-9BFE93FBC480";
name = "28 Oct 24 at 11:46AM";
shapes = (
{
closed = 1;
nodes = (
(679,780,o),
(472,780,cs),
(228,780,o),
(34,536,o),
(34,288,cs),
(34,121,o),
(134,-9,o),
(286,-9,cs),
(463,-9,o),
(636,182,o),
(681,431,cs),
(709,590,o)
);
},
{
closed = 1;
nodes = (
(638,604,o),
(616,472,cs),
(570,215,o),
(442,43,o),
(299,43,cs),
(192,43,o),
(149,131,o),
(149,242,cs),
(149,425,o),
(263,727,o),
(484,727,cs),
(632,727,o)
);
},
{
closed = 1;
nodes = (
(785,702,o),
(808,730,o),
(896,730,c),
(907,770,l),
(702,770,l),
(655,600,l),
(538,158,l),
(532,0,l),
(711,0,l),
(723,40,l),
(659,40,o),
(632,53,o),
(632,98,cs),
(632,116,o),
(636,139,o),
(644,168,cs),
(749,566,ls)
);
}
);
width = 841;
}
);
unicode = 11373;
},
{
color = 4;
glyphname = Aringacute;
kernLeft = KERN_A;
kernRight = KERN_A;
lastChange = "2025-06-16 20:10:18 +0000";
layers = (
{
background = {
shapes = (
{
closed = 1;
nodes = (
(577,850,l),
(623,858,l),
(630,841,o),
(646,830,o),
(669,830,cs),
(706,830,o),
(741,857,o),
(752,891,c),
(797,900,o),
(823,915,o),
(823,935,cs),
(823,948,o),
(812,955,o),
(793,955,cs),
(777,955,o),
(763,950,o),
(745,942,c),
(736,953,o),
(722,960,o),
(705,960,cs),
(667,960,o),
(631,930,o),
(622,894,c),
(517,850,l)
);
},
{
closed = 1;
nodes = (
(712,928,o),
(722,918,o),
(722,903,cs),
(722,881,o),
(700,861,o),
(677,861,cs),
(662,861,o),
(652,870,o),
(652,885,cs),
(652,907,o),
(673,928,o),
(696,928,cs)
);
}
);
};
layerId = m001;
shapes = (
{
ref = A;
},
{
pos = (340,-6);
ref = ring_acutecomb.case;
}
);
width = 763;
},
{
background = {
shapes = (
{
closed = 1;
nodes = (
(577,850,l),
(623,858,l),
(630,841,o),
(646,830,o),
(669,830,cs),
(706,830,o),
(741,857,o),
(752,891,c),
(797,900,o),
(823,915,o),
(823,935,cs),
(823,948,o),
(812,955,o),
(793,955,cs),
(777,955,o),
(763,950,o),
(745,942,c),
(736,953,o),
(722,960,o),
(705,960,cs),
(667,960,o),
(631,930,o),
(622,894,c),
(517,850,l)
);
},
{
closed = 1;
nodes = (
(712,928,o),
(722,918,o),
(722,903,cs),
(722,881,o),
(700,861,o),
(677,861,cs),
(662,861,o),
(652,870,o),
(652,885,cs),
(652,907,o),
(673,928,o),
(696,928,cs)
);
}
);
};
layerId = m002;
shapes = (
{
ref = A;
},
{
pos = (357,0);
ref = ring_acutecomb.case;
}
);
width = 771;
}
);
unicode = 506;
},
{
color = 4;
glyphname = Astroke;
lastChange = "2025-08-05 07:40:53 +0000";
layers = (
{
layerId = m001;
shapes = (
{
ref = A;
},
{
closed = 1;
nodes = (
(22,-80,l),
(92,-80,l),
(818,820,l),
(748,820,l)
);
}
);
width = 763;
},
{
layerId = m002;
shapes = (
{
ref = A;
},
{
closed = 1;
nodes = (
(34,-80,l),
(104,-80,l),
(858,820,l),
(788,820,l)
);
}
);
width = 763;
}
);
unicode = 570;
},
{
color = 4;
glyphname = AE;
kernLeft = KERN_AE_2ND;
kernRight = KERN_E_1ST;
lastChange = "2025-06-14 16:07:44 +0000";
layers = (
{
anchors = (
{
name = top;
pos = (733,830);
}
);
background = {
anchors = (
{
name = top;
pos = (733,830);
}
);
shapes = (
{
closed = 1;
nodes = (
(1006,211,l),
(959,211,l),
(904,87,o),
(839,43,o),
(686,43,cs),
(592,43,o),
(562,57,o),
(562,89,cs),
(562,105,o),
(566,131,o),
(574,166,cs),
(623,385,l),
(685,385,ls),
(746,385,o),
(765,358,o),
(765,299,cs),
(765,284,o),
(764,267,o),
(762,247,c),
(802,247,l),
(862,543,l),
(825,543,l),
(783,451,o),
(757,429,o),
(686,429,cs),
(633,429,l),
(701,726,l),
(831,726,ls),
(915,726,o),
(965,695,o),
(999,568,c),
(1037,568,l),
(1037,770,l),
(461,770,l),
(450,730,l),
(527,730,o),
(558,723,o),
(558,706,cs),
(558,698,o),
(552,689,o),
(542,677,cs),
(168,231,ls),
(45,85,o),
(-12,40,o),
(-75,40,c),
(-85,0,l),
(174,0,l),
(184,40,l),
(129,40,o),
(109,49,o),
(109,74,cs),
(109,90,o),
(118,110,o),
(227,224,cs),
(290,290,l),
(505,290,l),
(478,167,ls),
(454,58,o),
(437,40,o),
(359,40,c),
(349,0,l),
(928,0,l)
);
},
{
closed = 1;
nodes = (
(592,650,l),
(596,650,l),
(514,340,l),
(333,340,l)
);
}
);
};
layerId = m001;
shapes = (
{
closed = 1;
nodes = (
(1006,211,l),
(959,211,l),
(904,87,o),
(839,43,o),
(686,43,cs),
(592,43,o),
(562,57,o),
(562,89,cs),
(562,105,o),
(566,131,o),
(574,166,cs),
(623,385,l),
(685,385,ls),
(746,385,o),
(765,358,o),
(765,299,cs),
(765,284,o),
(764,267,o),
(762,247,c),
(802,247,l),
(862,543,l),
(825,543,l),
(783,451,o),
(757,429,o),
(686,429,cs),
(633,429,l),
(701,726,l),
(831,726,ls),
(915,726,o),
(965,695,o),
(999,568,c),
(1037,568,l),
(1037,770,l),
(461,770,l),
(450,730,l),
(527,730,o),
(558,723,o),
(558,706,cs),
(558,698,o),
(552,689,o),
(542,677,cs),
(168,231,ls),
(45,85,o),
(-12,40,o),
(-75,40,c),
(-85,0,l),
(174,0,l),
(184,40,l),
(129,40,o),
(109,49,o),
(109,74,cs),
(109,90,o),
(118,110,o),
(227,224,cs),
(290,290,l),
(505,290,l),
(478,167,ls),
(454,58,o),
(437,40,o),
(359,40,c),
(349,0,l),
(928,0,l)
);
},
{
closed = 1;
nodes = (
(592,650,l),
(596,650,l),
(514,340,l),
(333,340,l)
);
}
);
width = 1071;
},
{
anchors = (
{
name = top;
pos = (727,830);
}
);
background = {
anchors = (
{
name = top;
pos = (727,830);
}
);
shapes = (
{
closed = 1;
nodes = (
(624,780,l),
(163,231,ls),
(40,85,o),
(-17,40,o),
(-80,40,c),
(-90,0,l),
(189,0,l),
(199,40,l),
(144,40,o),
(124,49,o),
(124,74,cs),
(124,90,o),
(134,109,o),
(242,224,cs),
(304,290,l),
(502,290,l),
(475,167,ls),
(451,58,o),
(434,40,o),
(356,40,c),
(346,0,l),
(690,0,l),
(700,40,l),
(627,40,o),
(607,50,o),
(607,89,cs),
(607,105,o),
(611,131,o),
(619,166,cs),
(758,780,l)
);
},
{
closed = 1;
nodes = (
(582,621,l),
(586,621,l),
(511,340,l),
(348,340,l)
);
}
);
};
layerId = m002;
shapes = (
{
closed = 1;
nodes = (
(1067,229,l),
(1020,229,l),
(966,112,o),
(910,53,o),
(759,53,cs),
(653,53,o),
(611,70,o),
(611,130,cs),
(611,143,o),
(613,159,o),
(617,177,cs),
(660,381,l),
(727,380,ls),
(788,379,o),
(818,340,o),
(818,304,cs),
(818,289,o),
(817,272,o),
(815,252,c),
(855,252,l),
(905,544,l),
(868,544,l),
(827,452,o),
(809,432,o),
(729,432,cs),
(670,432,l),
(738,716,l),
(863,716,ls),
(947,716,o),
(998,692,o),
(1034,565,c),
(1084,566,l),
(1074,770,l),
(453,770,l),
(442,730,l),
(519,730,o),
(550,723,o),
(550,706,cs),
(550,698,o),
(538,682,o),
(534,677,cs),
(164,231,ls),
(43,85,o),
(-18,40,o),
(-81,40,c),
(-91,0,l),
(186,0,l),
(196,40,l),
(143,40,o),
(123,48,o),
(123,73,cs),
(123,89,o),
(151,124,o),
(239,224,cs),
(297,290,l),
(501,290,l),
(472,167,ls),
(446,58,o),
(431,40,o),
(353,40,c),
(343,0,l),
(991,0,l)
);
},
{
closed = 1;
nodes = (
(582,620,l),
(586,620,l),
(510,340,l),
(345,340,l)
);
}
);
width = 1090;
}
);
unicode = 198;
},
{
color = 4;
glyphname = B;
kernLeft = KERN_I_2ND;
lastChange = "2025-08-10 23:51:04 +0000";
layers = (
{
anchors = (
{
name = bottom;
pos = (311,0);
},
{
name = top;
pos = (459,830);
}
);
layerId = m001;
shapes = (
{
closed = 1;
nodes = (
(337,0,ls),
(520,0,o),
(654,85,o),
(654,221,cs),
(654,318,o),
(590,383,o),
(474,407,c),
(474,411,l),
(567,425,o),
(686,467,o),
(686,597,cs),
(686,735,o),
(548,770,o),
(433,770,cs),
(165,770,l),
(154,730,l),
(220,730,o),
(246,714,o),
(246,669,cs),
(246,651,o),
(242,628,o),
(235,600,cs),
(117,159,ls),
(89,55,o),
(63,40,o),
(-18,40,c),
(-29,0,l)
);
},
{
closed = 1;
nodes = (
(337,385,ls),
(472,385,o),
(537,340,o),
(537,239,cs),
(537,128,o),
(451,45,o),
(304,45,cs),
(262,45,o),
(210,51,o),
(210,105,cs),
(210,130,o),
(224,182,o),
(231,207,cs),
(280,385,l)
);
},
{
closed = 1;
nodes = (
(349,645,ls),
(364,702,o),
(384,725,o),
(420,725,cs),
(535,725,o),
(580,688,o),
(580,602,cs),
(580,503,o),
(493,436,o),
(367,436,cs),
(293,436,l)
);
}
);
width = 736;
},
{
anchors = (
{
name = bottom;
pos = (314,0);
},
{
name = top;
pos = (480,830);
}
);
background = {
shapes = (
{
closed = 1;
nodes = (
(349,0,ls),
(532,0,o),
(666,85,o),
(666,221,cs),
(666,318,o),
(602,383,o),
(486,407,c),
(486,411,l),
(579,425,o),
(698,467,o),
(698,597,cs),
(698,735,o),
(560,770,o),
(445,770,cs),
(177,770,l),
(166,730,l),
(232,730,o),
(258,714,o),
(258,669,cs),
(258,651,o),
(254,628,o),
(247,600,cs),
(129,159,ls),
(101,55,o),
(75,40,o),
(-6,40,c),
(-17,0,l)
);
},
{
closed = 1;
nodes = (
(349,385,ls),
(484,385,o),
(549,340,o),
(549,239,cs),
(549,128,o),
(463,45,o),
(316,45,cs),
(274,45,o),
(222,51,o),
(222,105,cs),
(222,130,o),
(236,182,o),
(243,207,cs),
(292,385,l)
);
},
{
closed = 1;
nodes = (
(361,645,ls),
(376,702,o),
(396,725,o),
(432,725,cs),
(547,725,o),
(592,688,o),
(592,602,cs),
(592,503,o),
(505,436,o),
(379,436,cs),
(305,436,l)
);
}
);
};
layerId = m002;
shapes = (
{
closed = 1;
nodes = (
(321,0,ls),
(503,0,o),
(693,60,o),
(693,235,cs),
(693,329,o),
(632,391,o),
(521,411,c),
(522,415,l),
(623,435,o),
(724,502,o),
(724,608,cs),
(724,704,o),
(639,770,o),
(484,770,cs),
(163,770,l),
(152,730,l),
(200,727,o),
(220,719,o),
(220,685,cs),
(220,668,o),
(215,646,o),
(207,616,cs),
(83,154,ls),
(58,60,o),
(37,43,o),
(-53,40,c),
(-64,0,l)
);
},
{
closed = 1;
nodes = (
(337,375,ls),
(418,375,o),
(532,371,o),
(532,249,cs),
(532,171,o),
(486,61,o),
(338,61,cs),
(263,61,o),
(229,84,o),
(229,129,cs),
(229,144,o),
(233,164,o),
(236,175,cs),
(289,375,l)
);
},
{
closed = 1;
nodes = (
(371,668,ls),
(379,696,o),
(399,710,o),
(444,710,cs),
(528,710,o),
(581,678,o),
(581,611,cs),
(581,496,o),
(488,435,o),
(364,435,cs),
(305,435,l)
);
}
);
width = 743;
}
);
unicode = 66;
},
{
color = 4;
glyphname = Bhook;
lastChange = "2025-08-06 17:24:34 +0000";
layers = (
{
layerId = m001;
shapes = (
{
pos = (198,0);
ref = B;
},
{
closed = 1;
nodes = (
(247,730,o),
(323,730,cs),
(352,730,l),
(554,729,l),
(541,768,l),
(363,770,l),
(329,771,ls),
(189,775,o),
(79,710,o),
(79,582,cs),
(79,489,o),
(136,454,o),
(195,454,cs),
(253,454,o),
(293,488,o),
(293,529,cs),
(293,558,o),
(273,581,o),
(240,581,cs),
(207,581,o),
(203,558,o),
(175,558,cs),
(152,558,o),
(139,574,o),
(139,607,cs),
(139,702,o)
);
}
);
width = 934;
},
{
associatedMasterId = m001;
layerId = "DB5E5398-21C1-4F20-88E5-BDA04DA40023";
name = "3 Nov 24 at 7:05PM";
shapes = (
{
pos = (187,0);
ref = B;
},
{
closed = 1;
nodes = (
(148,688,o),
(210,716,o),
(340,714,cs),
(551,711,l),
(530,768,l),
(318,771,ls),
(182,773,o),
(102,723,o),
(76,624,cs),
(53,541,o),
(83,477,o),
(152,458,cs),
(211,443,o),
(267,467,o),
(280,514,cs),
(288,544,o),
(273,571,o),
(243,579,cs),
(200,591,o),
(190,550,o),
(156,559,cs),
(131,566,o),
(122,591,o),
(131,626,cs)
);
}
);
width = 923;
},
{
background = {
shapes = (
{
closed = 1;
nodes = (
(247,730,o),
(323,730,cs),
(554,729,l),
(541,768,l),
(329,771,ls),
(189,775,o),
(79,710,o),
(79,582,cs),
(79,489,o),
(136,454,o),
(195,454,cs),
(253,454,o),
(293,488,o),
(293,529,cs),
(293,558,o),
(273,581,o),
(240,581,cs),
(207,581,o),
(203,558,o),
(175,558,cs),
(152,558,o),
(139,574,o),
(139,607,cs),
(139,702,o)
);
}
);
};
layerId = m002;
shapes = (
{
pos = (198,0);
ref = B;
},
{
closed = 1;
nodes = (
(247,730,o),
(323,730,cs),
(352,730,l),
(554,729,l),
(541,768,l),
(363,770,l),
(329,770,ls),
(189,770,o),
(79,708,o),
(79,577,cs),
(79,480,o),
(136,444,o),
(195,444,cs),
(253,444,o),
(293,480,o),
(293,524,cs),
(293,556,o),
(273,581,o),
(240,581,cs),
(207,581,o),
(203,558,o),
(175,558,cs),
(152,558,o),
(139,574,o),
(139,607,cs),
(139,702,o)
);
}
);
width = 934;
},
{
associatedMasterId = m002;
layerId = "1C717457-EFC3-4968-956E-DD50380B6B9F";
name = "3 Nov 24 at 7:05PM";
shapes = (
{
pos = (187,0);
ref = B;
},
{
closed = 1;
nodes = (
(148,688,o),
(210,716,o),
(340,714,cs),
(551,711,l),
(530,768,l),
(318,771,ls),
(182,773,o),
(102,723,o),
(76,624,cs),
(53,541,o),
(83,477,o),
(152,458,cs),
(211,443,o),
(267,467,o),
(280,514,cs),
(288,544,o),
(273,571,o),
(243,579,cs),
(200,591,o),
(190,550,o),
(156,559,cs),
(131,566,o),
(122,591,o),
(131,626,cs)
);
}
);
width = 923;
}
);
unicode = 385;
},
{
color = 4;
glyphname = Bstroke;
lastChange = "2025-08-05 14:10:40 +0000";
layers = (
{
layerId = m001;
shapes = (
{
ref = B;
},
{
closed = 1;
nodes = (
(355,256,l),
(57,256,l),
(41,202,l),
(339,202,l)
);
}
);
width = 736;
},
{
layerId = m002;
shapes = (
{
ref = B;
},
{
closed = 1;
nodes = (
(365,256,l),
(57,256,l),
(41,202,l),
(349,202,l)
);
}
);
width = 736;
}
);
unicode = 579;
},
{
color = 4;
glyphname = C;
kernLeft = KERN_C;
kernRight = KERN_C;
lastChange = "2025-08-10 23:46:01 +0000";
layers = (
{
anchors = (
{
name = bottom;
pos = (343,0);
},
{
name = top;
pos = (532,830);
}
);
layerId = m001;
shapes = (
{
closed = 1;
nodes = (
(629,213,l),
(552,102,o),
(471,52,o),
(367,52,cs),
(253,52,o),
(194,136,o),
(194,300,cs),
(194,540,o),
(331,728,o),
(506,728,cs),
(608,728,o),
(658,663,o),
(668,519,c),
(706,519,l),
(752,770,l),
(715,770,l),
(678,720,l),
(622,761,o),
(568,780,o),
(507,780,cs),
(277,780,o),
(73,554,o),
(73,301,cs),
(73,110,o),
(175,-10,o),
(339,-10,cs),
(472,-10,o),
(565,47,o),
(665,189,c)
);
}
);
width = 728;
},
{
anchors = (
{
name = bottom;
pos = (287,0);
},
{
name = top;
pos = (529,830);
}
);
associatedMasterId = m001;
layerId = "360BF9F4-5203-4020-BDC8-9543D26CB1BA";
name = "11 Sep 24 at 3:38AM";
shapes = (
{
closed = 1;
nodes = (
(629,213,l),
(558,102,o),
(483,52,o),
(387,52,cs),
(260,52,o),
(194,136,o),
(194,300,cs),
(194,540,o),
(331,728,o),
(506,728,cs),
(608,728,o),
(658,663,o),
(668,519,c),
(706,519,l),
(752,770,l),
(715,770,l),
(678,720,l),
(619,761,o),
(562,780,o),
(498,780,cs),
(273,780,o),
(73,554,o),
(73,301,cs),
(73,110,o),
(185,-10,o),
(365,-10,cs),
(488,-10,o),
(573,47,o),
(665,189,c)
);
}
);
width = 728;
},
{
anchors = (
{
name = bottom;
pos = (341,0);
},
{
name = top;
pos = (530,830);
}
);
background = {
shapes = (
{
closed = 1;
nodes = (
(647,213,l),
(570,102,o),
(489,52,o),
(385,52,cs),
(271,52,o),
(212,136,o),
(212,300,cs),
(212,540,o),
(349,728,o),
(524,728,cs),
(626,728,o),
(676,663,o),
(686,519,c),
(724,519,l),
(770,770,l),
(733,770,l),
(696,720,l),
(640,761,o),
(586,780,o),
(525,780,cs),
(295,780,o),
(91,554,o),
(91,301,cs),
(91,110,o),
(193,-10,o),
(357,-10,cs),
(490,-10,o),
(583,47,o),
(683,189,c)
);
}
);
};
layerId = m002;
shapes = (
{
closed = 1;
nodes = (
(654,223,l),
(577,112,o),
(496,62,o),
(392,62,cs),
(275,62,o),
(214,143,o),
(214,300,cs),
(214,534,o),
(349,718,o),
(524,718,cs),
(619,718,o),
(665,663,o),
(674,509,c),
(724,509,l),
(772,770,l),
(725,770,l),
(688,720,l),
(635,761,o),
(584,780,o),
(527,780,cs),
(274,780,o),
(49,554,o),
(49,301,cs),
(49,110,o),
(168,-10,o),
(359,-10,cs),
(494,-10,o),
(588,50,o),
(690,199,c)
);
}
);
width = 726;
},
{
anchors = (
{
name = bottom;
pos = (287,0);
},
{
name = top;
pos = (529,830);
}
);
associatedMasterId = m002;
layerId = "F21AE2C5-A430-4808-9534-BC21639FDC14";
name = "11 Sep 24 at 3:38AM";
shapes = (
{
closed = 1;
nodes = (
(629,213,l),
(558,102,o),
(483,52,o),
(387,52,cs),
(260,52,o),
(194,136,o),
(194,300,cs),
(194,540,o),
(331,728,o),
(506,728,cs),
(608,728,o),
(658,663,o),
(668,519,c),
(706,519,l),
(752,770,l),
(715,770,l),
(678,720,l),
(619,761,o),
(562,780,o),
(498,780,cs),
(273,780,o),
(73,554,o),
(73,301,cs),
(73,110,o),
(185,-10,o),
(365,-10,cs),
(488,-10,o),
(573,47,o),
(665,189,c)
);
}
);
width = 728;
}
);
unicode = 67;
},
{
color = 4;
glyphname = Cbar;
lastChange = "2025-08-05 14:11:04 +0000";
layers = (
{
layerId = m001;
shapes = (
{
pos = (0,-1);
ref = C;
},
{
closed = 1;
nodes = (
(378,412,l),
(40,412,l),
(24,358,l),
(362,358,l)
);
}
);
width = 728;
},
{
layerId = m002;
shapes = (
{
pos = (0,-1);
ref = C;
},
{
closed = 1;
nodes = (
(388,412,l),
(20,412,l),
(4,358,l),
(372,358,l)
);
}
);
width = 728;
}
);
unicode = 42898;
},
{
color = 4;
glyphname = Chook;
lastChange = "2025-08-07 14:01:36 +0000";
layers = (
{
anchors = (
{
name = bottom;
pos = (343,0);
},
{
name = top;
pos = (532,830);
}
);
background = {
anchors = (
{
name = bottom;
pos = (343,0);
},
{
name = top;
pos = (532,830);
}
);
shapes = (
{
closed = 1;
nodes = (
(627,761,o),
(568,780,o),
(507,780,cs),
(277,780,o),
(73,554,o),
(73,301,cs),
(73,110,o),
(175,-10,o),
(339,-10,cs),
(472,-10,o),
(565,47,o),
(665,189,c),
(629,213,l),
(552,102,o),
(471,52,o),
(367,52,cs),
(253,52,o),
(194,136,o),
(194,300,cs),
(194,540,o),
(331,728,o),
(506,728,cs),
(608,728,o),
(658,663,o),
(668,519,c),
(706,519,l),
(742,711,ls),
(757,791,o),
(801,858,o),
(875,858,cs),
(919,858,o),
(943,835,o),
(983,835,cs),
(1022,835,o),
(1043,856,o),
(1043,886,cs),
(1043,924,o),
(1010,950,o),
(944,950,cs),
(888,950,o),
(826,931,o),
(775,883,cs),
(738,849,o),
(700,792,o),
(683,720,c)
);
}
);
};
layerId = m001;
shapes = (
{
closed = 1;
nodes = (
(472,-10,o),
(565,47,o),
(665,189,c),
(629,213,l),
(552,102,o),
(471,52,o),
(367,52,cs),
(253,52,o),
(194,136,o),
(194,300,cs),
(194,540,o),
(331,728,o),
(506,728,cs),
(608,728,o),
(658,663,o),
(668,519,c),
(706,519,l),
(742,711,ls),
(757,791,o),
(801,858,o),
(875,858,cs),
(919,858,o),
(943,835,o),
(983,835,cs),
(1022,835,o),
(1043,856,o),
(1043,886,cs),
(1043,924,o),
(1010,950,o),
(944,950,cs),
(888,950,o),
(826,931,o),
(775,883,cs),
(738,849,o),
(700,792,o),
(683,720,c),
(627,761,o),
(568,780,o),
(507,780,cs),
(277,780,o),
(73,554,o),
(73,301,cs),
(73,110,o),
(175,-10,o),
(339,-10,cs)
);
}
);
width = 728;
},
{
anchors = (
{
name = bottom;
pos = (343,0);
},
{
name = top;
pos = (532,830);
}
);
associatedMasterId = m001;
background = {
shapes = (
{
closed = 0;
nodes = (
(715,770,l),
(678,720,l),
(622,761,o),
(568,780,o),
(507,780,cs),
(277,780,o),
(73,554,o),
(73,301,cs),
(73,110,o),
(175,-10,o),
(339,-10,cs),
(472,-10,o),
(565,47,o),
(665,189,c),
(629,213,l),
(552,102,o),
(471,52,o),
(367,52,cs),
(253,52,o),
(194,136,o),
(194,300,cs),
(194,540,o),
(331,728,o),
(506,728,cs),
(608,728,o),
(658,663,o),
(668,519,c),
(706,519,l),
(752,770,l)
);
},
{
closed = 0;
nodes = (
(742,711,l),
(742,779,o),
(814,851,o),
(880,851,cs),
(910,851,o),
(943,840,o),
(971,840,cs),
(1016,840,o),
(1054,871,o),
(1054,910,cs),
(1054,936,o),
(1032,950,o),
(988,950,cs),
(837,950,o),
(670,788,o),
(670,640,cs)
);
}
);
};
layerId = "08CB3DEE-30E4-46C0-AFEC-9D3E4CB100F5";
name = "3 Nov 24 at 8:58PM";
shapes = (
{
closed = 1;
nodes = (
(627,761,o),
(568,780,o),
(507,780,cs),
(277,780,o),
(73,554,o),
(73,301,cs),
(73,110,o),
(175,-10,o),
(339,-10,cs),
(472,-10,o),
(565,47,o),
(665,189,c),
(629,213,l),
(552,102,o),
(471,52,o),
(367,52,cs),
(253,52,o),
(194,136,o),
(194,300,cs),
(194,540,o),
(331,728,o),
(506,728,cs),
(608,728,o),
(658,663,o),
(668,519,c),
(706,519,l),
(742,711,ls),
(756,788,o),
(771,858,o),
(864,858,cs),
(911,858,o),
(925,839,o),
(964,839,cs),
(1006,839,o),
(1034,861,o),
(1034,894,cs),
(1034,929,o),
(1010,950,o),
(948,950,cs),
(878,950,o),
(800,933,o),
(752,881,cs),
(713,839,o),
(698,791,o),
(683,720,c)
);
},
{
closed = 1;
nodes = (
(1221,889,cs),
(1254,889,o),
(1267,876,o),
(1261,853,cs),
(1253,825,o),
(1229,821,o),
(1220,788,cs),
(1211,755,o),
(1229,735,o),
(1258,735,cs),
(1299,735,o),
(1344,775,o),
(1359,833,cs),
(1375,892,o),
(1355,949,o),
(1262,949,cs),
(1134,949,o),
(1040,839,o),
(1006,699,cs),
(998,665,l),
(953,487,l),
(988,474,l),
(1041,676,l),
(1049,705,ls),
(1069,781,o),
(1126,889,o)
);
}
);
width = 728;
},
{
anchors = (
{
name = bottom;
pos = (341,0);
},
{
name = top;
pos = (530,830);
}
);
background = {
anchors = (
{
name = bottom;
pos = (343,0);
},
{
name = top;
pos = (532,830);
}
);
shapes = (
{
closed = 1;
nodes = (
(627,761,o),
(568,780,o),
(507,780,cs),
(277,780,o),
(73,554,o),
(73,301,cs),
(73,110,o),
(175,-10,o),
(339,-10,cs),
(472,-10,o),
(565,47,o),
(665,189,c),
(629,213,l),
(552,102,o),
(471,52,o),
(367,52,cs),
(253,52,o),
(194,136,o),
(194,300,cs),
(194,540,o),
(331,728,o),
(506,728,cs),
(608,728,o),
(658,663,o),
(668,519,c),
(706,519,l),
(742,711,ls),
(757,791,o),
(801,858,o),
(875,858,cs),
(919,858,o),
(943,835,o),
(983,835,cs),
(1022,835,o),
(1043,856,o),
(1043,886,cs),
(1043,924,o),
(1010,950,o),
(944,950,cs),
(888,950,o),
(826,931,o),
(775,883,cs),
(738,849,o),
(700,792,o),
(683,720,c)
);
}
);
};
layerId = m002;
shapes = (
{
closed = 1;
nodes = (
(494,-10,o),
(588,50,o),
(690,199,c),
(654,223,l),
(580,115,o),
(496,62,o),
(395,62,cs),
(275,62,o),
(214,141,o),
(214,299,cs),
(214,534,o),
(349,718,o),
(522,718,cs),
(619,718,o),
(667,660,o),
(674,509,c),
(724,509,l),
(754,698,ls),
(773,818,o),
(824,852,o),
(873,852,cs),
(913,852,o),
(955,830,o),
(986,830,cs),
(1017,830,o),
(1045,853,o),
(1045,886,cs),
(1045,930,o),
(997,950,o),
(940,950,cs),
(865,950,o),
(802,914,o),
(761,870,cs),
(721,827,o),
(702,778,o),
(688,720,c),
(628,765,o),
(584,780,o),
(522,780,cs),
(277,780,o),
(49,554,o),
(49,300,cs),
(49,110,o),
(168,-10,o),
(359,-10,cs)
);
}
);
width = 726;
},
{
anchors = (
{
name = bottom;
pos = (343,0);
},
{
name = top;
pos = (532,830);
}
);
associatedMasterId = m002;
background = {
shapes = (
{
closed = 0;
nodes = (
(715,770,l),
(678,720,l),
(622,761,o),
(568,780,o),
(507,780,cs),
(277,780,o),
(73,554,o),
(73,301,cs),
(73,110,o),
(175,-10,o),
(339,-10,cs),
(472,-10,o),
(565,47,o),
(665,189,c),
(629,213,l),
(552,102,o),
(471,52,o),
(367,52,cs),
(253,52,o),
(194,136,o),
(194,300,cs),
(194,540,o),
(331,728,o),
(506,728,cs),
(608,728,o),
(658,663,o),
(668,519,c),
(706,519,l),
(752,770,l)
);
},
{
closed = 0;
nodes = (
(742,711,l),
(742,779,o),
(814,851,o),
(880,851,cs),
(910,851,o),
(943,840,o),
(971,840,cs),
(1016,840,o),
(1054,871,o),
(1054,910,cs),
(1054,936,o),
(1032,950,o),
(988,950,cs),
(837,950,o),
(670,788,o),
(670,640,cs)
);
}
);
};
layerId = "DFE13EEA-581A-4539-947A-F87428F9CA38";
name = "3 Nov 24 at 8:58PM";
shapes = (
{
closed = 1;
nodes = (
(627,761,o),
(568,780,o),
(507,780,cs),
(277,780,o),
(73,554,o),
(73,301,cs),
(73,110,o),
(175,-10,o),
(339,-10,cs),
(472,-10,o),
(565,47,o),
(665,189,c),
(629,213,l),
(552,102,o),
(471,52,o),
(367,52,cs),
(253,52,o),
(194,136,o),
(194,300,cs),
(194,540,o),
(331,728,o),
(506,728,cs),
(608,728,o),
(658,663,o),
(668,519,c),
(706,519,l),
(742,711,ls),
(756,788,o),
(771,858,o),
(864,858,cs),
(911,858,o),
(925,839,o),
(964,839,cs),
(1006,839,o),
(1034,861,o),
(1034,894,cs),
(1034,929,o),
(1010,950,o),
(948,950,cs),
(878,950,o),
(800,933,o),
(752,881,cs),
(713,839,o),
(698,791,o),
(683,720,c)
);
},
{
closed = 1;
nodes = (
(1221,889,cs),
(1254,889,o),
(1267,876,o),
(1261,853,cs),
(1253,825,o),
(1229,821,o),
(1220,788,cs),
(1211,755,o),
(1229,735,o),
(1258,735,cs),
(1299,735,o),
(1344,775,o),
(1359,833,cs),
(1375,892,o),
(1355,949,o),
(1262,949,cs),
(1134,949,o),
(1040,839,o),
(1006,699,cs),
(998,665,l),
(953,487,l),
(988,474,l),
(1041,676,l),
(1049,705,ls),
(1069,781,o),
(1126,889,o)
);
}
);
width = 728;
}
);
unicode = 391;
},
{
color = 4;
glyphname = Cstroke;
lastChange = "2025-08-05 14:11:25 +0000";
layers = (
{
layerId = m001;
shapes = (
{
ref = C;
},
{
closed = 1;
nodes = (
(72,-80,l),
(142,-80,l),
(668,820,l),
(598,820,l)
);
}
);
width = 728;
},
{
layerId = m002;
shapes = (
{
ref = C;
},
{
closed = 1;
nodes = (
(72,-80,l),
(142,-80,l),
(678,820,l),
(608,820,l)
);
}
);
width = 728;
}
);
unicode = 571;
},
{
color = 4;
glyphname = D;
kernLeft = KERN_I_2ND;
kernRight = KERN_D_1ST;
lastChange = "2025-05-29 19:19:49 +0000";
layers = (
{
anchors = (
{
name = bottom;
pos = (333,0);
},
{
name = top;
pos = (518,830);
}
);
layerId = m001;
shapes = (
{
closed = 1;
nodes = (
(171,730,ls),
(204,730,o),
(254,727,o),
(254,688,cs),
(254,665,o),
(237,618,o),
(232,600,cs),
(117,158,ls),
(90,55,o),
(68,40,o),
(-18,40,c),
(-29,0,l),
(321,0,ls),
(450,0,o),
(565,29,o),
(658,121,cs),
(739,201,o),
(797,326,o),
(797,447,cs),
(797,540,o),
(763,631,o),
(688,693,cs),
(618,751,o),
(527,770,o),
(436,770,cs),
(165,770,l),
(152,730,l)
);
},
{
closed = 1;
nodes = (
(367,714,o),
(389,720,o),
(428,720,cs),
(585,720,o),
(681,624,o),
(681,457,cs),
(681,279,o),
(573,44,o),
(312,44,cs),
(283,44,o),
(212,47,o),
(212,118,cs),
(212,132,o),
(215,150,o),
(237,231,cs),
(355,669,ls)
);
}
);
width = 836;
},
{
anchors = (
{
name = bottom;
pos = (368,0);
},
{
name = top;
pos = (553,830);
}
);
background = {
shapes = (
{
closed = 1;
nodes = (
(206,730,ls),
(239,730,o),
(289,727,o),
(289,688,cs),
(289,665,o),
(272,618,o),
(267,600,cs),
(152,158,ls),
(125,55,o),
(103,40,o),
(17,40,c),
(6,0,l),
(356,0,ls),
(485,0,o),
(600,29,o),
(693,121,cs),
(774,201,o),
(832,326,o),
(832,447,cs),
(832,540,o),
(798,631,o),
(723,693,cs),
(653,751,o),
(562,770,o),
(471,770,cs),
(200,770,l),
(187,730,l)
);
},
{
closed = 1;
nodes = (
(402,714,o),
(424,720,o),
(463,720,cs),
(620,720,o),
(716,624,o),
(716,457,cs),
(716,279,o),
(608,44,o),
(347,44,cs),
(318,44,o),
(247,47,o),
(247,118,cs),
(247,132,o),
(250,150,o),
(272,231,cs),
(390,669,ls)
);
}
);
};
layerId = m002;
shapes = (
{
closed = 1;
nodes = (
(164,730,ls),
(197,730,o),
(247,727,o),
(247,688,cs),
(247,665,o),
(230,618,o),
(225,600,cs),
(110,158,ls),
(83,55,o),
(61,40,o),
(-25,40,c),
(-36,0,l),
(356,0,ls),
(488,0,o),
(606,28,o),
(700,121,cs),
(781,201,o),
(839,326,o),
(839,447,cs),
(839,540,o),
(805,631,o),
(730,693,cs),
(659,752,o),
(564,770,o),
(471,770,cs),
(158,770,l),
(145,730,l)
);
},
{
closed = 1;
nodes = (
(402,714,o),
(424,720,o),
(463,720,cs),
(594,720,o),
(674,624,o),
(674,457,cs),
(674,279,o),
(579,44,o),
(347,44,cs),
(318,44,o),
(247,47,o),
(247,118,cs),
(247,132,o),
(250,150,o),
(272,231,cs),
(390,669,ls)
);
}
);
width = 856;
}
);
unicode = 68;
},
{
color = 4;
glyphname = Dcroat;
kernLeft = KERN_I_2ND;
kernRight = KERN_D_1ST;
lastChange = "2025-08-05 14:13:23 +0000";
layers = (
{
layerId = m001;
shapes = (
{
closed = 1;
nodes = (
(404,418,l),
(95,418,l),
(80,364,l),
(390,364,l)
);
},
{
pos = (4,2);
ref = D;
}
);
width = 839;
},
{
layerId = m002;
shapes = (
{
closed = 1;
nodes = (
(444,418,l),
(95,418,l),
(80,364,l),
(430,364,l)
);
},
{
pos = (4,2);
ref = D;
}
);
width = 839;
}
);
unicode = 272;
},
{
color = 4;
glyphname = Dhook;
lastChange = "2025-08-06 17:25:40 +0000";
layers = (
{
layerId = m001;
shapes = (
{
pos = (200,0);
ref = D;
},
{
closed = 1;
nodes = (
(253,454,o),
(293,488,o),
(293,529,cs),
(293,558,o),
(273,581,o),
(240,581,cs),
(207,581,o),
(203,558,o),
(175,558,cs),
(152,558,o),
(139,574,o),
(139,607,cs),
(139,702,o),
(247,730,o),
(323,730,cs),
(554,729,l),
(541,768,l),
(329,771,ls),
(189,775,o),
(79,710,o),
(79,582,cs),
(79,489,o),
(136,454,o),
(195,454,cs)
);
}
);
width = 1036;
},
{
background = {
shapes = (
{
closed = 1;
nodes = (
(247,730,o),
(323,730,cs),
(554,729,l),
(541,768,l),
(329,771,ls),
(189,775,o),
(79,710,o),
(79,582,cs),
(79,489,o),
(136,454,o),
(195,454,cs),
(253,454,o),
(293,488,o),
(293,529,cs),
(293,558,o),
(273,581,o),
(240,581,cs),
(207,581,o),
(203,558,o),
(175,558,cs),
(152,558,o),
(139,574,o),
(139,607,cs),
(139,702,o)
);
}
);
};
layerId = m002;
shapes = (
{
pos = (200,0);
ref = D;
},
{
closed = 1;
nodes = (
(253,444,o),
(293,480,o),
(293,524,cs),
(293,556,o),
(273,581,o),
(240,581,cs),
(207,581,o),
(203,558,o),
(175,558,cs),
(152,558,o),
(139,574,o),
(139,607,cs),
(139,702,o),
(247,730,o),
(323,730,cs),
(554,729,l),
(541,768,l),
(329,770,ls),
(189,771,o),
(79,708,o),
(79,577,cs),
(79,480,o),
(136,444,o),
(195,444,cs)
);
}
);
width = 1036;
}
);
unicode = 394;
},
{
color = 4;
glyphname = Eth;
kernLeft = KERN_I_2ND;
kernRight = KERN_D_1ST;
lastChange = "2025-08-05 14:19:42 +0000";
layers = (
{
layerId = m001;
shapes = (
{
ref = D;
},
{
closed = 1;
nodes = (
(404,418,l),
(95,418,l),
(80,364,l),
(390,364,l)
);
}
);
width = 836;
},
{
layerId = m002;
shapes = (
{
ref = D;
},
{
closed = 1;
nodes = (
(444,418,l),
(95,418,l),
(80,364,l),
(430,364,l)
);
}
);
width = 856;
}
);
unicode = 208;
},
{
color = 4;
glyphname = E;
kernLeft = KERN_I_2ND;
kernRight = KERN_E_1ST;
lastChange = "2025-06-17 00:02:41 +0000";
layers = (
{
anchors = (
{
name = bottom;
pos = (345,0);
},
{
name = top;
pos = (480,830);
}
);
layerId = m001;
shapes = (
{
closed = 1;
nodes = (
(597,0,l),
(675,211,l),
(628,211,l),
(573,87,o),
(508,43,o),
(355,43,cs),
(251,43,o),
(213,66,o),
(213,114,cs),
(213,130,o),
(216,148,o),
(222,170,cs),
(279,385,l),
(354,385,ls),
(415,385,o),
(434,358,o),
(434,299,cs),
(434,284,o),
(433,267,o),
(431,247,c),
(471,247,l),
(531,543,l),
(494,543,l),
(452,451,o),
(426,429,o),
(355,429,cs),
(292,429,l),
(370,726,l),
(500,726,ls),
(584,726,o),
(634,695,o),
(668,568,c),
(706,568,l),
(706,770,l),
(160,770,l),
(149,730,l),
(221,730,o),
(249,721,o),
(249,677,cs),
(249,658,o),
(244,633,o),
(235,599,cs),
(119,158,ls),
(94,63,o),
(73,40,o),
(-15,40,c),
(-26,0,l)
);
}
);
width = 740;
},
{
anchors = (
{
name = bottom;
pos = (366,0);
},
{
name = top;
pos = (494,830);
}
);
background = {
shapes = (
{
closed = 1;
nodes = (
(620,0,l),
(701,229,l),
(661,229,l),
(597,93,o),
(536,55,o),
(384,55,cs),
(255,55,o),
(220,83,o),
(243,169,cs),
(298,375,l),
(445,375,o),
(466,363,o),
(454,255,c),
(491,255,l),
(552,547,l),
(515,547,l),
(474,440,o),
(463,426,o),
(312,426,c),
(380,680,ls),
(389,712,o),
(394,717,o),
(428,717,cs),
(494,717,ls),
(615,717,o),
(652,684,o),
(686,564,c),
(729,564,l),
(727,770,l),
(166,770,l),
(156,730,l),
(235,726,o),
(244,709,o),
(219,616,cs),
(95,154,ls),
(70,60,o),
(50,43,o),
(-40,40,c),
(-51,0,l)
);
}
);
};
layerId = m002;
shapes = (
{
closed = 1;
nodes = (
(620,0,l),
(701,229,l),
(651,229,l),
(589,93,o),
(531,55,o),
(384,55,cs),
(279,55,o),
(237,74,o),
(237,127,cs),
(237,139,o),
(239,153,o),
(243,169,cs),
(298,380,l),
(372,380,ls),
(429,380,o),
(454,347,o),
(454,283,cs),
(454,273,o),
(453,263,o),
(452,252,c),
(499,252,l),
(560,549,l),
(513,549,l),
(479,461,o),
(464,433,o),
(377,432,cs),
(312,431,l),
(391,717,l),
(494,717,ls),
(609,717,o),
(644,684,o),
(676,564,c),
(729,564,l),
(727,770,l),
(166,770,l),
(156,730,l),
(210,727,o),
(231,718,o),
(231,683,cs),
(231,667,o),
(227,645,o),
(219,616,cs),
(95,154,ls),
(70,60,o),
(50,43,o),
(-40,40,c),
(-51,0,l)
);
}
);
width = 734;
}
);
unicode = 69;
},
{
color = 4;
glyphname = Eogonek;
kernLeft = KERN_I_2ND;
kernRight = KERN_E_1ST;
lastChange = "2025-08-05 07:33:26 +0000";
layers = (
{
anchors = (
{
name = bottom;
pos = (345,0);
},
{
name = top;
pos = (480,830);
}
);
background = {
anchors = (
{
name = bottom;
pos = (345,0);
},
{
name = top;
pos = (480,830);
}
);
shapes = (
{
closed = 1;
nodes = (
(597,0,l),
(675,211,l),
(628,211,l),
(573,87,o),
(508,43,o),
(355,43,cs),
(251,43,o),
(213,66,o),
(213,114,cs),
(213,130,o),
(216,148,o),
(222,170,cs),
(279,385,l),
(354,385,ls),
(415,385,o),
(434,358,o),
(434,299,cs),
(434,284,o),
(433,267,o),
(431,247,c),
(471,247,l),
(531,543,l),
(494,543,l),
(452,451,o),
(426,429,o),
(355,429,cs),
(292,429,l),
(370,726,l),
(500,726,ls),
(584,726,o),
(634,695,o),
(668,568,c),
(706,568,l),
(706,770,l),
(160,770,l),
(149,730,l),
(221,730,o),
(249,721,o),
(249,677,cs),
(249,658,o),
(244,633,o),
(235,599,cs),
(119,158,ls),
(94,63,o),
(73,40,o),
(-15,40,c),
(-26,0,l)
);
},
{
closed = 1;
nodes = (
(525,-155,o),
(491,-172,o),
(462,-172,cs),
(434,-172,o),
(419,-155,o),
(419,-133,cs),
(419,-68,o),
(534,-19,o),
(596,1,c),
(596,5,l),
(509,5,l),
(396,-31,o),
(340,-87,o),
(340,-150,cs),
(340,-202,o),
(377,-234,o),
(436,-234,cs),
(493,-234,o),
(546,-205,o),
(584,-152,c),
(555,-121,l)
);
}
);
};
layerId = m001;
shapes = (
{
closed = 1;
nodes = (
(597,0,l),
(675,211,l),
(628,211,l),
(573,87,o),
(508,43,o),
(355,43,cs),
(251,43,o),
(213,66,o),
(213,114,cs),
(213,130,o),
(216,148,o),
(222,170,cs),
(279,385,l),
(354,385,ls),
(415,385,o),
(434,358,o),
(434,299,cs),
(434,284,o),
(433,267,o),
(431,247,c),
(471,247,l),
(531,543,l),
(494,543,l),
(452,451,o),
(426,429,o),
(355,429,cs),
(292,429,l),
(370,726,l),
(500,726,ls),
(584,726,o),
(634,695,o),
(668,568,c),
(706,568,l),
(706,770,l),
(160,770,l),
(149,730,l),
(221,730,o),
(249,721,o),
(249,677,cs),
(249,658,o),
(244,633,o),
(235,599,cs),
(119,158,ls),
(94,63,o),
(73,40,o),
(-15,40,c),
(-26,0,l)
);
},
{
closed = 1;
nodes = (
(493,-234,o),
(546,-205,o),
(584,-152,c),
(555,-121,l),
(525,-155,o),
(491,-172,o),
(462,-172,cs),
(434,-172,o),
(419,-155,o),
(419,-133,cs),
(419,-68,o),
(535,-20,o),
(597,0,c),
(597,4,l),
(509,5,l),
(396,-31,o),
(340,-87,o),
(340,-150,cs),
(340,-202,o),
(377,-234,o),
(436,-234,cs)
);
}
);
width = 740;
},
{
anchors = (
{
name = bottom;
pos = (345,0);
},
{
name = top;
pos = (480,830);
}
);
associatedMasterId = m001;
background = {
shapes = (
{
closed = 1;
nodes = (
(597,0,l),
(675,211,l),
(628,211,l),
(573,87,o),
(508,43,o),
(355,43,cs),
(251,43,o),
(213,66,o),
(213,114,cs),
(213,130,o),
(216,148,o),
(222,170,cs),
(279,385,l),
(354,385,ls),
(415,385,o),
(434,358,o),
(434,299,cs),
(434,284,o),
(433,267,o),
(431,247,c),
(471,247,l),
(531,543,l),
(494,543,l),
(452,451,o),
(426,429,o),
(355,429,cs),
(292,429,l),
(370,726,l),
(500,726,ls),
(584,726,o),
(634,695,o),
(668,568,c),
(706,568,l),
(706,770,l),
(160,770,l),
(149,730,l),
(221,730,o),
(249,721,o),
(249,677,cs),
(249,658,o),
(244,633,o),
(235,599,cs),
(119,158,ls),
(94,63,o),
(73,40,o),
(-15,40,c),
(-26,0,l)
);
},
{
closed = 1;
nodes = (
(520,-155,o),
(485,-174,o),
(460,-174,cs),
(432,-174,o),
(409,-153,o),
(409,-126,cs),
(409,-84,o),
(460,-29,o),
(532,6,c),
(532,10,l),
(479,10,l),
(385,-27,o),
(330,-86,o),
(330,-149,cs),
(330,-202,o),
(366,-234,o),
(427,-234,cs),
(487,-234,o),
(543,-205,o),
(584,-152,c),
(555,-121,l)
);
}
);
};
layerId = "6624F450-88DA-48EE-9CF3-E14596C51D85";
name = "23 Oct 24 at 7:59PM";
shapes = (
{
closed = 1;
nodes = (
(597,0,l),
(675,211,l),
(628,211,l),
(573,87,o),
(508,43,o),
(355,43,cs),
(251,43,o),
(213,66,o),
(213,114,cs),
(213,130,o),
(216,148,o),
(222,170,cs),
(279,385,l),
(354,385,ls),
(415,385,o),
(434,358,o),
(434,299,cs),
(434,284,o),
(433,267,o),
(431,247,c),
(471,247,l),
(531,543,l),
(494,543,l),
(452,451,o),
(426,429,o),
(355,429,cs),
(292,429,l),
(370,726,l),
(500,726,ls),
(584,726,o),
(634,695,o),
(668,568,c),
(706,568,l),
(706,770,l),
(160,770,l),
(149,730,l),
(221,730,o),
(249,721,o),
(249,677,cs),
(249,658,o),
(244,633,o),
(235,599,cs),
(119,158,ls),
(94,63,o),
(73,40,o),
(-15,40,c),
(-26,0,l)
);
},
{
closed = 1;
nodes = (
(520,-155,o),
(485,-174,o),
(460,-174,cs),
(432,-174,o),
(409,-153,o),
(409,-126,cs),
(409,-84,o),
(460,-29,o),
(532,6,c),
(532,10,l),
(479,10,l),
(385,-27,o),
(330,-86,o),
(330,-149,cs),
(330,-202,o),
(366,-234,o),
(427,-234,cs),
(487,-234,o),
(543,-205,o),
(584,-152,c),
(555,-121,l)
);
}
);
width = 740;
},
{
anchors = (
{
name = bottom;
pos = (345,0);
},
{
name = top;
pos = (480,830);
}
);
background = {
anchors = (
{
name = bottom;
pos = (345,0);
},
{
name = top;
pos = (480,830);
}
);
shapes = (
{
closed = 1;
nodes = (
(619,0,l),
(697,211,l),
(650,211,l),
(595,87,o),
(530,43,o),
(377,43,cs),
(273,43,o),
(235,66,o),
(235,114,cs),
(235,130,o),
(238,148,o),
(244,170,cs),
(301,385,l),
(376,385,ls),
(437,385,o),
(456,358,o),
(456,299,cs),
(456,284,o),
(455,267,o),
(453,247,c),
(493,247,l),
(553,543,l),
(516,543,l),
(474,451,o),
(448,429,o),
(377,429,cs),
(314,429,l),
(392,726,l),
(522,726,ls),
(606,726,o),
(656,695,o),
(690,568,c),
(728,568,l),
(728,770,l),
(182,770,l),
(171,730,l),
(243,730,o),
(271,721,o),
(271,677,cs),
(271,658,o),
(266,633,o),
(257,599,cs),
(141,158,ls),
(116,63,o),
(95,40,o),
(7,40,c),
(-4,0,l)
);
},
{
closed = 1;
nodes = (
(547,-155,o),
(513,-172,o),
(484,-172,cs),
(456,-172,o),
(441,-155,o),
(441,-133,cs),
(441,-68,o),
(556,-19,o),
(618,1,c),
(618,5,l),
(531,5,l),
(418,-31,o),
(362,-87,o),
(362,-150,cs),
(362,-202,o),
(399,-234,o),
(458,-234,cs),
(515,-234,o),
(568,-205,o),
(606,-152,c),
(577,-121,l)
);
}
);
};
layerId = m002;
shapes = (
{
closed = 1;
nodes = (
(620,0,l),
(701,229,l),
(651,229,l),
(589,93,o),
(531,55,o),
(384,55,cs),
(279,55,o),
(237,74,o),
(237,127,cs),
(237,139,o),
(239,153,o),
(243,169,cs),
(298,380,l),
(372,380,ls),
(428,380,o),
(454,347,o),
(454,285,cs),
(454,273,o),
(453,263,o),
(452,252,c),
(499,252,l),
(560,549,l),
(513,549,l),
(479,461,o),
(465,433,o),
(377,432,cs),
(312,431,l),
(391,717,l),
(494,717,ls),
(609,717,o),
(644,684,o),
(676,564,c),
(729,564,l),
(727,770,l),
(166,770,l),
(156,730,l),
(210,727,o),
(231,718,o),
(231,683,cs),
(231,667,o),
(227,645,o),
(219,616,cs),
(95,154,ls),
(70,60,o),
(50,43,o),
(-40,40,c),
(-51,0,l)
);
},
{
closed = 1;
nodes = (
(513,-239,o),
(570,-208,o),
(614,-150,c),
(578,-111,l),
(543,-145,o),
(508,-164,o),
(483,-164,cs),
(460,-164,o),
(442,-147,o),
(442,-127,cs),
(442,-89,o),
(516,-33,o),
(620,0,c),
(620,4,l),
(509,4,l),
(409,-32,o),
(353,-88,o),
(353,-152,cs),
(353,-205,o),
(389,-239,o),
(452,-239,cs)
);
}
);
width = 734;
},
{
anchors = (
{
name = bottom;
pos = (345,0);
},
{
name = top;
pos = (480,830);
}
);
associatedMasterId = m002;
background = {
shapes = (
{
closed = 1;
nodes = (
(597,0,l),
(675,211,l),
(628,211,l),
(573,87,o),
(508,43,o),
(355,43,cs),
(251,43,o),
(213,66,o),
(213,114,cs),
(213,130,o),
(216,148,o),
(222,170,cs),
(279,385,l),
(354,385,ls),
(415,385,o),
(434,358,o),
(434,299,cs),
(434,284,o),
(433,267,o),
(431,247,c),
(471,247,l),
(531,543,l),
(494,543,l),
(452,451,o),
(426,429,o),
(355,429,cs),
(292,429,l),
(370,726,l),
(500,726,ls),
(584,726,o),
(634,695,o),
(668,568,c),
(706,568,l),
(706,770,l),
(160,770,l),
(149,730,l),
(221,730,o),
(249,721,o),
(249,677,cs),
(249,658,o),
(244,633,o),
(235,599,cs),
(119,158,ls),
(94,63,o),
(73,40,o),
(-15,40,c),
(-26,0,l)
);
},
{
closed = 1;
nodes = (
(520,-155,o),
(485,-174,o),
(460,-174,cs),
(432,-174,o),
(409,-153,o),
(409,-126,cs),
(409,-84,o),
(460,-29,o),
(532,6,c),
(532,10,l),
(479,10,l),
(385,-27,o),
(330,-86,o),
(330,-149,cs),
(330,-202,o),
(366,-234,o),
(427,-234,cs),
(487,-234,o),
(543,-205,o),
(584,-152,c),
(555,-121,l)
);
}
);
};
layerId = "59D6CE85-979A-4F0D-BF12-6C03FB8406CD";
name = "23 Oct 24 at 7:59PM";
shapes = (
{
closed = 1;
nodes = (
(597,0,l),
(675,211,l),
(628,211,l),
(573,87,o),
(508,43,o),
(355,43,cs),
(251,43,o),
(213,66,o),
(213,114,cs),
(213,130,o),
(216,148,o),
(222,170,cs),
(279,385,l),
(354,385,ls),
(415,385,o),
(434,358,o),
(434,299,cs),
(434,284,o),
(433,267,o),
(431,247,c),
(471,247,l),
(531,543,l),
(494,543,l),
(452,451,o),
(426,429,o),
(355,429,cs),
(292,429,l),
(370,726,l),
(500,726,ls),
(584,726,o),
(634,695,o),
(668,568,c),
(706,568,l),
(706,770,l),
(160,770,l),
(149,730,l),
(221,730,o),
(249,721,o),
(249,677,cs),
(249,658,o),
(244,633,o),
(235,599,cs),
(119,158,ls),
(94,63,o),
(73,40,o),
(-15,40,c),
(-26,0,l)
);
},
{
closed = 1;
nodes = (
(520,-155,o),
(485,-174,o),
(460,-174,cs),
(432,-174,o),
(409,-153,o),
(409,-126,cs),
(409,-84,o),
(460,-29,o),
(532,6,c),
(532,10,l),
(479,10,l),
(385,-27,o),
(330,-86,o),
(330,-149,cs),
(330,-202,o),
(366,-234,o),
(427,-234,cs),
(487,-234,o),
(543,-205,o),
(584,-152,c),
(555,-121,l)
);
}
);
width = 740;
}
);
unicode = 280;
},
{
color = 4;
glyphname = Eopen;
lastChange = "2025-08-07 17:28:57 +0000";
layers = (
{
anchors = (
{
name = bottom;
pos = (251,0);
},
{
name = ogonek;
pos = (280,0);
},
{
name = top;
pos = (486,824);
}
);
background = {
anchors = (
{
name = bottom;
pos = (251,0);
},
{
name = ogonek;
pos = (280,0);
},
{
name = top;
pos = (486,824);
}
);
shapes = (
{
closed = 1;
nodes = (
(662,710,o),
(552,780,o),
(412,780,cs),
(310,780,o),
(156,703,o),
(156,556,cs),
(156,473,o),
(224,406,o),
(307,398,c),
(292,427,l),
(109,400,o),
(36,259,o),
(36,169,cs),
(36,38,o),
(148,-10,o),
(270,-10,cs),
(396,-10,o),
(550,51,o),
(550,136,cs),
(550,171,o),
(532,183,o),
(504,183,cs),
(463,183,o),
(457,150,o),
(442,125,cs),
(410,66,o),
(362,44,o),
(291,44,cs),
(221,44,o),
(162,92,o),
(162,170,cs),
(162,263,o),
(259,376,o),
(347,376,cs),
(403,376,o),
(416,362,o),
(449,362,cs),
(481,362,o),
(509,371,o),
(509,406,cs),
(509,428,o),
(488,441,o),
(471,441,cs),
(427,441,o),
(395,419,o),
(362,419,cs),
(300,419,o),
(273,496,o),
(273,546,cs),
(273,669,o),
(346,728,o),
(423,728,cs),
(493,728,o),
(524,703,o),
(537,664,cs),
(556,605,o),
(580,588,o),
(614,588,cs),
(642,588,o),
(662,605,o),
(662,640,cs)
);
}
);
};
layerId = m001;
shapes = (
{
closed = 1;
nodes = (
(662,710,o),
(552,780,o),
(412,780,cs),
(310,780,o),
(156,703,o),
(156,556,cs),
(156,473,o),
(224,406,o),
(307,398,c),
(292,427,l),
(109,400,o),
(36,259,o),
(36,169,cs),
(36,38,o),
(148,-10,o),
(270,-10,cs),
(396,-10,o),
(550,51,o),
(550,136,cs),
(550,171,o),
(532,183,o),
(504,183,cs),
(463,183,o),
(457,150,o),
(442,125,cs),
(410,66,o),
(362,44,o),
(291,44,cs),
(221,44,o),
(162,92,o),
(162,170,cs),
(162,263,o),
(259,376,o),
(347,376,cs),
(403,376,o),
(416,362,o),
(449,362,cs),
(481,362,o),
(509,371,o),
(509,406,cs),
(509,428,o),
(488,441,o),
(471,441,cs),
(427,441,o),
(395,419,o),
(362,419,cs),
(300,419,o),
(273,496,o),
(273,546,cs),
(273,669,o),
(346,728,o),
(423,728,cs),
(493,728,o),
(524,703,o),
(537,664,cs),
(556,605,o),
(580,588,o),
(614,588,cs),
(642,588,o),
(662,605,o),
(662,640,cs)
);
}
);
width = 639;
},
{
anchors = (
{
name = bottom;
pos = (231,0);
},
{
name = ogonek;
pos = (260,0);
},
{
name = top;
pos = (466,824);
}
);
background = {
anchors = (
{
name = bottom;
pos = (231,0);
},
{
name = ogonek;
pos = (260,0);
},
{
name = top;
pos = (466,824);
}
);
shapes = (
{
closed = 1;
nodes = (
(642,710,o),
(532,780,o),
(392,780,cs),
(290,780,o),
(136,703,o),
(136,556,cs),
(136,473,o),
(204,406,o),
(287,398,c),
(272,427,l),
(89,400,o),
(16,259,o),
(16,169,cs),
(16,38,o),
(128,-10,o),
(250,-10,cs),
(376,-10,o),
(530,51,o),
(530,136,cs),
(530,171,o),
(512,183,o),
(484,183,cs),
(443,183,o),
(437,150,o),
(422,125,cs),
(390,66,o),
(342,44,o),
(271,44,cs),
(201,44,o),
(142,92,o),
(142,170,cs),
(142,263,o),
(239,376,o),
(327,376,cs),
(383,376,o),
(396,362,o),
(429,362,cs),
(461,362,o),
(489,371,o),
(489,406,cs),
(489,428,o),
(468,441,o),
(451,441,cs),
(407,441,o),
(375,419,o),
(342,419,cs),
(280,419,o),
(253,496,o),
(253,546,cs),
(253,669,o),
(326,728,o),
(403,728,cs),
(473,728,o),
(504,703,o),
(517,664,cs),
(536,605,o),
(560,588,o),
(594,588,cs),
(622,588,o),
(642,605,o),
(642,640,cs)
);
}
);
};
layerId = m002;
shapes = (
{
closed = 1;
nodes = (
(652,711,o),
(536,780,o),
(404,780,cs),
(252,780,o),
(124,680,o),
(124,560,cs),
(124,473,o),
(194,407,o),
(287,398,c),
(272,427,l),
(82,403,o),
(4,259,o),
(4,164,cs),
(4,41,o),
(122,-10,o),
(247,-10,cs),
(381,-10,o),
(540,47,o),
(540,142,cs),
(540,176,o),
(520,193,o),
(489,193,cs),
(442,193,o),
(434,154,o),
(417,124,cs),
(390,77,o),
(340,54,o),
(284,54,cs),
(207,54,o),
(164,98,o),
(164,168,cs),
(164,260,o),
(242,371,o),
(338,371,cs),
(372,371,o),
(399,357,o),
(431,357,cs),
(462,357,o),
(492,369,o),
(492,404,cs),
(492,431,o),
(472,446,o),
(446,446,cs),
(414,446,o),
(370,424,o),
(344,424,cs),
(301,424,o),
(272,490,o),
(272,556,cs),
(272,662,o),
(341,718,o),
(416,718,cs),
(463,718,o),
(501,697,o),
(512,664,cs),
(534,597,o),
(563,578,o),
(596,578,cs),
(630,578,o),
(652,599,o),
(652,633,cs)
);
}
);
width = 599;
}
);
unicode = 400;
},
{
color = 4;
glyphname = Estroke;
lastChange = "2025-08-05 14:11:56 +0000";
layers = (
{
layerId = m001;
shapes = (
{
ref = E;
},
{
closed = 1;
nodes = (
(112,-80,l),
(182,-80,l),
(708,820,l),
(638,820,l)
);
}
);
width = 740;
},
{
layerId = m002;
shapes = (
{
ref = E;
},
{
closed = 1;
nodes = (
(112,-80,l),
(182,-80,l),
(738,820,l),
(668,820,l)
);
}
);
width = 740;
}
);
unicode = 582;
},
{
color = 4;
glyphname = Eturned;
lastChange = "2025-08-07 23:57:31 +0000";
layers = (
{
background = {
shapes = (
{
closed = 1;
nodes = (
(496,425,l),
(352,425,o),
(316,459,o),
(338,544,c),
(303,544,l),
(230,255,l),
(265,255,l),
(286,342,o),
(335,382,o),
(486,383,c),
(425,157,ls),
(401,68,o),
(351,44,o),
(229,44,cs),
(89,44,o),
(78,91,o),
(85,209,c),
(51,209,l),
(-9,0,l),
(597,0,l),
(607,38,l),
(516,41,o),
(502,56,o),
(528,153,cs),
(652,616,ls),
(678,713,o),
(698,728,o),
(783,732,c),
(793,770,l),
(204,770,l),
(148,568,l),
(183,568,l),
(227,694,o),
(284,727,o),
(422,727,cs),
(561,727,ls),
(572,727,o),
(576,720,o),
(573,709,cs)
);
}
);
};
layerId = m001;
shapes = (
{
closed = 1;
nodes = (
(496,425,l),
(352,425,o),
(316,459,o),
(338,544,c),
(303,544,l),
(230,255,l),
(265,255,l),
(286,342,o),
(335,382,o),
(486,383,c),
(425,157,ls),
(401,68,o),
(351,44,o),
(229,44,cs),
(89,44,o),
(78,91,o),
(85,209,c),
(51,209,l),
(-9,0,l),
(597,0,l),
(607,38,l),
(516,41,o),
(502,56,o),
(528,153,cs),
(652,616,ls),
(678,713,o),
(698,728,o),
(783,732,c),
(793,770,l),
(204,770,l),
(148,568,l),
(183,568,l),
(227,694,o),
(284,727,o),
(422,727,cs),
(561,727,ls),
(572,727,o),
(576,720,o),
(573,709,cs)
);
}
);
width = 719;
},
{
associatedMasterId = m001;
layerId = "A7B82D62-27B4-4A72-BCB8-59128EA5D08E";
name = "28 Oct 24 at 11:58AM";
shapes = (
{
closed = 1;
nodes = (
(466,423,l),
(322,423,o),
(277,457,o),
(277,538,c),
(242,538,l),
(242,265,l),
(277,265,l),
(277,345,o),
(316,382,o),
(466,383,c),
(466,157,ls),
(466,70,o),
(426,43,o),
(300,43,cs),
(159,43,o),
(109,79,o),
(83,197,c),
(45,197,l),
(60,0,l),
(681,0,l),
(681,38,l),
(587,41,o),
(571,58,o),
(571,152,cs),
(571,618,ls),
(571,711,o),
(585,728,o),
(671,732,c),
(671,770,l),
(93,770,l),
(84,594,l),
(119,594,l),
(135,700,o),
(186,727,o),
(322,727,cs),
(449,727,ls),
(460,727,o),
(466,720,o),
(466,710,cs)
);
}
);
width = 600;
},
{
background = {
shapes = (
{
closed = 1;
nodes = (
(629,40,l),
(541,43,o),
(530,60,o),
(555,154,cs),
(679,616,ls),
(686,645,o),
(694,667,o),
(703,683,cs),
(721,718,o),
(747,727,o),
(803,730,c),
(814,770,l),
(253,770,l),
(141,564,l),
(194,564,l),
(290,684,o),
(343,717,o),
(458,717,cs),
(561,717,l),
(487,431,l),
(422,432,ls),
(336,433,o),
(336,461,o),
(349,549,c),
(302,549,l),
(204,252,l),
(251,252,l),
(256,263,o),
(260,273,o),
(265,283,cs),
(300,347,o),
(342,380,o),
(399,380,cs),
(473,380,l),
(415,169,ls),
(411,153,o),
(405,139,o),
(399,127,cs),
(370,74,o),
(318,55,o),
(213,55,cs),
(66,55,o),
(29,93,o),
(39,229,c),
(-11,229,l),
(-52,0,l),
(619,0,l)
);
},
{
closed = 1;
nodes = (
(484,430,l),
(339,430,o),
(303,463,o),
(325,544,c),
(290,544,l),
(217,255,l),
(252,255,l),
(273,339,o),
(322,377,o),
(472,378,c),
(412,157,ls),
(390,75,o),
(338,54,o),
(216,54,cs),
(76,54,o),
(65,98,o),
(72,209,c),
(38,209,l),
(-22,0,l),
(626,0,l),
(636,38,l),
(545,41,o),
(531,56,o),
(557,153,cs),
(681,616,ls),
(707,713,o),
(727,728,o),
(812,732,c),
(822,770,l),
(191,770,l),
(135,568,l),
(170,568,l),
(214,686,o),
(271,717,o),
(409,717,cs),
(548,717,ls),
(559,717,o),
(563,710,o),
(560,699,cs)
);
}
);
};
layerId = m002;
shapes = (
{
closed = 1;
nodes = (
(484,430,l),
(350,430,o),
(317,464,o),
(337,549,c),
(290,549,l),
(217,252,l),
(264,252,l),
(284,338,o),
(330,377,o),
(472,378,c),
(412,157,ls),
(390,75,o),
(338,54,o),
(216,54,cs),
(82,54,o),
(71,104,o),
(78,229,c),
(44,229,l),
(-22,0,l),
(626,0,l),
(636,38,l),
(545,41,o),
(531,56,o),
(557,153,cs),
(681,616,ls),
(707,713,o),
(727,728,o),
(812,732,c),
(822,770,l),
(191,770,l),
(135,564,l),
(170,564,l),
(214,685,o),
(271,717,o),
(409,717,cs),
(548,717,ls),
(559,717,o),
(563,710,o),
(560,699,cs)
);
}
);
width = 718;
},
{
associatedMasterId = m002;
layerId = "9DAF7D49-2A0C-4FE5-9F62-08C36B0329F4";
name = "28 Oct 24 at 11:58AM";
shapes = (
{
closed = 1;
nodes = (
(466,423,l),
(322,423,o),
(277,457,o),
(277,538,c),
(242,538,l),
(242,265,l),
(277,265,l),
(277,345,o),
(316,382,o),
(466,383,c),
(466,157,ls),
(466,70,o),
(426,43,o),
(300,43,cs),
(159,43,o),
(109,79,o),
(83,197,c),
(45,197,l),
(60,0,l),
(681,0,l),
(681,38,l),
(587,41,o),
(571,58,o),
(571,152,cs),
(571,618,ls),
(571,711,o),
(585,728,o),
(671,732,c),
(671,770,l),
(93,770,l),
(84,594,l),
(119,594,l),
(135,700,o),
(186,727,o),
(322,727,cs),
(449,727,ls),
(460,727,o),
(466,720,o),
(466,710,cs)
);
}
);
width = 600;
}
);
unicode = 398;
},
{
color = 4;
glyphname = Schwa;
lastChange = "2025-08-12 17:12:47 +0000";
layers = (
{
background = {
shapes = (
{
closed = 1;
nodes = (
(240,662,o),
(321,717,o),
(391,717,cs),
(466,717,o),
(507,656,o),
(507,545,cs),
(507,519,o),
(506,493,o),
(501,466,c),
(237,409,o),
(16,249,o),
(16,115,cs),
(16,42,o),
(81,-10,o),
(173,-10,cs),
(389,-10,o),
(628,282,o),
(628,547,cs),
(628,695,o),
(555,781,o),
(427,781,cs),
(312,781,o),
(210,719,o),
(130,600,c),
(176,570,l)
);
},
{
closed = 1;
nodes = (
(165,48,o),
(141,68,o),
(141,108,cs),
(141,227,o),
(288,349,o),
(487,401,c),
(433,220,o),
(309,48,o),
(199,48,cs)
);
}
);
};
layerId = m001;
shapes = (
{
closed = 1;
nodes = (
(240,662,o),
(321,717,o),
(391,717,cs),
(466,717,o),
(507,656,o),
(507,545,cs),
(507,519,o),
(506,493,o),
(501,466,c),
(237,409,o),
(16,249,o),
(16,115,cs),
(16,42,o),
(81,-10,o),
(173,-10,cs),
(389,-10,o),
(628,282,o),
(628,547,cs),
(628,695,o),
(555,781,o),
(427,781,cs),
(312,781,o),
(210,719,o),
(130,600,c),
(176,570,l)
);
},
{
closed = 1;
nodes = (
(165,48,o),
(141,68,o),
(141,108,cs),
(141,227,o),
(288,349,o),
(487,401,c),
(433,220,o),
(309,48,o),
(199,48,cs)
);
}
);
width = 644;
},
{
background = {
shapes = (
{
closed = 1;
nodes = (
(232,662,o),
(313,717,o),
(383,717,cs),
(458,717,o),
(499,656,o),
(499,545,cs),
(499,519,o),
(498,493,o),
(493,466,c),
(229,409,o),
(8,249,o),
(8,115,cs),
(8,42,o),
(73,-10,o),
(165,-10,cs),
(381,-10,o),
(620,282,o),
(620,547,cs),
(620,695,o),
(547,781,o),
(419,781,cs),
(304,781,o),
(202,719,o),
(122,600,c),
(168,570,l)
);
},
{
closed = 1;
nodes = (
(157,48,o),
(133,68,o),
(133,108,cs),
(133,227,o),
(280,349,o),
(479,401,c),
(425,220,o),
(301,48,o),
(191,48,cs)
);
}
);
};
layerId = m002;
shapes = (
{
closed = 1;
nodes = (
(259,648,o),
(342,707,o),
(414,707,cs),
(475,707,o),
(508,650,o),
(508,545,cs),
(508,521,o),
(507,496,o),
(503,471,c),
(238,413,o),
(17,251,o),
(17,115,cs),
(17,42,o),
(91,-10,o),
(196,-10,cs),
(422,-10,o),
(669,282,o),
(669,547,cs),
(669,695,o),
(592,781,o),
(450,781,cs),
(329,781,o),
(222,712,o),
(138,580,c),
(194,550,l)
);
},
{
closed = 1;
nodes = (
(201,58,o),
(186,75,o),
(186,108,cs),
(186,225,o),
(314,345,o),
(488,396,c),
(438,223,o),
(324,58,o),
(222,58,cs)
);
}
);
width = 661;
}
);
unicode = 399;
},
{
color = 4;
glyphname = F;
kernLeft = KERN_I_2ND;
lastChange = "2025-08-08 15:43:28 +0000";
layers = (
{
anchors = (
{
name = top;
pos = (489,830);
}
);
layerId = m001;
shapes = (
{
closed = 1;
nodes = (
(324,0,l),
(335,43,l),
(245,43,o),
(213,66,o),
(213,114,cs),
(213,130,o),
(216,148,o),
(222,170,cs),
(279,385,l),
(359,385,ls),
(412,385,o),
(429,355,o),
(429,289,cs),
(429,271,o),
(428,251,o),
(426,227,c),
(466,227,l),
(536,543,l),
(499,543,l),
(457,451,o),
(431,429,o),
(360,429,cs),
(292,429,l),
(370,726,l),
(500,726,ls),
(584,726,o),
(634,695,o),
(668,568,c),
(706,568,l),
(706,770,l),
(160,770,l),
(149,730,l),
(221,730,o),
(249,721,o),
(249,677,cs),
(249,658,o),
(244,633,o),
(235,599,cs),
(119,158,ls),
(94,63,o),
(73,40,o),
(-15,40,c),
(-26,0,l)
);
}
);
width = 659;
},
{
anchors = (
{
name = top;
pos = (499,830);
}
);
background = {
shapes = (
{
closed = 1;
nodes = (
(343,0,l),
(354,43,l),
(264,43,o),
(232,66,o),
(232,114,cs),
(232,130,o),
(235,148,o),
(241,170,cs),
(298,385,l),
(378,385,ls),
(431,385,o),
(448,355,o),
(448,289,cs),
(448,271,o),
(447,251,o),
(445,227,c),
(485,227,l),
(555,543,l),
(518,543,l),
(476,451,o),
(450,429,o),
(379,429,cs),
(311,429,l),
(389,726,l),
(519,726,ls),
(603,726,o),
(653,695,o),
(687,568,c),
(725,568,l),
(725,770,l),
(179,770,l),
(168,730,l),
(240,730,o),
(268,721,o),
(268,677,cs),
(268,658,o),
(263,633,o),
(254,599,cs),
(138,158,ls),
(113,63,o),
(92,40,o),
(4,40,c),
(-7,0,l)
);
}
);
};
layerId = m002;
shapes = (
{
closed = 1;
nodes = (
(310,0,l),
(321,40,l),
(257,40,o),
(231,48,o),
(231,99,cs),
(231,123,o),
(237,154,o),
(241,169,cs),
(297,380,l),
(370,380,ls),
(435,380,o),
(450,341,o),
(450,278,cs),
(450,262,o),
(449,246,o),
(447,234,c),
(494,234,l),
(558,549,l),
(511,549,l),
(477,461,o),
(464,433,o),
(375,432,cs),
(311,431,l),
(389,717,l),
(492,717,ls),
(607,717,o),
(642,684,o),
(674,564,c),
(727,564,l),
(725,770,l),
(164,770,l),
(154,730,l),
(210,727,o),
(229,718,o),
(229,680,cs),
(229,667,o),
(227,645,o),
(219,616,cs),
(93,154,ls),
(67,60,o),
(48,43,o),
(-42,40,c),
(-53,0,l)
);
}
);
width = 662;
}
);
unicode = 70;
},
{
color = 4;
glyphname = Fhook;
lastChange = "2025-08-10 03:19:18 +0000";
layers = (
{
anchors = (
{
name = top;
pos = (489,830);
}
);
background = {
anchors = (
{
name = top;
pos = (489,830);
}
);
shapes = (
{
closed = 1;
nodes = (
(279,385,l),
(359,385,ls),
(412,385,o),
(429,355,o),
(429,289,cs),
(429,271,o),
(428,251,o),
(426,227,c),
(466,227,l),
(536,543,l),
(499,543,l),
(457,451,o),
(431,429,o),
(360,429,cs),
(292,429,l),
(370,726,l),
(500,726,ls),
(584,726,o),
(634,695,o),
(668,568,c),
(706,568,l),
(706,770,l),
(160,770,l),
(149,730,l),
(221,730,o),
(249,721,o),
(249,677,cs),
(249,658,o),
(244,633,o),
(235,599,cs),
(71,-28,ls),
(38,-154,o),
(-3,-207,o),
(-68,-207,cs),
(-104,-207,o),
(-126,-191,o),
(-126,-165,cs),
(-126,-130,o),
(-84,-131,o),
(-84,-87,cs),
(-84,-56,o),
(-106,-34,o),
(-137,-34,cs),
(-186,-34,o),
(-224,-82,o),
(-224,-143,cs),
(-224,-215,o),
(-170,-260,o),
(-84,-260,cs),
(39,-260,o),
(128,-196,o),
(162,-64,cs)
);
}
);
};
layerId = m001;
shapes = (
{
closed = 1;
nodes = (
(39,-260,o),
(128,-196,o),
(162,-64,cs),
(279,385,l),
(359,385,ls),
(412,385,o),
(429,355,o),
(429,289,cs),
(429,271,o),
(428,251,o),
(426,227,c),
(466,227,l),
(536,543,l),
(499,543,l),
(457,451,o),
(431,429,o),
(360,429,cs),
(292,429,l),
(370,726,l),
(500,726,ls),
(584,726,o),
(634,695,o),
(668,568,c),
(706,568,l),
(706,770,l),
(160,770,l),
(149,730,l),
(221,730,o),
(249,721,o),
(249,677,cs),
(249,658,o),
(244,633,o),
(235,599,cs),
(71,-28,ls),
(38,-154,o),
(-3,-207,o),
(-68,-207,cs),
(-104,-207,o),
(-126,-191,o),
(-126,-165,cs),
(-126,-130,o),
(-84,-131,o),
(-84,-87,cs),
(-84,-56,o),
(-106,-34,o),
(-137,-34,cs),
(-186,-34,o),
(-224,-82,o),
(-224,-143,cs),
(-224,-215,o),
(-170,-260,o),
(-84,-260,cs)
);
}
);
width = 659;
},
{
anchors = (
{
name = top;
pos = (489,830);
}
);
background = {
anchors = (
{
name = top;
pos = (489,830);
}
);
shapes = (
{
closed = 1;
nodes = (
(310,0,l),
(321,40,l),
(257,40,o),
(231,48,o),
(231,99,cs),
(231,123,o),
(237,154,o),
(241,169,cs),
(297,380,l),
(370,380,ls),
(435,380,o),
(450,341,o),
(450,278,cs),
(450,262,o),
(449,246,o),
(447,234,c),
(494,234,l),
(558,549,l),
(511,549,l),
(477,461,o),
(464,433,o),
(375,432,cs),
(311,431,l),
(389,717,l),
(492,717,ls),
(607,717,o),
(642,684,o),
(674,564,c),
(727,564,l),
(725,770,l),
(164,770,l),
(154,730,l),
(210,727,o),
(229,718,o),
(229,680,cs),
(229,667,o),
(227,645,o),
(219,616,cs),
(93,154,ls),
(67,60,o),
(48,43,o),
(-42,40,c),
(-53,0,l)
);
}
);
};
layerId = m002;
shapes = (
{
closed = 1;
nodes = (
(51,-260,o),
(140,-196,o),
(175,-64,cs),
(297,380,l),
(370,380,ls),
(435,380,o),
(450,341,o),
(450,278,cs),
(450,262,o),
(449,246,o),
(447,234,c),
(494,234,l),
(558,549,l),
(511,549,l),
(477,461,o),
(464,433,o),
(375,432,cs),
(311,431,l),
(389,717,l),
(492,717,ls),
(607,717,o),
(642,684,o),
(674,564,c),
(727,564,l),
(725,770,l),
(164,770,l),
(154,730,l),
(210,727,o),
(229,718,o),
(229,680,cs),
(229,667,o),
(227,645,o),
(219,616,cs),
(43,-28,ls),
(9,-155,o),
(-25,-207,o),
(-86,-207,cs),
(-122,-207,o),
(-146,-190,o),
(-146,-165,cs),
(-146,-130,o),
(-104,-131,o),
(-104,-87,cs),
(-104,-56,o),
(-128,-34,o),
(-162,-34,cs),
(-214,-34,o),
(-254,-82,o),
(-254,-143,cs),
(-254,-215,o),
(-184,-260,o),
(-73,-260,cs)
);
}
);
width = 662;
}
);
unicode = 401;
},
{
color = 4;
glyphname = G;
kernLeft = KERN_G;
kernRight = KERN_G;
lastChange = "2025-06-06 21:19:30 +0000";
layers = (
{
anchors = (
{
name = bottom;
pos = (381,0);
},
{
name = top;
pos = (544,830);
}
);
layerId = m001;
shapes = (
{
closed = 1;
nodes = (
(512,-10,o),
(582,39,o),
(643,49,c),
(644,88,o),
(656,127,o),
(666,166,cs),
(699,292,o),
(713,300,o),
(770,300,c),
(780,339,l),
(506,339,l),
(497,300,l),
(563,300,o),
(582,275,o),
(582,222,cs),
(582,106,o),
(499,44,o),
(387,44,cs),
(260,44,o),
(194,130,o),
(194,300,cs),
(194,540,o),
(339,728,o),
(526,728,cs),
(646,728,o),
(705,672,o),
(718,550,c),
(756,550,l),
(792,770,l),
(755,770,l),
(718,720,l),
(653,761,o),
(590,780,o),
(518,780,cs),
(283,780,o),
(73,554,o),
(73,301,cs),
(73,110,o),
(185,-10,o),
(365,-10,cs)
);
}
);
width = 809;
},
{
anchors = (
{
name = bottom;
pos = (401,0);
},
{
name = top;
pos = (564,830);
}
);
background = {
shapes = (
{
closed = 1;
nodes = (
(280,44,o),
(214,130,o),
(214,300,cs),
(214,540,o),
(359,728,o),
(546,728,cs),
(666,728,o),
(725,672,o),
(738,550,c),
(776,550,l),
(812,770,l),
(775,770,l),
(738,720,l),
(673,761,o),
(610,780,o),
(538,780,cs),
(303,780,o),
(93,554,o),
(93,301,cs),
(93,110,o),
(205,-10,o),
(385,-10,cs),
(532,-10,o),
(602,39,o),
(663,49,c),
(664,88,o),
(676,127,o),
(686,166,cs),
(719,292,o),
(733,300,o),
(790,300,c),
(800,339,l),
(526,339,l),
(517,300,l),
(583,300,o),
(602,275,o),
(602,222,cs),
(602,106,o),
(519,44,o),
(407,44,cs)
);
}
);
};
layerId = m002;
shapes = (
{
closed = 1;
nodes = (
(543,-10,o),
(572,32,o),
(664,48,c),
(664,88,o),
(681,150,o),
(701,217,cs),
(722,286,o),
(733,300,o),
(790,300,c),
(800,339,l),
(498,339,l),
(489,300,l),
(570,291,o),
(577,268,o),
(571,191,cs),
(565,104,o),
(512,62,o),
(392,62,cs),
(275,62,o),
(214,143,o),
(214,300,cs),
(214,534,o),
(349,718,o),
(524,718,cs),
(650,730,o),
(714,672,o),
(724,540,c),
(774,540,l),
(812,770,l),
(765,770,l),
(728,720,l),
(662,761,o),
(598,780,o),
(527,780,cs),
(274,780,o),
(49,554,o),
(49,301,cs),
(49,110,o),
(168,-10,o),
(359,-10,cs)
);
}
);
width = 804;
}
);
unicode = 71;
},
{
color = 4;
glyphname = Ghook;
lastChange = "2025-08-08 21:58:50 +0000";
layers = (
{
anchors = (
{
name = bottom;
pos = (381,0);
},
{
name = top;
pos = (544,830);
}
);
background = {
anchors = (
{
name = bottom;
pos = (381,0);
},
{
name = top;
pos = (544,830);
}
);
shapes = (
{
closed = 1;
nodes = (
(653,761,o),
(590,780,o),
(518,780,cs),
(283,780,o),
(73,554,o),
(73,301,cs),
(73,110,o),
(185,-10,o),
(365,-10,cs),
(512,-10,o),
(582,39,o),
(643,49,c),
(644,88,o),
(656,127,o),
(666,166,cs),
(699,292,o),
(713,300,o),
(770,300,c),
(780,339,l),
(506,339,l),
(497,300,l),
(563,300,o),
(582,275,o),
(582,222,cs),
(582,106,o),
(499,44,o),
(387,44,cs),
(260,44,o),
(194,130,o),
(194,300,cs),
(194,540,o),
(339,728,o),
(526,728,cs),
(646,728,o),
(705,672,o),
(718,550,c),
(756,550,l),
(782,711,ls),
(797,791,o),
(841,858,o),
(915,858,cs),
(959,858,o),
(983,835,o),
(1023,835,cs),
(1062,835,o),
(1083,856,o),
(1083,886,cs),
(1083,924,o),
(1050,950,o),
(984,950,cs),
(928,950,o),
(862,931,o),
(811,883,cs),
(774,849,o),
(735,792,o),
(718,720,c)
);
}
);
};
layerId = m001;
shapes = (
{
closed = 1;
nodes = (
(512,-10,o),
(582,39,o),
(643,49,c),
(644,88,o),
(656,127,o),
(666,166,cs),
(699,292,o),
(713,300,o),
(770,300,c),
(780,339,l),
(506,339,l),
(497,300,l),
(563,300,o),
(582,275,o),
(582,222,cs),
(582,106,o),
(499,44,o),
(387,44,cs),
(260,44,o),
(194,130,o),
(194,300,cs),
(194,540,o),
(339,728,o),
(526,728,cs),
(646,728,o),
(705,672,o),
(718,550,c),
(756,550,l),
(782,711,ls),
(797,791,o),
(841,858,o),
(915,858,cs),
(959,858,o),
(983,835,o),
(1023,835,cs),
(1062,835,o),
(1083,856,o),
(1083,886,cs),
(1083,924,o),
(1050,950,o),
(984,950,cs),
(928,950,o),
(862,931,o),
(811,883,cs),
(774,849,o),
(735,792,o),
(718,720,c),
(653,761,o),
(590,780,o),
(518,780,cs),
(283,780,o),
(73,554,o),
(73,301,cs),
(73,110,o),
(185,-10,o),
(365,-10,cs)
);
}
);
width = 809;
},
{
anchors = (
{
name = bottom;
pos = (381,0);
},
{
name = top;
pos = (544,830);
}
);
background = {
anchors = (
{
name = bottom;
pos = (381,0);
},
{
name = top;
pos = (544,830);
}
);
shapes = (
{
closed = 1;
nodes = (
(653,761,o),
(590,780,o),
(518,780,cs),
(283,780,o),
(73,554,o),
(73,301,cs),
(73,110,o),
(185,-10,o),
(365,-10,cs),
(512,-10,o),
(582,39,o),
(643,49,c),
(644,88,o),
(656,127,o),
(666,166,cs),
(699,292,o),
(713,300,o),
(770,300,c),
(780,339,l),
(506,339,l),
(497,300,l),
(563,300,o),
(582,275,o),
(582,222,cs),
(582,106,o),
(499,44,o),
(387,44,cs),
(260,44,o),
(194,130,o),
(194,300,cs),
(194,540,o),
(339,728,o),
(526,728,cs),
(646,728,o),
(705,672,o),
(718,550,c),
(756,550,l),
(782,711,ls),
(797,791,o),
(841,858,o),
(915,858,cs),
(959,858,o),
(983,835,o),
(1023,835,cs),
(1062,835,o),
(1083,856,o),
(1083,886,cs),
(1083,924,o),
(1050,950,o),
(984,950,cs),
(928,950,o),
(862,931,o),
(811,883,cs),
(774,849,o),
(735,792,o),
(718,720,c)
);
},
{
closed = 1;
nodes = (
(539,-10,o),
(633,50,o),
(735,199,c),
(699,223,l),
(625,115,o),
(541,62,o),
(440,62,cs),
(320,62,o),
(259,141,o),
(259,299,cs),
(259,534,o),
(394,718,o),
(567,718,cs),
(664,718,o),
(712,660,o),
(719,509,c),
(769,509,l),
(799,698,ls),
(818,818,o),
(869,852,o),
(918,852,cs),
(958,852,o),
(1000,830,o),
(1031,830,cs),
(1062,830,o),
(1090,853,o),
(1090,886,cs),
(1090,930,o),
(1042,950,o),
(985,950,cs),
(910,950,o),
(847,914,o),
(806,870,cs),
(766,827,o),
(747,778,o),
(733,720,c),
(673,765,o),
(629,780,o),
(567,780,cs),
(322,780,o),
(94,554,o),
(94,300,cs),
(94,110,o),
(213,-10,o),
(404,-10,cs)
);
}
);
};
layerId = m002;
shapes = (
{
closed = 1;
nodes = (
(543,-10,o),
(572,32,o),
(664,48,c),
(664,88,o),
(681,150,o),
(701,217,cs),
(722,286,o),
(733,300,o),
(790,300,c),
(800,339,l),
(498,339,l),
(489,300,l),
(570,291,o),
(577,268,o),
(571,191,cs),
(565,104,o),
(512,62,o),
(392,62,cs),
(275,62,o),
(214,143,o),
(214,300,cs),
(214,534,o),
(349,718,o),
(524,718,cs),
(650,730,o),
(714,672,o),
(724,540,c),
(774,540,l),
(800,698,l),
(819,818,o),
(870,852,o),
(919,852,cs),
(959,852,o),
(1001,830,o),
(1032,830,cs),
(1063,830,o),
(1091,853,o),
(1091,886,cs),
(1091,930,o),
(1043,950,o),
(986,950,cs),
(911,950,o),
(848,914,o),
(807,870,cs),
(767,827,o),
(748,778,o),
(734,720,c),
(668,761,o),
(598,780,o),
(527,780,cs),
(274,780,o),
(49,554,o),
(49,301,cs),
(49,110,o),
(168,-10,o),
(359,-10,cs)
);
}
);
width = 804;
}
);
unicode = 403;
},
{
color = 4;
glyphname = Gstroke;
lastChange = "2025-08-05 14:12:21 +0000";
layers = (
{
layerId = m001;
shapes = (
{
ref = G;
},
{
closed = 1;
nodes = (
(746,196,l),
(443,196,l),
(427,142,l),
(730,142,l)
);
}
);
width = 809;
},
{
layerId = m002;
shapes = (
{
ref = G;
},
{
closed = 1;
nodes = (
(766,196,l),
(435,196,l),
(419,142,l),
(750,142,l)
);
}
);
width = 809;
}
);
unicode = 484;
},
{
color = 4;
glyphname = H;
kernLeft = KERN_I_2ND;
kernRight = KERN_I_1ST;
lastChange = "2025-05-29 13:09:59 +0000";
layers = (
{
anchors = (
{
name = bottom;
pos = (386,0);
},
{
name = top;
pos = (579,830);
}
);
layerId = m001;
shapes = (
{
closed = 1;
nodes = (
(856,702,o),
(879,730,o),
(967,730,c),
(978,770,l),
(653,770,l),
(642,730,l),
(714,730,o),
(741,723,o),
(741,682,cs),
(741,663,o),
(736,637,o),
(726,600,cs),
(678,418,l),
(290,418,l),
(329,566,ls),
(365,702,o),
(388,730,o),
(476,730,c),
(487,770,l),
(162,770,l),
(151,730,l),
(223,730,o),
(250,723,o),
(250,682,cs),
(250,663,o),
(245,637,o),
(235,600,cs),
(118,158,ls),
(92,60,o),
(62,40,o),
(-17,40,c),
(-28,0,l),
(291,0,l),
(303,40,l),
(239,40,o),
(212,53,o),
(212,98,cs),
(212,116,o),
(216,139,o),
(224,168,cs),
(276,367,l),
(664,367,l),
(609,158,ls),
(583,60,o),
(553,40,o),
(474,40,c),
(463,0,l),
(782,0,l),
(794,40,l),
(730,40,o),
(703,53,o),
(703,98,cs),
(703,116,o),
(707,139,o),
(715,168,cs),
(820,566,ls)
);
}
);
width = 911;
},
{
anchors = (
{
name = bottom;
pos = (391,0);
},
{
name = top;
pos = (584,830);
}
);
background = {
anchors = (
{
name = bottom;
pos = (391,0);
},
{
name = top;
pos = (584,830);
}
);
shapes = (
{
closed = 1;
nodes = (
(871,702,o),
(894,730,o),
(982,730,c),
(993,770,l),
(668,770,l),
(657,730,l),
(729,730,o),
(756,723,o),
(756,682,cs),
(756,663,o),
(751,637,o),
(741,600,cs),
(693,418,l),
(305,418,l),
(344,566,ls),
(380,702,o),
(403,730,o),
(491,730,c),
(502,770,l),
(177,770,l),
(166,730,l),
(238,730,o),
(265,723,o),
(265,682,cs),
(265,663,o),
(260,637,o),
(250,600,cs),
(133,158,ls),
(107,60,o),
(77,40,o),
(-2,40,c),
(-13,0,l),
(306,0,l),
(318,40,l),
(254,40,o),
(227,53,o),
(227,98,cs),
(227,116,o),
(231,139,o),
(239,168,cs),
(291,367,l),
(679,367,l),
(624,158,ls),
(598,60,o),
(568,40,o),
(489,40,c),
(478,0,l),
(797,0,l),
(809,40,l),
(745,40,o),
(718,53,o),
(718,98,cs),
(718,116,o),
(722,139,o),
(730,168,cs),
(835,566,ls)
);
}
);
};
layerId = m002;
shapes = (
{
closed = 1;
nodes = (
(892,702,o),
(915,730,o),
(1003,730,c),
(1014,770,l),
(647,770,l),
(636,730,l),
(708,730,o),
(735,723,o),
(735,682,cs),
(735,663,o),
(730,637,o),
(720,600,cs),
(674,424,l),
(327,424,l),
(365,566,ls),
(401,702,o),
(424,730,o),
(512,730,c),
(523,770,l),
(156,770,l),
(145,730,l),
(217,730,o),
(244,723,o),
(244,682,cs),
(244,663,o),
(239,637,o),
(229,600,cs),
(112,158,ls),
(86,60,o),
(56,40,o),
(-23,40,c),
(-34,0,l),
(327,0,l),
(339,40,l),
(275,40,o),
(248,53,o),
(248,98,cs),
(248,116,o),
(252,139,o),
(260,168,cs),
(311,362,l),
(657,362,l),
(603,158,ls),
(577,60,o),
(547,40,o),
(468,40,c),
(457,0,l),
(818,0,l),
(830,40,l),
(766,40,o),
(739,53,o),
(739,98,cs),
(739,116,o),
(743,139,o),
(751,168,cs),
(856,566,ls)
);
}
);
width = 911;
}
);
unicode = 72;
},
{
color = 4;
glyphname = Hbar;
kernLeft = KERN_I_2ND;
kernRight = KERN_I_1ST;
lastChange = "2025-08-05 14:35:23 +0000";
layers = (
{
layerId = m001;
shapes = (
{
closed = 1;
nodes = (
(942,591,l),
(128,591,l),
(115,541,l),
(929,541,l)
);
},
{
pos = (2,0);
ref = H;
}
);
width = 913;
},
{
layerId = m002;
shapes = (
{
closed = 1;
nodes = (
(967,591,l),
(136,591,l),
(123,541,l),
(954,541,l)
);
},
{
pos = (2,0);
ref = H;
}
);
width = 913;
}
);
unicode = 294;
},
{
color = 4;
glyphname = Hcedilla;
lastChange = "2025-08-04 21:22:01 +0000";
layers = (
{
layerId = m001;
shapes = (
{
ref = H;
},
{
closed = 1;
nodes = (
(113,12,l),
(28,-112,l),
(29,-115,l),
(35,-114,o),
(51,-113,o),
(64,-113,cs),
(107,-113,o),
(131,-127,o),
(131,-154,cs),
(131,-190,o),
(98,-217,o),
(66,-217,cs),
(19,-217,o),
(39,-148,o),
(6,-148,cs),
(-17,-148,o),
(-35,-169,o),
(-35,-197,cs),
(-35,-233,o),
(5,-260,o),
(64,-260,cs),
(139,-260,o),
(216,-204,o),
(216,-135,cs),
(216,-94,o),
(179,-72,o),
(112,-72,c),
(166,12,l)
);
}
);
width = 911;
},
{
background = {
shapes = (
{
closed = 1;
nodes = (
(113,12,l),
(28,-112,l),
(29,-115,l),
(35,-114,o),
(51,-113,o),
(64,-113,cs),
(107,-113,o),
(131,-127,o),
(131,-154,cs),
(131,-190,o),
(98,-217,o),
(66,-217,cs),
(19,-217,o),
(39,-148,o),
(6,-148,cs),
(-17,-148,o),
(-35,-169,o),
(-35,-197,cs),
(-35,-233,o),
(5,-260,o),
(64,-260,cs),
(139,-260,o),
(216,-204,o),
(216,-135,cs),
(216,-94,o),
(179,-72,o),
(112,-72,c),
(166,12,l)
);
}
);
};
layerId = m002;
shapes = (
{
ref = H;
},
{
closed = 1;
nodes = (
(105,12,l),
(27,-118,l),
(29,-121,l),
(35,-120,o),
(61,-119,o),
(72,-119,cs),
(111,-119,o),
(132,-132,o),
(132,-157,cs),
(132,-187,o),
(105,-213,o),
(72,-213,cs),
(23,-213,o),
(32,-157,o),
(-10,-157,cs),
(-34,-157,o),
(-45,-183,o),
(-45,-203,cs),
(-45,-240,o),
(1,-260,o),
(59,-260,cs),
(152,-260,o),
(221,-203,o),
(221,-140,cs),
(221,-94,o),
(187,-67,o),
(125,-67,c),
(175,12,l)
);
}
);
width = 911;
}
);
unicode = 7720;
},
{
color = 4;
glyphname = Hhook;
lastChange = "2025-08-06 17:25:33 +0000";
layers = (
{
layerId = m001;
shapes = (
{
pos = (200,0);
ref = H;
},
{
closed = 1;
nodes = (
(253,454,o),
(293,488,o),
(293,529,cs),
(293,558,o),
(273,581,o),
(240,581,cs),
(207,581,o),
(203,558,o),
(175,558,cs),
(152,558,o),
(139,574,o),
(139,607,cs),
(139,702,o),
(247,730,o),
(323,730,cs),
(554,729,l),
(541,768,l),
(329,770,ls),
(189,771,o),
(79,710,o),
(79,582,cs),
(79,489,o),
(136,454,o),
(195,454,cs)
);
}
);
width = 1111;
},
{
background = {
shapes = (
{
closed = 1;
nodes = (
(247,730,o),
(323,730,cs),
(554,729,l),
(541,768,l),
(329,770,ls),
(189,771,o),
(79,710,o),
(79,582,cs),
(79,489,o),
(136,454,o),
(195,454,cs),
(253,454,o),
(293,488,o),
(293,529,cs),
(293,558,o),
(273,581,o),
(240,581,cs),
(207,581,o),
(203,558,o),
(175,558,cs),
(152,558,o),
(139,574,o),
(139,607,cs),
(139,702,o)
);
}
);
};
layerId = m002;
shapes = (
{
pos = (200,0);
ref = H;
},
{
closed = 1;
nodes = (
(253,444,o),
(293,480,o),
(293,524,cs),
(293,556,o),
(273,581,o),
(240,581,cs),
(207,581,o),
(203,558,o),
(175,558,cs),
(152,558,o),
(139,574,o),
(139,607,cs),
(139,702,o),
(247,730,o),
(323,730,cs),
(554,729,l),
(541,768,l),
(329,770,ls),
(189,771,o),
(79,708,o),
(79,577,cs),
(79,480,o),
(136,444,o),
(195,444,cs)
);
}
);
width = 1111;
}
);
unicode = 42922;
},
{
color = 4;
glyphname = Hturned;
lastChange = "2025-08-06 19:10:11 +0000";
layers = (
{
background = {
anchors = (
{
name = bottom;
pos = (300,0);
},
{
name = top;
pos = (493,830);
}
);
shapes = (
{
closed = 1;
nodes = (
(770,702,o),
(793,730,o),
(881,730,c),
(892,770,l),
(567,770,l),
(556,730,l),
(631,730,o),
(655,722,o),
(655,681,cs),
(655,663,o),
(650,638,o),
(640,600,cs),
(584,392,l),
(511,363,o),
(444,353,o),
(398,353,cs),
(350,353,o),
(314,364,o),
(300,378,cs),
(276,402,o),
(290,461,o),
(296,483,cs),
(319,568,ls),
(356,704,o),
(378,730,o),
(466,730,c),
(477,770,l),
(152,770,l),
(141,730,l),
(215,730,o),
(240,722,o),
(240,682,cs),
(240,663,o),
(234,632,o),
(225,600,cs),
(196,496,ls),
(183,450,o),
(175,399,o),
(190,362,cs),
(209,315,o),
(267,288,o),
(343,288,cs),
(420,288,o),
(508,316,o),
(571,342,c),
(523,158,ls),
(497,60,o),
(467,40,o),
(388,40,c),
(377,0,l),
(696,0,l),
(708,40,l),
(642,40,o),
(617,54,o),
(617,99,cs),
(617,115,o),
(620,134,o),
(629,168,cs),
(734,566,ls)
);
}
);
};
layerId = m001;
shapes = (
{
closed = 1;
nodes = (
(696,0,l),
(708,40,l),
(642,40,o),
(617,54,o),
(617,99,cs),
(617,115,o),
(620,134,o),
(629,168,cs),
(734,566,ls),
(770,702,o),
(793,730,o),
(881,730,c),
(892,770,l),
(567,770,l),
(556,730,l),
(631,730,o),
(655,722,o),
(655,681,cs),
(655,663,o),
(650,638,o),
(640,600,cs),
(584,392,l),
(511,363,o),
(444,353,o),
(398,353,cs),
(344,353,o),
(311,362,o),
(296,385,cs),
(283,405,o),
(283,436,o),
(296,483,cs),
(319,568,ls),
(356,704,o),
(378,730,o),
(466,730,c),
(477,770,l),
(152,770,l),
(141,730,l),
(215,730,o),
(240,722,o),
(240,682,cs),
(240,663,o),
(234,632,o),
(225,600,cs),
(196,496,ls),
(176,425,o),
(179,373,o),
(203,339,cs),
(227,304,o),
(275,288,o),
(343,288,cs),
(420,288,o),
(508,316,o),
(571,342,c),
(523,158,ls),
(497,60,o),
(467,40,o),
(388,40,c),
(377,0,l)
);
}
);
width = 825;
},
{
anchors = (
{
name = bottom;
pos = (326,0);
},
{
name = top;
pos = (519,830);
}
);
associatedMasterId = m001;
background = {
shapes = (
{
closed = 1;
nodes = (
(796,702,o),
(819,730,o),
(907,730,c),
(918,770,l),
(593,770,l),
(582,730,l),
(654,730,o),
(681,723,o),
(681,682,cs),
(681,663,o),
(676,637,o),
(666,600,cs),
(618,418,l),
(230,418,l),
(269,566,ls),
(305,702,o),
(328,730,o),
(416,730,c),
(427,770,l),
(102,770,l),
(91,730,l),
(163,730,o),
(190,723,o),
(190,682,cs),
(190,663,o),
(185,637,o),
(175,600,cs),
(58,158,l),
(164,168,l),
(216,367,l),
(604,367,l),
(549,158,ls),
(523,60,o),
(493,40,o),
(414,40,c),
(403,0,l),
(722,0,l),
(734,40,l),
(670,40,o),
(643,53,o),
(643,98,cs),
(643,116,o),
(647,139,o),
(655,168,cs),
(760,566,ls)
);
}
);
};
layerId = "AE0AFE0D-FAA8-4075-A639-76AC3DE6857A";
name = "28 Oct 24 at 6:38AM";
shapes = (
{
closed = 1;
nodes = (
(796,702,o),
(819,730,o),
(907,730,c),
(918,770,l),
(593,770,l),
(582,730,l),
(654,730,o),
(681,723,o),
(681,682,cs),
(681,663,o),
(676,637,o),
(666,600,cs),
(618,418,l),
(384,418,l),
(290,418,l),
(306,478,l),
(329,566,ls),
(365,702,o),
(388,730,o),
(476,730,c),
(487,770,l),
(162,770,l),
(151,730,l),
(223,730,o),
(250,723,o),
(250,682,cs),
(250,663,o),
(245,637,o),
(235,600,cs),
(210,508,l),
(173,367,l),
(381,367,l),
(604,367,l),
(549,158,ls),
(523,60,o),
(493,40,o),
(414,40,c),
(403,0,l),
(722,0,l),
(734,40,l),
(670,40,o),
(643,53,o),
(643,98,cs),
(643,116,o),
(647,139,o),
(655,168,cs),
(760,566,ls)
);
}
);
width = 851;
},
{
anchors = (
{
name = bottom;
pos = (310,0);
},
{
name = top;
pos = (503,830);
}
);
associatedMasterId = m001;
background = {
shapes = (
{
closed = 1;
nodes = (
(780,702,o),
(803,730,o),
(891,730,c),
(902,770,l),
(577,770,l),
(566,730,l),
(638,730,o),
(665,723,o),
(665,682,cs),
(665,663,o),
(660,637,o),
(650,600,cs),
(602,418,l),
(383,418,l),
(289,418,l),
(305,478,l),
(328,566,ls),
(364,702,o),
(387,730,o),
(475,730,c),
(486,770,l),
(161,770,l),
(150,730,l),
(222,730,o),
(249,723,o),
(249,682,cs),
(249,663,o),
(244,637,o),
(234,600,cs),
(209,508,l),
(172,367,l),
(380,367,l),
(588,367,l),
(533,158,ls),
(507,60,o),
(477,40,o),
(398,40,c),
(387,0,l),
(706,0,l),
(718,40,l),
(654,40,o),
(627,53,o),
(627,98,cs),
(627,116,o),
(631,139,o),
(639,168,cs),
(744,566,ls)
);
}
);
};
layerId = "529330C9-56F2-4B93-8BED-A5A6B7C8B8FF";
name = "28 Oct 24 at 1:04PM";
shapes = (
{
closed = 1;
nodes = (
(780,702,o),
(803,730,o),
(891,730,c),
(902,770,l),
(577,770,l),
(566,730,l),
(641,730,o),
(665,722,o),
(665,681,cs),
(665,663,o),
(660,637,o),
(650,600,cs),
(602,422,l),
(529,393,o),
(462,383,o),
(416,383,cs),
(368,383,o),
(332,394,o),
(318,408,cs),
(294,432,o),
(308,491,o),
(314,513,cs),
(329,568,ls),
(365,701,o),
(388,730,o),
(476,730,c),
(487,770,l),
(162,770,l),
(151,730,l),
(225,730,o),
(250,722,o),
(250,682,cs),
(250,663,o),
(244,632,o),
(235,600,cs),
(214,526,ls),
(201,480,o),
(193,429,o),
(208,392,cs),
(227,345,o),
(285,318,o),
(361,318,cs),
(438,318,o),
(526,346,o),
(589,372,c),
(533,158,ls),
(507,60,o),
(477,40,o),
(398,40,c),
(387,0,l),
(706,0,l),
(718,40,l),
(652,40,o),
(627,54,o),
(627,99,cs),
(627,115,o),
(630,134,o),
(639,168,cs),
(744,566,ls)
);
}
);
width = 835;
},
{
background = {
anchors = (
{
name = bottom;
pos = (316,0);
},
{
name = top;
pos = (509,830);
}
);
shapes = (
{
closed = 1;
nodes = (
(808,702,o),
(831,730,o),
(919,730,c),
(930,770,l),
(563,770,l),
(552,730,l),
(624,730,o),
(651,723,o),
(651,682,cs),
(651,663,o),
(646,637,o),
(636,600,cs),
(590,424,l),
(243,424,l),
(281,566,ls),
(317,702,o),
(340,730,o),
(428,730,c),
(439,770,l),
(72,770,l),
(61,730,l),
(133,730,o),
(160,723,o),
(160,682,cs),
(160,663,o),
(155,637,o),
(145,600,cs),
(28,158,ls),
(2,60,o),
(-28,40,o),
(-107,40,c),
(-118,0,l),
(243,0,l),
(255,40,l),
(191,40,o),
(164,53,o),
(164,98,cs),
(164,116,o),
(168,139,o),
(176,168,cs),
(227,362,l),
(573,362,l),
(519,158,ls),
(493,60,o),
(463,40,o),
(384,40,c),
(373,0,l),
(734,0,l),
(746,40,l),
(682,40,o),
(655,53,o),
(655,98,cs),
(655,116,o),
(659,139,o),
(667,168,cs),
(772,566,ls)
);
}
);
};
layerId = m002;
shapes = (
{
closed = 1;
nodes = (
(734,0,l),
(746,40,l),
(680,40,o),
(655,54,o),
(655,99,cs),
(655,115,o),
(658,134,o),
(667,168,cs),
(772,566,ls),
(808,702,o),
(831,730,o),
(919,730,c),
(930,770,l),
(561,770,l),
(550,730,l),
(625,730,o),
(649,722,o),
(649,681,cs),
(649,663,o),
(644,638,o),
(634,600,cs),
(578,396,l),
(514,367,o),
(455,357,o),
(414,357,cs),
(369,357,o),
(344,368,o),
(332,388,cs),
(318,411,o),
(322,443,o),
(334,483,cs),
(357,568,ls),
(394,704,o),
(416,730,o),
(504,730,c),
(515,770,l),
(146,770,l),
(135,730,l),
(209,730,o),
(234,722,o),
(234,682,cs),
(234,663,o),
(228,632,o),
(219,600,cs),
(190,496,ls),
(173,439,o),
(170,388,o),
(192,351,cs),
(217,308,o),
(269,284,o),
(359,284,cs),
(429,284,o),
(508,312,o),
(565,338,c),
(517,158,ls),
(491,60,o),
(461,40,o),
(382,40,c),
(371,0,l)
);
}
);
width = 827;
},
{
anchors = (
{
name = bottom;
pos = (326,0);
},
{
name = top;
pos = (519,830);
}
);
associatedMasterId = m002;
background = {
shapes = (
{
closed = 1;
nodes = (
(796,702,o),
(819,730,o),
(907,730,c),
(918,770,l),
(593,770,l),
(582,730,l),
(654,730,o),
(681,723,o),
(681,682,cs),
(681,663,o),
(676,637,o),
(666,600,cs),
(618,418,l),
(230,418,l),
(269,566,ls),
(305,702,o),
(328,730,o),
(416,730,c),
(427,770,l),
(102,770,l),
(91,730,l),
(163,730,o),
(190,723,o),
(190,682,cs),
(190,663,o),
(185,637,o),
(175,600,cs),
(58,158,l),
(164,168,l),
(216,367,l),
(604,367,l),
(549,158,ls),
(523,60,o),
(493,40,o),
(414,40,c),
(403,0,l),
(722,0,l),
(734,40,l),
(670,40,o),
(643,53,o),
(643,98,cs),
(643,116,o),
(647,139,o),
(655,168,cs),
(760,566,ls)
);
}
);
};
layerId = "96991B30-AB21-4D95-81EC-F8803FEB4DDF";
name = "28 Oct 24 at 6:38AM";
shapes = (
{
closed = 1;
nodes = (
(796,702,o),
(819,730,o),
(907,730,c),
(918,770,l),
(593,770,l),
(582,730,l),
(654,730,o),
(681,723,o),
(681,682,cs),
(681,663,o),
(676,637,o),
(666,600,cs),
(618,418,l),
(384,418,l),
(290,418,l),
(306,478,l),
(329,566,ls),
(365,702,o),
(388,730,o),
(476,730,c),
(487,770,l),
(162,770,l),
(151,730,l),
(223,730,o),
(250,723,o),
(250,682,cs),
(250,663,o),
(245,637,o),
(235,600,cs),
(210,508,l),
(173,367,l),
(381,367,l),
(604,367,l),
(549,158,ls),
(523,60,o),
(493,40,o),
(414,40,c),
(403,0,l),
(722,0,l),
(734,40,l),
(670,40,o),
(643,53,o),
(643,98,cs),
(643,116,o),
(647,139,o),
(655,168,cs),
(760,566,ls)
);
}
);
width = 851;
},
{
anchors = (
{
name = bottom;
pos = (310,0);
},
{
name = top;
pos = (503,830);
}
);
associatedMasterId = m002;
background = {
shapes = (
{
closed = 1;
nodes = (
(780,702,o),
(803,730,o),
(891,730,c),
(902,770,l),
(577,770,l),
(566,730,l),
(638,730,o),
(665,723,o),
(665,682,cs),
(665,663,o),
(660,637,o),
(650,600,cs),
(602,418,l),
(383,418,l),
(289,418,l),
(305,478,l),
(328,566,ls),
(364,702,o),
(387,730,o),
(475,730,c),
(486,770,l),
(161,770,l),
(150,730,l),
(222,730,o),
(249,723,o),
(249,682,cs),
(249,663,o),
(244,637,o),
(234,600,cs),
(209,508,l),
(172,367,l),
(380,367,l),
(588,367,l),
(533,158,ls),
(507,60,o),
(477,40,o),
(398,40,c),
(387,0,l),
(706,0,l),
(718,40,l),
(654,40,o),
(627,53,o),
(627,98,cs),
(627,116,o),
(631,139,o),
(639,168,cs),
(744,566,ls)
);
}
);
};
layerId = "3CCBE289-5781-4903-8EC5-767590244EEB";
name = "28 Oct 24 at 1:04PM";
shapes = (
{
closed = 1;
nodes = (
(780,702,o),
(803,730,o),
(891,730,c),
(902,770,l),
(577,770,l),
(566,730,l),
(641,730,o),
(665,722,o),
(665,681,cs),
(665,663,o),
(660,637,o),
(650,600,cs),
(602,422,l),
(529,393,o),
(462,383,o),
(416,383,cs),
(368,383,o),
(332,394,o),
(318,408,cs),
(294,432,o),
(308,491,o),
(314,513,cs),
(329,568,ls),
(365,701,o),
(388,730,o),
(476,730,c),
(487,770,l),
(162,770,l),
(151,730,l),
(225,730,o),
(250,722,o),
(250,682,cs),
(250,663,o),
(244,632,o),
(235,600,cs),
(214,526,ls),
(201,480,o),
(193,429,o),
(208,392,cs),
(227,345,o),
(285,318,o),
(361,318,cs),
(438,318,o),
(526,346,o),
(589,372,c),
(533,158,ls),
(507,60,o),
(477,40,o),
(398,40,c),
(387,0,l),
(706,0,l),
(718,40,l),
(652,40,o),
(627,54,o),
(627,99,cs),
(627,115,o),
(630,134,o),
(639,168,cs),
(744,566,ls)
);
}
);
width = 835;
}
);
unicode = 42893;
},
{
color = 4;
glyphname = I;
kernLeft = KERN_I_2ND;
kernRight = KERN_I_1ST;
lastChange = "2025-08-04 21:07:50 +0000";
layers = (
{
anchors = (
{
name = bottom;
pos = (124,0);
},
{
name = ogonek;
pos = (162,10);
},
{
name = top;
pos = (345,830);
}
);
layerId = m001;
shapes = (
{
closed = 1;
nodes = (
(365,702,o),
(388,730,o),
(476,730,c),
(487,770,l),
(162,770,l),
(151,730,l),
(223,730,o),
(250,723,o),
(250,682,cs),
(250,663,o),
(245,637,o),
(235,600,cs),
(118,158,ls),
(92,60,o),
(62,40,o),
(-17,40,c),
(-28,0,l),
(291,0,l),
(303,40,l),
(239,40,o),
(212,53,o),
(212,98,cs),
(212,116,o),
(216,139,o),
(224,168,cs),
(329,566,ls)
);
}
);
width = 420;
},
{
anchors = (
{
name = bottom;
pos = (139,0);
},
{
name = ogonek;
pos = (175,10);
},
{
name = top;
pos = (360,830);
}
);
background = {
shapes = (
{
closed = 1;
nodes = (
(380,702,o),
(403,730,o),
(491,730,c),
(502,770,l),
(177,770,l),
(166,730,l),
(238,730,o),
(265,723,o),
(265,682,cs),
(265,663,o),
(260,637,o),
(250,600,cs),
(133,158,ls),
(107,60,o),
(77,40,o),
(-2,40,c),
(-13,0,l),
(306,0,l),
(318,40,l),
(254,40,o),
(227,53,o),
(227,98,cs),
(227,116,o),
(231,139,o),
(239,168,cs),
(344,566,ls)
);
}
);
};
layerId = m002;
shapes = (
{
closed = 1;
nodes = (
(401,702,o),
(424,730,o),
(512,730,c),
(523,770,l),
(156,770,l),
(145,730,l),
(217,730,o),
(244,723,o),
(244,682,cs),
(244,663,o),
(239,637,o),
(229,600,cs),
(112,158,ls),
(86,60,o),
(56,40,o),
(-23,40,c),
(-34,0,l),
(327,0,l),
(339,40,l),
(275,40,o),
(248,53,o),
(248,98,cs),
(248,116,o),
(252,139,o),
(260,168,cs),
(365,566,ls)
);
}
);
width = 420;
}
);
unicode = 73;
},
{
color = 4;
glyphname = "Iota-latin";
lastChange = "2025-08-06 22:52:37 +0000";
layers = (
{
background = {
shapes = (
{
closed = 1;
nodes = (
(241,-10,o),
(335,73,o),
(377,164,c),
(347,181,l),
(331,151,o),
(273,67,o),
(230,67,cs),
(215,67,o),
(209,78,o),
(209,90,cs),
(209,109,o),
(215,134,o),
(224,168,cs),
(380,763,l),
(353,773,l),
(282,767,o),
(218,764,o),
(161,762,c),
(151,730,l),
(223,730,o),
(250,723,o),
(250,682,cs),
(250,663,o),
(245,637,o),
(235,600,cs),
(129,202,ls),
(109,124,o),
(102,82,o),
(102,55,cs),
(102,9,o),
(126,-10,o),
(177,-10,cs)
);
}
);
};
layerId = m001;
shapes = (
{
closed = 1;
nodes = (
(241,-10,o),
(335,73,o),
(377,164,c),
(347,181,l),
(331,151,o),
(273,67,o),
(230,67,cs),
(215,67,o),
(209,78,o),
(209,90,cs),
(209,109,o),
(215,134,o),
(224,168,cs),
(380,763,l),
(353,773,l),
(282,767,o),
(218,764,o),
(161,762,c),
(151,730,l),
(223,730,o),
(250,723,o),
(250,682,cs),
(250,663,o),
(245,637,o),
(235,600,cs),
(129,202,ls),
(109,124,o),
(102,82,o),
(102,55,cs),
(102,9,o),
(126,-10,o),
(177,-10,cs)
);
}
);
width = 410;
},
{
associatedMasterId = m001;
background = {
shapes = (
{
closed = 1;
nodes = (
(365,702,o),
(388,730,o),
(476,730,c),
(487,770,l),
(162,770,l),
(151,730,l),
(223,730,o),
(250,723,o),
(250,682,cs),
(250,663,o),
(245,637,o),
(235,600,cs),
(118,158,ls),
(92,60,o),
(62,40,o),
(-17,40,c),
(-28,0,l),
(291,0,l),
(303,40,l),
(239,40,o),
(212,53,o),
(212,98,cs),
(212,116,o),
(216,139,o),
(224,168,cs),
(329,566,ls)
);
}
);
};
layerId = "28460927-04C4-47C2-85A7-29ED0E1D5069";
name = "28 Oct 24 at 10:02AM";
shapes = (
{
closed = 0;
nodes = (
(224,168,l),
(329,566,ls),
(365,702,o),
(388,730,o),
(476,730,c),
(487,770,l),
(162,770,l),
(151,730,l),
(223,730,o),
(250,723,o),
(250,682,cs),
(250,663,o),
(245,637,o),
(235,600,cs),
(118,158,ls)
);
},
{
closed = 0;
nodes = (
(140,202,ls),
(120,124,o),
(113,82,o),
(113,55,cs),
(113,9,o),
(135,-10,o),
(181,-10,cs),
(243,-10,o),
(335,73,o),
(376,164,c),
(346,181,l),
(330,151,o),
(272,67,o),
(229,67,cs),
(214,67,o),
(208,78,o),
(208,90,cs),
(208,109,o),
(214,136,o),
(224,172,cs)
);
}
);
width = 600;
},
{
background = {
shapes = (
{
closed = 1;
nodes = (
(280,-10,o),
(374,73,o),
(416,164,c),
(386,181,l),
(370,151,o),
(312,67,o),
(269,67,cs),
(254,67,o),
(248,78,o),
(248,90,cs),
(248,109,o),
(254,134,o),
(263,168,cs),
(419,763,l),
(392,773,l),
(321,767,o),
(257,764,o),
(200,762,c),
(190,730,l),
(262,730,o),
(289,723,o),
(289,682,cs),
(289,663,o),
(284,637,o),
(274,600,cs),
(168,202,ls),
(148,124,o),
(141,82,o),
(141,55,cs),
(141,9,o),
(165,-10,o),
(216,-10,cs)
);
},
{
closed = 1;
nodes = (
(285,595,o),
(252,780,o),
(52,780,cs),
(-205,780,o),
(-409,513,o),
(-409,269,cs),
(-409,70,o),
(-291,-9,o),
(-146,-9,cs),
(40,-9,o),
(263,182,o),
(258,432,cs)
);
},
{
closed = 1;
nodes = (
(209,717,o),
(214,598,o),
(192,469,cs),
(149,221,o),
(19,53,o),
(-126,53,cs),
(-216,53,o),
(-254,138,o),
(-254,247,cs),
(-254,429,o),
(-147,717,o),
(64,717,cs)
);
},
{
closed = 1;
nodes = (
(271,-10,o),
(373,64,o),
(425,174,c),
(383,192,l),
(369,164,o),
(314,79,o),
(274,79,cs),
(259,79,o),
(253,89,o),
(253,105,cs),
(253,120,o),
(259,146,o),
(268,180,cs),
(425,770,l),
(300,770,l),
(240,630,l),
(126,202,ls),
(106,127,o),
(99,85,o),
(99,59,cs),
(99,11,o),
(131,-10,o),
(187,-10,cs)
);
}
);
};
layerId = m002;
shapes = (
{
closed = 1;
nodes = (
(298,-10,o),
(372,74,o),
(424,174,c),
(384,191,l),
(370,164,o),
(314,79,o),
(273,79,cs),
(258,79,o),
(252,89,o),
(252,105,cs),
(252,120,o),
(258,146,o),
(267,180,cs),
(419,763,l),
(392,773,l),
(305,767,o),
(215,764,o),
(158,762,c),
(148,730,l),
(220,730,o),
(247,723,o),
(247,682,cs),
(247,663,o),
(242,637,o),
(232,600,cs),
(126,201,ls),
(105,122,o),
(100,91,o),
(100,70,cs),
(100,17,o),
(135,-10,o),
(195,-10,cs)
);
}
);
width = 441;
},
{
associatedMasterId = m002;
background = {
shapes = (
{
closed = 1;
nodes = (
(365,702,o),
(388,730,o),
(476,730,c),
(487,770,l),
(162,770,l),
(151,730,l),
(223,730,o),
(250,723,o),
(250,682,cs),
(250,663,o),
(245,637,o),
(235,600,cs),
(118,158,ls),
(92,60,o),
(62,40,o),
(-17,40,c),
(-28,0,l),
(291,0,l),
(303,40,l),
(239,40,o),
(212,53,o),
(212,98,cs),
(212,116,o),
(216,139,o),
(224,168,cs),
(329,566,ls)
);
}
);
};
layerId = "122900D3-1BAA-4641-904E-5123F3ECD342";
name = "28 Oct 24 at 10:02AM";
shapes = (
{
closed = 0;
nodes = (
(224,168,l),
(329,566,ls),
(365,702,o),
(388,730,o),
(476,730,c),
(487,770,l),
(162,770,l),
(151,730,l),
(223,730,o),
(250,723,o),
(250,682,cs),
(250,663,o),
(245,637,o),
(235,600,cs),
(118,158,ls)
);
},
{
closed = 0;
nodes = (
(140,202,ls),
(120,124,o),
(113,82,o),
(113,55,cs),
(113,9,o),
(135,-10,o),
(181,-10,cs),
(243,-10,o),
(335,73,o),
(376,164,c),
(346,181,l),
(330,151,o),
(272,67,o),
(229,67,cs),
(214,67,o),
(208,78,o),
(208,90,cs),
(208,109,o),
(214,136,o),
(224,172,cs)
);
}
);
width = 600;
}
);
unicode = 406;
},
{
color = 4;
glyphname = Istroke;
lastChange = "2025-08-05 14:09:47 +0000";
layers = (
{
layerId = m001;
shapes = (
{
ref = I;
},
{
closed = 1;
nodes = (
(384,412,l),
(106,412,l),
(90,358,l),
(368,358,l)
);
}
);
width = 420;
},
{
layerId = m002;
shapes = (
{
ref = I;
},
{
closed = 1;
nodes = (
(413,412,l),
(100,412,l),
(84,358,l),
(397,358,l)
);
}
);
width = 420;
}
);
unicode = 407;
},
{
color = 4;
glyphname = J;
kernLeft = KERN_J_2ND;
kernRight = KERN_J_1ST;
lastChange = "2025-05-29 19:14:59 +0000";
layers = (
{
anchors = (
{
name = top;
pos = (476,830);
}
);
layerId = m001;
shapes = (
{
closed = 1;
nodes = (
(100,43,o),
(75,61,o),
(75,86,cs),
(75,122,o),
(127,123,o),
(127,173,cs),
(127,207,o),
(101,231,o),
(65,231,cs),
(14,231,o),
(-23,183,o),
(-23,119,cs),
(-23,38,o),
(35,-10,o),
(134,-10,cs),
(254,-10,o),
(342,60,o),
(375,186,cs),
(475,566,ls),
(511,704,o),
(531,730,o),
(612,730,c),
(623,770,l),
(298,770,l),
(287,730,l),
(374,730,o),
(396,720,o),
(396,682,cs),
(396,664,o),
(391,637,o),
(381,600,cs),
(282,222,ls),
(252,109,o),
(199,43,o),
(134,43,cs)
);
}
);
width = 543;
},
{
anchors = (
{
name = top;
pos = (486,830);
}
);
background = {
shapes = (
{
closed = 1;
nodes = (
(110,43,o),
(85,61,o),
(85,86,cs),
(85,122,o),
(137,123,o),
(137,173,cs),
(137,207,o),
(111,231,o),
(75,231,cs),
(24,231,o),
(-13,183,o),
(-13,119,cs),
(-13,38,o),
(45,-10,o),
(144,-10,cs),
(264,-10,o),
(352,60,o),
(385,186,cs),
(485,566,ls),
(521,704,o),
(541,730,o),
(622,730,c),
(633,770,l),
(308,770,l),
(297,730,l),
(384,730,o),
(406,720,o),
(406,682,cs),
(406,664,o),
(401,637,o),
(391,600,cs),
(292,222,ls),
(262,109,o),
(209,43,o),
(144,43,cs)
);
}
);
};
layerId = m002;
shapes = (
{
closed = 1;
nodes = (
(119,43,o),
(97,64,o),
(97,89,cs),
(97,131,o),
(152,129,o),
(152,190,cs),
(152,234,o),
(123,253,o),
(87,253,cs),
(28,253,o),
(-13,199,o),
(-13,120,cs),
(-13,35,o),
(45,-10,o),
(150,-10,cs),
(285,-10,o),
(394,61,o),
(427,186,cs),
(527,566,ls),
(563,704,o),
(583,730,o),
(664,730,c),
(675,770,l),
(308,770,l),
(297,730,l),
(384,730,o),
(406,720,o),
(406,682,cs),
(406,664,o),
(401,637,o),
(391,600,cs),
(292,222,ls),
(262,109,o),
(212,43,o),
(151,43,cs)
);
}
);
width = 569;
}
);
unicode = 74;
},
{
color = 4;
glyphname = Jstroke;
lastChange = "2025-08-05 14:09:40 +0000";
layers = (
{
layerId = m001;
shapes = (
{
ref = J;
},
{
closed = 1;
nodes = (
(524,412,l),
(246,412,l),
(230,358,l),
(508,358,l)
);
}
);
width = 543;
},
{
layerId = m002;
shapes = (
{
ref = J;
},
{
closed = 1;
nodes = (
(562,412,l),
(254,412,l),
(238,358,l),
(546,358,l)
);
}
);
width = 543;
}
);
unicode = 584;
},
{
color = 4;
glyphname = K;
kernLeft = KERN_I_2ND;
kernRight = KERN_K_1ST;
lastChange = "2025-05-28 23:11:20 +0000";
layers = (
{
anchors = (
{
name = bottom;
pos = (365,0);
},
{
name = top;
pos = (539,830);
}
);
layerId = m001;
shapes = (
{
closed = 1;
nodes = (
(300,0,l),
(312,40,l),
(241,40,o),
(211,53,o),
(211,98,cs),
(211,116,o),
(215,139,o),
(223,168,cs),
(273,357,l),
(313,385,l),
(471,173,ls),
(510,120,o),
(528,87,o),
(528,68,cs),
(528,45,o),
(501,40,o),
(454,40,c),
(443,0,l),
(757,0,l),
(768,40,l),
(714,40,o),
(701,45,o),
(594,187,cs),
(398,445,l),
(552,553,ls),
(762,701,o),
(793,730,o),
(836,730,c),
(846,770,l),
(562,770,l),
(552,730,l),
(595,730,o),
(619,721,o),
(619,702,cs),
(619,677,o),
(582,635,o),
(498,575,cs),
(291,427,l),
(328,566,ls),
(364,702,o),
(387,730,o),
(475,730,c),
(486,770,l),
(161,770,l),
(150,730,l),
(222,730,o),
(249,723,o),
(249,682,cs),
(249,663,o),
(244,637,o),
(234,600,cs),
(117,158,ls),
(91,60,o),
(66,40,o),
(-8,40,c),
(-19,0,l)
);
}
);
width = 825;
},
{
anchors = (
{
name = bottom;
pos = (359,0);
},
{
name = top;
pos = (564,830);
}
);
background = {
shapes = (
{
closed = 1;
nodes = (
(389,702,o),
(412,730,o),
(500,730,c),
(511,770,l),
(186,770,l),
(175,730,l),
(247,730,o),
(274,723,o),
(274,682,cs),
(274,663,o),
(269,637,o),
(259,600,cs),
(142,158,ls),
(116,60,o),
(91,40,o),
(17,40,c),
(6,0,l),
(325,0,l),
(337,40,l),
(266,40,o),
(236,53,o),
(236,98,cs),
(236,116,o),
(240,139,o),
(248,168,cs),
(298,357,l),
(338,385,l),
(496,173,ls),
(535,120,o),
(553,87,o),
(553,68,cs),
(553,45,o),
(526,40,o),
(479,40,c),
(468,0,l),
(782,0,l),
(793,40,l),
(739,40,o),
(726,45,o),
(619,187,cs),
(423,445,l),
(577,553,ls),
(787,701,o),
(818,730,o),
(861,730,c),
(871,770,l),
(587,770,l),
(577,730,l),
(620,730,o),
(644,721,o),
(644,702,cs),
(644,677,o),
(607,635,o),
(523,575,cs),
(316,427,l),
(353,566,ls)
);
}
);
};
guides = (
{
angle = 35.094;
pos = (329,366);
}
);
layerId = m002;
shapes = (
{
closed = 1;
nodes = (
(298,0,l),
(309,40,l),
(254,42,o),
(232,50,o),
(232,87,cs),
(232,104,o),
(237,128,o),
(246,161,cs),
(292,339,l),
(355,384,l),
(468,129,ls),
(483,94,o),
(485,86,o),
(485,75,cs),
(485,52,o),
(462,41,o),
(400,40,c),
(389,0,l),
(759,0,l),
(770,40,l),
(711,43,o),
(670,52,o),
(653,89,cs),
(476,469,l),
(701,634,ls),
(808,713,o),
(825,729,o),
(886,731,c),
(896,770,l),
(623,770,l),
(612,730,l),
(657,730,o),
(675,724,o),
(675,710,cs),
(675,697,o),
(661,678,o),
(640,663,cs),
(317,430,l),
(366,609,ls),
(394,710,o),
(412,727,o),
(502,730,c),
(513,770,l),
(165,770,l),
(154,730,l),
(208,727,o),
(230,718,o),
(230,682,cs),
(230,666,o),
(226,645,o),
(218,616,cs),
(94,154,ls),
(69,60,o),
(48,43,o),
(-41,40,c),
(-52,0,l)
);
}
);
width = 827;
}
);
unicode = 75;
},
{
color = 4;
glyphname = Khook;
lastChange = "2025-08-10 01:42:54 +0000";
layers = (
{
anchors = (
{
name = bottom;
pos = (365,0);
},
{
name = top;
pos = (539,830);
}
);
background = {
anchors = (
{
name = bottom;
pos = (365,0);
},
{
name = top;
pos = (539,830);
}
);
shapes = (
{
closed = 1;
nodes = (
(585,636,cs),
(291,427,l),
(328,566,ls),
(364,702,o),
(387,730,o),
(475,730,c),
(486,770,l),
(161,770,l),
(150,730,l),
(225,730,o),
(249,722,o),
(249,681,cs),
(249,662,o),
(244,638,o),
(234,600,cs),
(117,158,ls),
(91,60,o),
(66,40,o),
(-8,40,c),
(-19,0,l),
(300,0,l),
(312,40,l),
(236,40,o),
(211,55,o),
(211,100,cs),
(211,115,o),
(214,134,o),
(223,168,cs),
(273,357,l),
(313,385,l),
(471,173,ls),
(509,122,o),
(528,87,o),
(528,68,cs),
(528,45,o),
(501,40,o),
(454,40,c),
(443,0,l),
(757,0,l),
(768,40,l),
(714,40,o),
(702,45,o),
(594,187,cs),
(398,445,l),
(640,615,ls),
(764,702,o),
(812,738,o),
(859,738,cs),
(897,738,o),
(913,715,o),
(949,715,cs),
(983,715,o),
(1002,736,o),
(1002,766,cs),
(1002,805,o),
(971,830,o),
(917,830,cs),
(869,830,o),
(837,810,o),
(784,776,cs),
(765,764,o),
(817,801,o)
);
}
);
};
layerId = m001;
shapes = (
{
closed = 1;
nodes = (
(300,0,l),
(312,40,l),
(236,40,o),
(211,55,o),
(211,100,cs),
(211,115,o),
(214,134,o),
(223,168,cs),
(273,357,l),
(313,385,l),
(471,173,ls),
(509,122,o),
(528,87,o),
(528,68,cs),
(528,45,o),
(501,40,o),
(454,40,c),
(443,0,l),
(757,0,l),
(768,40,l),
(714,40,o),
(702,45,o),
(594,187,cs),
(398,445,l),
(640,615,ls),
(764,702,o),
(812,738,o),
(859,738,cs),
(897,738,o),
(913,715,o),
(949,715,cs),
(983,715,o),
(1002,736,o),
(1002,766,cs),
(1002,805,o),
(971,830,o),
(917,830,cs),
(869,830,o),
(837,810,o),
(784,776,cs),
(765,764,o),
(817,801,o),
(585,636,cs),
(291,427,l),
(328,566,ls),
(364,702,o),
(387,730,o),
(475,730,c),
(486,770,l),
(161,770,l),
(150,730,l),
(225,730,o),
(249,722,o),
(249,681,cs),
(249,662,o),
(244,638,o),
(234,600,cs),
(117,158,ls),
(91,60,o),
(66,40,o),
(-8,40,c),
(-19,0,l)
);
}
);
width = 825;
},
{
anchors = (
{
name = bottom;
pos = (359,0);
},
{
name = top;
pos = (564,830);
}
);
background = {
anchors = (
{
name = bottom;
pos = (365,0);
},
{
name = top;
pos = (539,830);
}
);
shapes = (
{
closed = 1;
nodes = (
(585,636,cs),
(291,427,l),
(328,566,ls),
(364,702,o),
(387,730,o),
(475,730,c),
(486,770,l),
(161,770,l),
(150,730,l),
(225,730,o),
(249,722,o),
(249,681,cs),
(249,662,o),
(244,638,o),
(234,600,cs),
(117,158,ls),
(91,60,o),
(66,40,o),
(-8,40,c),
(-19,0,l),
(300,0,l),
(312,40,l),
(236,40,o),
(211,55,o),
(211,100,cs),
(211,115,o),
(214,134,o),
(223,168,cs),
(273,357,l),
(313,385,l),
(471,173,ls),
(509,122,o),
(528,87,o),
(528,68,cs),
(528,45,o),
(501,40,o),
(454,40,c),
(443,0,l),
(757,0,l),
(768,40,l),
(714,40,o),
(702,45,o),
(594,187,cs),
(398,445,l),
(640,615,ls),
(764,702,o),
(812,738,o),
(859,738,cs),
(897,738,o),
(913,715,o),
(949,715,cs),
(983,715,o),
(1002,736,o),
(1002,766,cs),
(1002,805,o),
(971,830,o),
(917,830,cs),
(869,830,o),
(837,810,o),
(784,776,cs),
(765,764,o),
(817,801,o)
);
}
);
};
guides = (
{
angle = 35.094;
pos = (329,366);
},
{
angle = 35.094;
pos = (219,366);
}
);
layerId = m002;
shapes = (
{
closed = 1;
nodes = (
(298,0,l),
(309,40,l),
(254,42,o),
(232,50,o),
(232,87,cs),
(232,104,o),
(237,128,o),
(246,161,cs),
(292,339,l),
(355,384,l),
(468,129,ls),
(483,94,o),
(485,86,o),
(485,75,cs),
(485,52,o),
(462,41,o),
(400,40,c),
(389,0,l),
(759,0,l),
(770,40,l),
(711,43,o),
(670,52,o),
(653,89,cs),
(476,469,l),
(701,634,ls),
(773,686,o),
(831,728,o),
(874,728,cs),
(906,728,o),
(933,705,o),
(969,705,cs),
(1004,705,o),
(1028,728,o),
(1028,762,cs),
(1028,802,o),
(996,830,o),
(943,830,cs),
(895,830,o),
(851,806,o),
(775,756,cs),
(742,734,o),
(707,711,o),
(640,663,cs),
(317,430,l),
(366,609,ls),
(394,710,o),
(412,727,o),
(502,730,c),
(513,770,l),
(165,770,l),
(154,730,l),
(208,727,o),
(230,718,o),
(230,682,cs),
(230,666,o),
(226,645,o),
(218,616,cs),
(94,154,ls),
(69,60,o),
(48,43,o),
(-41,40,c),
(-52,0,l)
);
}
);
width = 825;
}
);
unicode = 408;
},
{
color = 4;
glyphname = Kstroke;
lastChange = "2025-08-05 14:43:36 +0000";
layers = (
{
layerId = m001;
shapes = (
{
ref = K;
},
{
closed = 1;
nodes = (
(443,637,l),
(155,637,l),
(139,583,l),
(427,583,l)
);
}
);
width = 825;
},
{
layerId = m002;
shapes = (
{
ref = K;
},
{
closed = 1;
nodes = (
(463,637,l),
(153,637,l),
(137,583,l),
(447,583,l)
);
}
);
width = 825;
}
);
unicode = 42816;
},
{
color = 4;
glyphname = L;
kernLeft = KERN_I_2ND;
kernRight = KERN_L_1ST;
lastChange = "2025-05-29 19:24:18 +0000";
layers = (
{
anchors = (
{
name = bottom;
pos = (314,0);
},
{
name = top;
pos = (339,830);
}
);
layerId = m001;
shapes = (
{
closed = 1;
nodes = (
(568,0,l),
(656,231,l),
(609,231,l),
(552,93,o),
(485,43,o),
(326,43,cs),
(243,43,o),
(214,66,o),
(214,114,cs),
(214,130,o),
(217,148,o),
(223,170,cs),
(327,566,ls),
(363,702,o),
(386,730,o),
(474,730,c),
(485,770,l),
(160,770,l),
(149,730,l),
(221,730,o),
(248,723,o),
(248,682,cs),
(248,663,o),
(242,637,o),
(233,600,cs),
(120,158,ls),
(96,63,o),
(73,40,o),
(-14,40,c),
(-25,0,l)
);
}
);
width = 702;
},
{
anchors = (
{
name = bottom;
pos = (348,0);
},
{
name = top;
pos = (361,830);
}
);
background = {
shapes = (
{
closed = 1;
nodes = (
(592,0,l),
(680,231,l),
(633,231,l),
(576,93,o),
(509,43,o),
(350,43,cs),
(267,43,o),
(238,66,o),
(238,114,cs),
(238,130,o),
(241,148,o),
(247,170,cs),
(351,566,ls),
(387,702,o),
(410,730,o),
(498,730,c),
(509,770,l),
(184,770,l),
(173,730,l),
(245,730,o),
(272,723,o),
(272,682,cs),
(272,663,o),
(266,637,o),
(257,600,cs),
(144,158,ls),
(120,63,o),
(97,40,o),
(10,40,c),
(-1,0,l)
);
}
);
};
layerId = m002;
shapes = (
{
closed = 1;
nodes = (
(597,0,l),
(675,234,l),
(625,234,l),
(555,94,o),
(500,55,o),
(376,55,cs),
(281,55,o),
(240,69,o),
(240,126,cs),
(240,143,o),
(244,164,o),
(251,190,cs),
(363,609,ls),
(390,710,o),
(409,727,o),
(499,730,c),
(510,770,l),
(165,770,l),
(154,730,l),
(208,727,o),
(230,718,o),
(230,683,cs),
(230,666,o),
(226,645,o),
(218,616,cs),
(94,154,ls),
(69,60,o),
(48,43,o),
(-41,40,c),
(-52,0,l)
);
}
);
width = 716;
}
);
unicode = 76;
},
{
color = 4;
glyphname = Lbar;
lastChange = "2025-08-05 14:42:57 +0000";
layers = (
{
layerId = m001;
shapes = (
{
ref = L;
},
{
closed = 1;
nodes = (
(414,412,l),
(86,412,l),
(70,358,l),
(398,358,l)
);
}
);
width = 702;
},
{
layerId = m002;
shapes = (
{
ref = L;
},
{
closed = 1;
nodes = (
(434,418,l),
(75,418,l),
(60,364,l),
(420,364,l)
);
}
);
width = 702;
}
);
unicode = 573;
},
{
color = 4;
glyphname = Ldoublebar;
lastChange = "2025-08-05 14:42:25 +0000";
layers = (
{
layerId = m001;
shapes = (
{
ref = L;
},
{
closed = 1;
nodes = (
(432,381,l),
(84,381,l),
(68,327,l),
(416,327,l)
);
},
{
closed = 1;
nodes = (
(469,520,l),
(121,520,l),
(105,466,l),
(453,466,l)
);
}
);
width = 702;
},
{
background = {
shapes = (
{
closed = 1;
nodes = (
(414,412,l),
(86,412,l),
(70,358,l),
(398,358,l)
);
},
{
closed = 1;
nodes = (
(75,531,l),
(410,531,l),
(410,477,l),
(75,477,l)
);
},
{
closed = 1;
nodes = (
(75,381,l),
(410,381,l),
(410,327,l),
(75,327,l)
);
}
);
};
layerId = m002;
shapes = (
{
ref = L;
},
{
closed = 1;
nodes = (
(452,381,l),
(84,381,l),
(68,327,l),
(436,327,l)
);
},
{
closed = 1;
nodes = (
(489,520,l),
(121,520,l),
(105,466,l),
(473,466,l)
);
}
);
width = 716;
}
);
unicode = 11360;
},
{
color = 4;
glyphname = Lmiddletilde;
lastChange = "2025-06-11 12:28:33 +0000";
layers = (
{
layerId = m001;
shapes = (
{
ref = L;
},
{
closed = 1;
nodes = (
(57,390,l),
(66,420,o),
(77,430,o),
(102,430,cs),
(189,430,o),
(278,382,o),
(364,382,cs),
(414,382,o),
(457,433,o),
(464,500,c),
(431,500,l),
(421,469,o),
(409,458,o),
(384,458,cs),
(300,458,o),
(216,504,o),
(129,504,cs),
(77,504,o),
(34,458,o),
(23,390,c)
);
}
);
width = 702;
},
{
layerId = m002;
shapes = (
{
ref = L;
},
{
closed = 1;
nodes = (
(57,378,l),
(66,408,o),
(77,418,o),
(102,418,cs),
(196,418,o),
(291,370,o),
(384,370,cs),
(434,370,o),
(477,426,o),
(484,500,c),
(451,500,l),
(441,469,o),
(429,458,o),
(404,458,cs),
(313,458,o),
(223,504,o),
(129,504,cs),
(77,504,o),
(34,453,o),
(23,378,c)
);
}
);
width = 702;
}
);
unicode = 11362;
},
{
color = 4;
glyphname = Lslash;
kernLeft = KERN_I_2ND;
kernRight = KERN_L_1ST;
lastChange = "2025-08-05 14:44:07 +0000";
layers = (
{
layerId = m001;
shapes = (
{
closed = 1;
nodes = (
(411,528,l),
(100,363,l),
(83,298,l),
(394,463,l)
);
},
{
pos = (2,0);
ref = L;
}
);
width = 704;
},
{
layerId = m002;
shapes = (
{
closed = 1;
nodes = (
(461,528,l),
(80,363,l),
(63,298,l),
(444,463,l)
);
},
{
pos = (2,0);
ref = L;
}
);
width = 704;
}
);
unicode = 321;
},
{
color = 4;
glyphname = M;
kernRight = KERN_I_1ST;
lastChange = "2025-05-30 17:16:47 +0000";
layers = (
{
anchors = (
{
name = bottom;
pos = (419,0);
},
{
name = top;
pos = (643,824);
}
);
layerId = m001;
shapes = (
{
closed = 1;
nodes = (
(435,0,l),
(392,0,l),
(314,655,l),
(310,655,l),
(182,168,ls),
(178,152,o),
(175,137,o),
(175,124,cs),
(175,70,o),
(209,41,o),
(261,40,c),
(249,0,l),
(-27,0,l),
(-16,40,l),
(46,40,o),
(101,90,o),
(119,158,cs),
(236,600,ls),
(246,637,o),
(251,663,o),
(251,682,cs),
(251,723,o),
(224,730,o),
(152,730,c),
(163,770,l),
(403,770,l),
(474,174,l),
(478,174,l),
(855,770,l),
(1066,770,l),
(1055,730,l),
(979,730,o),
(964,701,o),
(928,566,cs),
(823,168,ls),
(815,139,o),
(811,116,o),
(811,98,cs),
(811,53,o),
(841,40,o),
(912,40,c),
(900,0,l),
(581,0,l),
(592,40,l),
(666,40,o),
(691,60,o),
(717,158,cs),
(849,655,l),
(845,655,l)
);
}
);
width = 1020;
},
{
anchors = (
{
name = bottom;
pos = (422,0);
},
{
name = top;
pos = (657,824);
}
);
background = {
anchors = (
{
name = bottom;
pos = (413,0);
},
{
name = top;
pos = (637,824);
}
);
shapes = (
{
closed = 1;
nodes = (
(429,0,l),
(386,0,l),
(308,655,l),
(304,655,l),
(176,168,ls),
(172,152,o),
(169,137,o),
(169,124,cs),
(169,70,o),
(203,41,o),
(255,40,c),
(243,0,l),
(-33,0,l),
(-22,40,l),
(40,40,o),
(95,90,o),
(113,158,cs),
(230,600,ls),
(240,637,o),
(245,663,o),
(245,682,cs),
(245,723,o),
(218,730,o),
(146,730,c),
(157,770,l),
(397,770,l),
(468,174,l),
(472,174,l),
(849,770,l),
(1060,770,l),
(1049,730,l),
(973,730,o),
(958,701,o),
(922,566,cs),
(817,168,ls),
(809,139,o),
(805,116,o),
(805,98,cs),
(805,53,o),
(835,40,o),
(906,40,c),
(894,0,l),
(575,0,l),
(586,40,l),
(660,40,o),
(685,60,o),
(711,158,cs),
(843,655,l),
(839,655,l)
);
},
{
closed = 1;
nodes = (
(447,0,l),
(386,0,l),
(326,655,l),
(322,655,l),
(194,168,ls),
(190,152,o),
(187,137,o),
(187,124,cs),
(187,70,o),
(221,41,o),
(273,40,c),
(261,0,l),
(-33,0,l),
(-22,40,l),
(40,40,o),
(95,90,o),
(113,158,cs),
(230,600,ls),
(240,637,o),
(245,663,o),
(245,682,cs),
(245,723,o),
(218,730,o),
(146,730,c),
(157,770,l),
(437,770,l),
(498,222,l),
(502,222,l),
(849,770,l),
(1100,770,l),
(1089,730,l),
(1013,730,o),
(998,701,o),
(962,566,cs),
(857,168,ls),
(849,139,o),
(845,116,o),
(845,98,cs),
(845,53,o),
(875,40,o),
(946,40,c),
(934,0,l),
(575,0,l),
(586,40,l),
(660,40,o),
(685,60,o),
(711,158,cs),
(843,655,l),
(857,655,l)
);
}
);
};
layerId = m002;
shapes = (
{
closed = 1;
nodes = (
(447,0,l),
(386,0,l),
(314,609,l),
(310,609,l),
(194,168,ls),
(190,152,o),
(187,137,o),
(187,124,cs),
(187,70,o),
(221,41,o),
(273,40,c),
(261,0,l),
(-33,0,l),
(-22,40,l),
(40,40,o),
(95,90,o),
(113,158,cs),
(230,600,ls),
(240,637,o),
(245,663,o),
(245,682,cs),
(245,723,o),
(218,730,o),
(146,730,c),
(157,770,l),
(437,770,l),
(498,222,l),
(502,222,l),
(849,770,l),
(1100,770,l),
(1089,730,l),
(1013,730,o),
(998,701,o),
(962,566,cs),
(857,168,ls),
(849,139,o),
(845,116,o),
(845,98,cs),
(845,53,o),
(875,40,o),
(946,40,c),
(934,0,l),
(575,0,l),
(586,40,l),
(660,40,o),
(685,60,o),
(711,158,cs),
(830,605,l),
(826,605,l)
);
}
);
width = 1018;
}
);
unicode = 77;
},
{
color = 4;
glyphname = N;
kernLeft = KERN_N;
kernRight = KERN_N;
lastChange = "2025-05-30 17:23:18 +0000";
layers = (
{
anchors = (
{
name = bottom;
pos = (404,0);
},
{
name = top;
pos = (537,830);
}
);
layerId = m001;
shapes = (
{
closed = 1;
nodes = (
(277,0,l),
(289,40,l),
(230,41,o),
(194,70,o),
(194,125,cs),
(194,138,o),
(196,152,o),
(200,168,cs),
(314,602,l),
(318,602,l),
(580,0,l),
(620,0,l),
(782,612,ls),
(800,680,o),
(846,730,o),
(897,730,c),
(908,770,l),
(652,770,l),
(640,730,l),
(687,729,o),
(724,696,o),
(724,639,cs),
(724,628,o),
(722,615,o),
(719,602,cs),
(613,197,l),
(609,197,l),
(359,770,l),
(124,770,l),
(112,730,l),
(200,729,o),
(259,696,o),
(259,633,cs),
(259,623,o),
(258,613,o),
(255,602,cs),
(137,158,ls),
(119,90,o),
(64,40,o),
(2,40,c),
(-9,0,l)
);
}
);
width = 842;
},
{
anchors = (
{
name = bottom;
pos = (376,0);
},
{
name = top;
pos = (509,830);
}
);
background = {
shapes = (
{
closed = 1;
nodes = (
(255,0,l),
(265,40,l),
(200,42,o),
(171,67,o),
(171,121,cs),
(171,141,o),
(175,164,o),
(182,191,cs),
(282,564,l),
(283,564,l),
(505,-10,l),
(639,-10,l),
(799,586,ls),
(827,690,o),
(842,727,o),
(922,730,c),
(933,770,l),
(656,770,l),
(645,730,l),
(707,728,o),
(731,702,o),
(731,653,cs),
(731,632,o),
(727,608,o),
(719,579,cs),
(615,192,l),
(611,192,l),
(393,770,l),
(114,770,l),
(103,730,l),
(192,727,o),
(226,703,o),
(226,672,cs),
(226,652,o),
(220,624,o),
(210,586,cs),
(102,184,ls),
(74,78,o),
(54,43,o),
(-34,40,c),
(-44,0,l)
);
}
);
};
layerId = m002;
shapes = (
{
closed = 1;
nodes = (
(260,0,l),
(270,40,l),
(205,42,o),
(176,67,o),
(176,121,cs),
(176,141,o),
(180,164,o),
(187,191,cs),
(287,564,l),
(288,564,l),
(511,-10,l),
(634,-10,l),
(794,586,ls),
(822,691,o),
(837,727,o),
(917,730,c),
(928,770,l),
(651,770,l),
(640,730,l),
(702,728,o),
(726,702,o),
(726,653,cs),
(726,632,o),
(722,608,o),
(714,579,cs),
(610,192,l),
(606,192,l),
(388,770,l),
(119,770,l),
(108,730,l),
(197,727,o),
(231,703,o),
(231,672,cs),
(231,652,o),
(225,624,o),
(215,586,cs),
(107,184,ls),
(79,78,o),
(59,43,o),
(-29,40,c),
(-39,0,l)
);
}
);
width = 826;
},
{
anchors = (
{
name = bottom;
pos = (381,0);
},
{
name = top;
pos = (514,830);
}
);
associatedMasterId = m002;
background = {
shapes = (
{
closed = 1;
nodes = (
(260,0,l),
(270,40,l),
(205,42,o),
(176,67,o),
(176,121,cs),
(176,141,o),
(180,164,o),
(187,191,cs),
(302,621,l),
(266,621,l),
(510,-10,l),
(644,-10,l),
(804,586,ls),
(832,690,o),
(847,727,o),
(927,730,c),
(938,770,l),
(661,770,l),
(650,730,l),
(712,728,o),
(736,702,o),
(736,653,cs),
(736,632,o),
(732,608,o),
(724,579,cs),
(620,192,l),
(616,192,l),
(398,770,l),
(119,770,l),
(108,730,l),
(197,727,o),
(231,703,o),
(231,672,cs),
(231,652,o),
(225,624,o),
(215,586,cs),
(107,184,ls),
(79,78,o),
(59,43,o),
(-29,40,c),
(-39,0,l)
);
}
);
};
layerId = "ABE155CB-0F56-4EA0-A98A-8F782D9776F3";
name = "29 May 25 at 2:59PM";
shapes = (
{
closed = 1;
nodes = (
(260,0,l),
(270,40,l),
(205,42,o),
(176,67,o),
(176,121,cs),
(176,141,o),
(180,164,o),
(187,191,cs),
(287,564,l),
(288,564,l),
(510,-10,l),
(644,-10,l),
(804,586,ls),
(832,690,o),
(847,727,o),
(927,730,c),
(938,770,l),
(661,770,l),
(650,730,l),
(712,728,o),
(736,702,o),
(736,653,cs),
(736,632,o),
(732,608,o),
(724,579,cs),
(620,192,l),
(616,192,l),
(398,770,l),
(119,770,l),
(108,730,l),
(197,727,o),
(231,703,o),
(231,672,cs),
(231,652,o),
(225,624,o),
(215,586,cs),
(107,184,ls),
(79,78,o),
(59,43,o),
(-29,40,c),
(-39,0,l)
);
}
);
width = 836;
},
{
anchors = (
{
name = bottom;
pos = (381,0);
},
{
name = top;
pos = (514,830);
}
);
associatedMasterId = m002;
background = {
shapes = (
{
closed = 1;
nodes = (
(759,612,ls),
(777,680,o),
(823,730,o),
(874,730,c),
(885,770,l),
(629,770,l),
(617,730,l),
(664,729,o),
(701,696,o),
(701,639,cs),
(701,628,o),
(699,615,o),
(696,602,cs),
(590,197,l),
(586,197,l),
(336,770,l),
(101,770,l),
(89,730,l),
(177,729,o),
(236,696,o),
(236,633,cs),
(236,623,o),
(235,613,o),
(232,602,cs),
(114,158,ls),
(96,90,o),
(41,40,o),
(-21,40,c),
(-32,0,l),
(254,0,l),
(266,40,l),
(207,41,o),
(171,70,o),
(171,125,cs),
(171,138,o),
(173,152,o),
(177,168,cs),
(291,602,l),
(295,602,l),
(557,0,l),
(597,0,l)
);
}
);
};
layerId = "0D3A88E9-8874-4AB3-AED4-2F3503F414C0";
name = "29 May 25 at 11:47AM";
shapes = (
{
closed = 1;
nodes = (
(220,0,l),
(230,40,l),
(165,42,o),
(136,67,o),
(136,121,cs),
(136,141,o),
(140,164,o),
(147,191,cs),
(262,621,l),
(266,621,l),
(510,-10,l),
(644,-10,l),
(804,586,ls),
(832,690,o),
(847,727,o),
(927,730,c),
(938,770,l),
(661,770,l),
(650,730,l),
(712,728,o),
(736,702,o),
(736,653,cs),
(736,632,o),
(732,608,o),
(724,579,cs),
(620,192,l),
(616,192,l),
(398,770,l),
(119,770,l),
(108,730,l),
(167,727,o),
(191,714,o),
(191,672,cs),
(191,652,o),
(185,624,o),
(175,586,cs),
(67,184,ls),
(39,79,o),
(22,43,o),
(-59,40,c),
(-69,0,l)
);
}
);
width = 836;
},
{
anchors = (
{
name = bottom;
pos = (381,0);
},
{
name = top;
pos = (514,830);
}
);
associatedMasterId = m002;
background = {
shapes = (
{
closed = 1;
nodes = (
(220,0,l),
(230,40,l),
(165,42,o),
(136,67,o),
(136,121,cs),
(136,141,o),
(140,164,o),
(147,191,cs),
(262,621,l),
(266,621,l),
(510,-10,l),
(644,-10,l),
(804,586,ls),
(832,690,o),
(847,727,o),
(927,730,c),
(938,770,l),
(661,770,l),
(650,730,l),
(712,728,o),
(736,702,o),
(736,653,cs),
(736,632,o),
(732,608,o),
(724,579,cs),
(620,192,l),
(616,192,l),
(398,770,l),
(119,770,l),
(108,730,l),
(167,727,o),
(191,714,o),
(191,672,cs),
(191,652,o),
(185,624,o),
(175,586,cs),
(67,184,ls),
(39,79,o),
(22,43,o),
(-59,40,c),
(-69,0,l)
);
},
{
closed = 1;
nodes = (
(273,0,l),
(285,40,l),
(226,41,o),
(190,70,o),
(190,125,cs),
(190,138,o),
(192,152,o),
(196,168,cs),
(310,602,l),
(314,602,l),
(576,0,l),
(616,0,l),
(778,612,ls),
(796,680,o),
(842,730,o),
(893,730,c),
(904,770,l),
(648,770,l),
(636,730,l),
(683,729,o),
(720,696,o),
(720,639,cs),
(720,628,o),
(718,615,o),
(715,602,cs),
(609,197,l),
(605,197,l),
(355,770,l),
(120,770,l),
(108,730,l),
(196,729,o),
(255,696,o),
(255,633,cs),
(255,623,o),
(254,613,o),
(251,602,cs),
(133,158,ls),
(115,90,o),
(60,40,o),
(-2,40,c),
(-13,0,l)
);
}
);
};
layerId = "084BF95B-EDD9-44B5-ACE6-A3A3D9636CB3";
name = "29 May 25 at 11:49AM";
shapes = (
{
closed = 1;
nodes = (
(260,0,l),
(270,40,l),
(205,42,o),
(176,67,o),
(176,121,cs),
(176,141,o),
(180,164,o),
(187,191,cs),
(302,621,l),
(266,621,l),
(510,-10,l),
(644,-10,l),
(804,586,ls),
(832,690,o),
(847,727,o),
(927,730,c),
(938,770,l),
(661,770,l),
(650,730,l),
(712,728,o),
(736,702,o),
(736,653,cs),
(736,632,o),
(732,608,o),
(724,579,cs),
(620,192,l),
(616,192,l),
(398,770,l),
(119,770,l),
(108,730,l),
(197,727,o),
(231,703,o),
(231,672,cs),
(231,652,o),
(225,624,o),
(215,586,cs),
(107,184,ls),
(79,78,o),
(59,43,o),
(-29,40,c),
(-39,0,l)
);
}
);
width = 836;
}
);
unicode = 78;
},
{
color = 4;
glyphname = Nhookleft;
lastChange = "2025-08-08 15:52:44 +0000";
layers = (
{
anchors = (
{
name = bottom;
pos = (404,0);
},
{
name = top;
pos = (537,830);
}
);
background = {
anchors = (
{
name = bottom;
pos = (404,0);
},
{
name = top;
pos = (537,830);
}
);
shapes = (
{
closed = 1;
nodes = (
(62,-124,o),
(34,-207,o),
(-49,-207,cs),
(-86,-207,o),
(-107,-190,o),
(-107,-165,cs),
(-107,-130,o),
(-65,-131,o),
(-65,-87,cs),
(-65,-56,o),
(-87,-34,o),
(-119,-34,cs),
(-167,-34,o),
(-205,-82,o),
(-205,-144,cs),
(-205,-217,o),
(-151,-260,o),
(-57,-260,cs),
(50,-260,o),
(103,-204,o),
(156,-1,cs),
(314,602,l),
(318,602,l),
(580,0,l),
(620,0,l),
(782,612,ls),
(800,680,o),
(846,730,o),
(897,730,c),
(908,770,l),
(652,770,l),
(640,730,l),
(687,729,o),
(724,696,o),
(724,639,cs),
(724,628,o),
(722,615,o),
(719,602,cs),
(613,197,l),
(609,197,l),
(359,770,l),
(124,770,l),
(112,730,l),
(200,729,o),
(259,696,o),
(259,633,cs),
(259,623,o),
(258,613,o),
(255,602,cs),
(95,0,ls)
);
}
);
};
layerId = m001;
shapes = (
{
closed = 1;
nodes = (
(50,-260,o),
(103,-204,o),
(156,-1,cs),
(314,602,l),
(318,602,l),
(580,0,l),
(620,0,l),
(782,612,ls),
(800,680,o),
(846,730,o),
(897,730,c),
(908,770,l),
(652,770,l),
(640,730,l),
(687,729,o),
(724,696,o),
(724,639,cs),
(724,628,o),
(722,615,o),
(719,602,cs),
(613,197,l),
(609,197,l),
(359,770,l),
(124,770,l),
(112,730,l),
(200,729,o),
(259,696,o),
(259,633,cs),
(259,623,o),
(258,613,o),
(255,602,cs),
(95,0,ls),
(62,-124,o),
(34,-207,o),
(-49,-207,cs),
(-86,-207,o),
(-107,-190,o),
(-107,-165,cs),
(-107,-130,o),
(-65,-131,o),
(-65,-87,cs),
(-65,-56,o),
(-87,-34,o),
(-119,-34,cs),
(-167,-34,o),
(-205,-82,o),
(-205,-144,cs),
(-205,-217,o),
(-151,-260,o),
(-57,-260,cs)
);
}
);
width = 842;
},
{
anchors = (
{
name = bottom;
pos = (376,0);
},
{
name = top;
pos = (509,830);
}
);
background = {
anchors = (
{
name = bottom;
pos = (404,0);
},
{
name = top;
pos = (537,830);
}
);
shapes = (
{
closed = 1;
nodes = (
(62,-124,o),
(34,-207,o),
(-49,-207,cs),
(-86,-207,o),
(-107,-190,o),
(-107,-165,cs),
(-107,-130,o),
(-65,-131,o),
(-65,-87,cs),
(-65,-56,o),
(-87,-34,o),
(-119,-34,cs),
(-167,-34,o),
(-205,-82,o),
(-205,-144,cs),
(-205,-217,o),
(-151,-260,o),
(-57,-260,cs),
(50,-260,o),
(103,-204,o),
(156,-1,cs),
(314,602,l),
(318,602,l),
(580,0,l),
(620,0,l),
(782,612,ls),
(800,680,o),
(846,730,o),
(897,730,c),
(908,770,l),
(652,770,l),
(640,730,l),
(687,729,o),
(724,696,o),
(724,639,cs),
(724,628,o),
(722,615,o),
(719,602,cs),
(613,197,l),
(609,197,l),
(359,770,l),
(124,770,l),
(112,730,l),
(200,729,o),
(259,696,o),
(259,633,cs),
(259,623,o),
(258,613,o),
(255,602,cs),
(95,0,ls)
);
}
);
};
layerId = m002;
shapes = (
{
closed = 1;
nodes = (
(11,-260,o),
(84,-196,o),
(119,-64,cs),
(287,564,l),
(288,564,l),
(511,-10,l),
(634,-10,l),
(794,586,ls),
(822,691,o),
(837,727,o),
(917,730,c),
(928,770,l),
(651,770,l),
(640,730,l),
(702,728,o),
(726,702,o),
(726,653,cs),
(726,632,o),
(722,608,o),
(714,579,cs),
(610,192,l),
(606,192,l),
(388,770,l),
(119,770,l),
(108,730,l),
(197,727,o),
(231,703,o),
(231,672,cs),
(231,652,o),
(225,624,o),
(215,586,cs),
(50,-28,ls),
(16,-155,o),
(-18,-207,o),
(-79,-207,cs),
(-115,-207,o),
(-139,-190,o),
(-139,-165,cs),
(-139,-130,o),
(-97,-131,o),
(-97,-87,cs),
(-97,-56,o),
(-121,-34,o),
(-155,-34,cs),
(-207,-34,o),
(-247,-82,o),
(-247,-143,cs),
(-247,-215,o),
(-189,-260,o),
(-98,-260,cs)
);
}
);
width = 826;
}
);
unicode = 413;
},
{
color = 4;
glyphname = Eng;
kernLeft = KERN_N;
kernRight = KERN_N;
lastChange = "2025-08-08 15:48:26 +0000";
layers = (
{
layerId = m001;
shapes = (
{
closed = 1;
nodes = (
(380,-207,o),
(358,-191,o),
(358,-165,cs),
(358,-130,o),
(400,-131,o),
(400,-87,cs),
(400,-56,o),
(378,-34,o),
(347,-34,cs),
(298,-34,o),
(260,-82,o),
(260,-143,cs),
(260,-215,o),
(314,-260,o),
(400,-260,cs),
(503,-260,o),
(571,-196,o),
(605,-64,cs),
(703,316,l),
(654,350,l),
(555,-28,ls),
(522,-154,o),
(481,-207,o),
(416,-207,cs)
);
},
{
ref = N;
}
);
width = 842;
},
{
layerId = m002;
shapes = (
{
closed = 1;
nodes = (
(395,-207,o),
(371,-190,o),
(371,-165,cs),
(371,-130,o),
(413,-131,o),
(413,-87,cs),
(413,-56,o),
(389,-34,o),
(355,-34,cs),
(303,-34,o),
(263,-82,o),
(263,-143,cs),
(263,-215,o),
(319,-260,o),
(408,-260,cs),
(514,-260,o),
(585,-196,o),
(620,-64,cs),
(721,316,l),
(662,350,l),
(560,-28,ls),
(526,-155,o),
(492,-207,o),
(431,-207,cs)
);
},
{
ref = N;
}
);
width = 842;
}
);
unicode = 330;
},
{
color = 4;
glyphname = O;
kernLeft = KERN_O_2ND;
kernRight = KERN_O_1ST;
lastChange = "2025-08-11 15:05:26 +0000";
layers = (
{
anchors = (
{
name = bottom;
pos = (355,0);
},
{
name = ogonek;
pos = (389,10);
},
{
name = top;
pos = (550,830);
}
);
layerId = m001;
shapes = (
{
closed = 1;
nodes = (
(275,780,o),
(74,558,o),
(74,303,cs),
(74,114,o),
(185,-10,o),
(356,-10,cs),
(585,-10,o),
(784,212,o),
(784,469,cs),
(784,659,o),
(675,780,o),
(505,780,cs)
);
},
{
closed = 1;
nodes = (
(613,728,o),
(663,655,o),
(663,496,cs),
(663,234,o),
(538,44,o),
(370,44,cs),
(256,44,o),
(195,131,o),
(195,300,cs),
(195,540,o),
(331,728,o),
(505,728,cs)
);
}
);
width = 820;
},
{
anchors = (
{
name = bottom;
pos = (323,0);
},
{
name = top;
pos = (550,830);
}
);
associatedMasterId = m001;
layerId = "99FAF71A-3567-485B-B768-C3AB3458E8DC";
name = "11 Sep 24 at 6:42AM";
shapes = (
{
closed = 1;
nodes = (
(275,780,o),
(74,558,o),
(74,303,cs),
(74,114,o),
(185,-10,o),
(356,-10,cs),
(585,-10,o),
(784,212,o),
(784,469,cs),
(784,659,o),
(675,780,o),
(505,780,cs)
);
},
{
closed = 1;
nodes = (
(613,728,o),
(663,655,o),
(663,496,cs),
(663,234,o),
(538,44,o),
(370,44,cs),
(256,44,o),
(195,131,o),
(195,300,cs),
(195,540,o),
(331,728,o),
(505,728,cs)
);
}
);
width = 820;
},
{
anchors = (
{
name = bottom;
pos = (356,0);
},
{
name = ogonek;
pos = (390,10);
},
{
name = top;
pos = (551,830);
}
);
background = {
shapes = (
{
closed = 1;
nodes = (
(276,780,o),
(75,558,o),
(75,303,cs),
(75,114,o),
(186,-10,o),
(357,-10,cs),
(586,-10,o),
(785,212,o),
(785,469,cs),
(785,659,o),
(676,780,o),
(506,780,cs)
);
},
{
closed = 1;
nodes = (
(614,728,o),
(664,655,o),
(664,496,cs),
(664,234,o),
(539,44,o),
(371,44,cs),
(257,44,o),
(196,131,o),
(196,300,cs),
(196,540,o),
(332,728,o),
(506,728,cs)
);
}
);
};
layerId = m002;
shapes = (
{
closed = 1;
nodes = (
(265,780,o),
(53,566,o),
(53,309,cs),
(53,121,o),
(172,-10,o),
(356,-10,cs),
(597,-10,o),
(807,205,o),
(807,463,cs),
(807,652,o),
(689,780,o),
(506,780,cs)
);
},
{
closed = 1;
nodes = (
(602,718,o),
(642,639,o),
(642,493,cs),
(642,235,o),
(525,54,o),
(374,54,cs),
(270,54,o),
(218,145,o),
(218,300,cs),
(218,540,o),
(344,718,o),
(500,718,cs)
);
}
);
width = 822;
},
{
anchors = (
{
name = bottom;
pos = (343,0);
},
{
name = ogonek;
pos = (377,10);
},
{
name = top;
pos = (538,830);
}
);
associatedMasterId = m002;
background = {
shapes = (
{
closed = 1;
nodes = (
(263,780,o),
(62,558,o),
(62,303,cs),
(62,114,o),
(173,-10,o),
(344,-10,cs),
(573,-10,o),
(772,212,o),
(772,469,cs),
(772,659,o),
(663,780,o),
(493,780,cs)
);
},
{
closed = 1;
nodes = (
(601,728,o),
(651,655,o),
(651,496,cs),
(651,234,o),
(526,44,o),
(358,44,cs),
(244,44,o),
(183,131,o),
(183,300,cs),
(183,540,o),
(319,728,o),
(493,728,cs)
);
}
);
};
layerId = "D916FECC-C9EE-4377-8C19-93F946AC6088";
name = "10 May 25 at 4:55PM";
shapes = (
{
closed = 1;
nodes = (
(251,780,o),
(40,558,o),
(40,303,cs),
(40,114,o),
(160,-10,o),
(344,-10,cs),
(585,-10,o),
(794,212,o),
(794,469,cs),
(794,659,o),
(676,780,o),
(493,780,cs)
);
},
{
closed = 1;
nodes = (
(586,718,o),
(629,648,o),
(629,496,cs),
(629,240,o),
(513,54,o),
(358,54,cs),
(258,54,o),
(205,138,o),
(205,300,cs),
(205,534,o),
(331,718,o),
(493,718,cs)
);
}
);
width = 796;
},
{
anchors = (
{
name = bottom;
pos = (355,0);
},
{
name = ogonek;
pos = (389,10);
},
{
name = top;
pos = (550,830);
}
);
associatedMasterId = m002;
background = {
shapes = (
{
closed = 1;
nodes = (
(275,780,o),
(74,558,o),
(74,303,cs),
(74,114,o),
(185,-10,o),
(356,-10,cs),
(585,-10,o),
(784,212,o),
(784,469,cs),
(784,659,o),
(675,780,o),
(505,780,cs)
);
},
{
closed = 1;
nodes = (
(613,728,o),
(663,655,o),
(663,496,cs),
(663,234,o),
(538,44,o),
(370,44,cs),
(256,44,o),
(195,131,o),
(195,300,cs),
(195,540,o),
(331,728,o),
(505,728,cs)
);
}
);
};
layerId = "EA47F6FF-5759-4CC5-869E-96CD5422A3B1";
name = "10 May 25 at 4:47PM";
shapes = (
{
closed = 1;
nodes = (
(275,780,o),
(74,558,o),
(74,303,cs),
(74,114,o),
(185,-10,o),
(356,-10,cs),
(585,-10,o),
(784,212,o),
(784,469,cs),
(784,659,o),
(675,780,o),
(505,780,cs)
);
},
{
closed = 1;
nodes = (
(613,728,o),
(663,655,o),
(663,496,cs),
(663,234,o),
(538,44,o),
(370,44,cs),
(256,44,o),
(195,131,o),
(195,300,cs),
(195,540,o),
(331,728,o),
(505,728,cs)
);
}
);
width = 820;
},
{
anchors = (
{
name = bottom;
pos = (323,0);
},
{
name = top;
pos = (550,830);
}
);
associatedMasterId = m002;
layerId = "1013C192-E48E-4FD7-88F9-DE4C49F234FB";
name = "11 Sep 24 at 6:42AM";
shapes = (
{
closed = 1;
nodes = (
(275,780,o),
(74,558,o),
(74,303,cs),
(74,114,o),
(185,-10,o),
(356,-10,cs),
(585,-10,o),
(784,212,o),
(784,469,cs),
(784,659,o),
(675,780,o),
(505,780,cs)
);
},
{
closed = 1;
nodes = (
(613,728,o),
(663,655,o),
(663,496,cs),
(663,234,o),
(538,44,o),
(370,44,cs),
(256,44,o),
(195,131,o),
(195,300,cs),
(195,540,o),
(331,728,o),
(505,728,cs)
);
}
);
width = 820;
}
);
unicode = 79;
},
{
color = 4;
glyphname = Oopen;
lastChange = "2025-08-10 23:49:55 +0000";
layers = (
{
anchors = (
{
name = bottom;
pos = (251,0);
},
{
name = top;
pos = (486,824);
}
);
background = {
anchors = (
{
name = bottom;
pos = (251,0);
},
{
name = ogonek;
pos = (280,0);
},
{
name = top;
pos = (486,824);
}
);
shapes = (
{
closed = 1;
nodes = (
(180,42,o),
(125,77,o),
(125,128,cs),
(125,163,o),
(149,160,o),
(149,199,cs),
(149,224,o),
(130,244,o),
(107,244,cs),
(70,244,o),
(48,214,o),
(48,168,cs),
(48,92,o),
(122,-10,o),
(289,-10,cs),
(519,-10,o),
(723,216,o),
(723,469,cs),
(723,660,o),
(621,780,o),
(457,780,cs),
(324,780,o),
(231,723,o),
(131,581,c),
(167,557,l),
(244,668,o),
(325,718,o),
(429,718,cs),
(543,718,o),
(602,634,o),
(602,470,cs),
(602,230,o),
(465,42,o),
(282,42,cs)
);
}
);
};
layerId = m001;
shapes = (
{
closed = 1;
nodes = (
(180,42,o),
(125,77,o),
(125,128,cs),
(125,163,o),
(149,160,o),
(149,199,cs),
(149,224,o),
(130,244,o),
(107,244,cs),
(70,244,o),
(48,214,o),
(48,168,cs),
(48,92,o),
(122,-10,o),
(289,-10,cs),
(519,-10,o),
(723,216,o),
(723,469,cs),
(723,660,o),
(621,780,o),
(457,780,cs),
(324,780,o),
(231,723,o),
(131,581,c),
(167,557,l),
(244,668,o),
(325,718,o),
(429,718,cs),
(543,718,o),
(602,634,o),
(602,470,cs),
(602,230,o),
(465,42,o),
(282,42,cs)
);
}
);
width = 731;
},
{
anchors = (
{
name = bottom;
pos = (222,0);
},
{
name = top;
pos = (457,824);
}
);
background = {
anchors = (
{
name = bottom;
pos = (222,0);
},
{
name = ogonek;
pos = (251,0);
},
{
name = top;
pos = (457,824);
}
);
shapes = (
{
closed = 1;
nodes = (
(151,42,o),
(96,77,o),
(96,128,cs),
(96,163,o),
(120,160,o),
(120,199,cs),
(120,224,o),
(101,244,o),
(78,244,cs),
(41,244,o),
(19,214,o),
(19,168,cs),
(19,92,o),
(93,-10,o),
(260,-10,cs),
(490,-10,o),
(694,216,o),
(694,469,cs),
(694,660,o),
(592,780,o),
(428,780,cs),
(295,780,o),
(202,723,o),
(102,581,c),
(138,557,l),
(215,668,o),
(296,718,o),
(400,718,cs),
(514,718,o),
(573,634,o),
(573,470,cs),
(573,230,o),
(436,42,o),
(253,42,cs)
);
}
);
};
layerId = m002;
shapes = (
{
closed = 1;
nodes = (
(156,52,o),
(96,83,o),
(96,130,cs),
(96,163,o),
(125,170,o),
(125,205,cs),
(125,234,o),
(105,254,o),
(77,254,cs),
(37,254,o),
(9,218,o),
(9,168,cs),
(9,88,o),
(86,-10,o),
(259,-10,cs),
(513,-10,o),
(738,216,o),
(738,470,cs),
(738,660,o),
(619,780,o),
(429,780,cs),
(299,780,o),
(202,720,o),
(102,571,c),
(138,547,l),
(211,654,o),
(296,708,o),
(396,708,cs),
(514,708,o),
(573,630,o),
(573,470,cs),
(573,227,o),
(436,52,o),
(239,52,cs)
);
}
);
width = 750;
}
);
unicode = 390;
},
{
color = 4;
glyphname = Oslash;
kernLeft = KERN_O_2ND;
kernRight = KERN_O_1ST;
lastChange = "2025-08-05 14:50:55 +0000";
layers = (
{
anchors = (
{
name = top;
pos = (550,830);
}
);
layerId = m001;
shapes = (
{
closed = 1;
nodes = (
(115,-62,l),
(818,828,l),
(749,828,l),
(47,-62,l)
);
},
{
ref = O;
}
);
width = 820;
},
{
anchors = (
{
name = top;
pos = (550,830);
}
);
layerId = m002;
shapes = (
{
closed = 1;
nodes = (
(115,-62,l),
(818,828,l),
(749,828,l),
(47,-62,l)
);
},
{
ref = O;
}
);
width = 820;
}
);
unicode = 216;
},
{
color = 4;
glyphname = Oslashacute;
kernLeft = KERN_O_2ND;
kernRight = KERN_O_1ST;
lastChange = "2025-08-05 14:50:55 +0000";
layers = (
{
layerId = m001;
shapes = (
{
closed = 1;
nodes = (
(115,-62,l),
(818,828,l),
(749,828,l),
(47,-62,l)
);
},
{
ref = Oacute;
}
);
width = 820;
},
{
layerId = m002;
shapes = (
{
closed = 1;
nodes = (
(115,-62,l),
(818,828,l),
(749,828,l),
(47,-62,l)
);
},
{
ref = Oacute;
}
);
width = 820;
}
);
unicode = 510;
},
{
color = 4;
glyphname = OE;
kernLeft = KERN_O_2ND;
kernRight = KERN_E_1ST;
lastChange = "2025-06-17 00:06:57 +0000";
layers = (
{
background = {
shapes = (
{
closed = 1;
nodes = (
(329,770,o),
(68,555,o),
(68,299,cs),
(68,127,o),
(198,0,o),
(401,0,cs),
(1015,0,l),
(1093,211,l),
(1046,211,l),
(993,93,o),
(934,43,o),
(793,43,cs),
(691,43,o),
(648,60,o),
(647,113,cs),
(647,125,o),
(648,140,o),
(652,157,cs),
(707,387,l),
(828,386,o),
(851,371,o),
(851,302,cs),
(851,286,o),
(850,268,o),
(849,247,c),
(889,247,l),
(949,542,l),
(911,542,l),
(873,442,o),
(839,427,o),
(716,427,c),
(784,710,l),
(784,720,o),
(792,727,o),
(803,727,cs),
(884,727,ls),
(1008,727,o),
(1050,700,o),
(1086,568,c),
(1124,568,l),
(1124,770,l),
(585,770,ls)
);
},
{
closed = 1;
nodes = (
(639,730,o),
(665,719,o),
(665,674,cs),
(665,660,o),
(661,641,o),
(657,618,c),
(546,152,ls),
(524,58,o),
(509,42,o),
(415,42,cs),
(275,42,o),
(192,125,o),
(192,263,cs),
(192,298,o),
(197,334,o),
(207,376,cs),
(257,595,o),
(398,730,o),
(575,730,cs)
);
}
);
};
layerId = m001;
shapes = (
{
closed = 1;
nodes = (
(1015,0,l),
(1093,211,l),
(1046,211,l),
(993,93,o),
(937,43,o),
(785,43,cs),
(694,43,o),
(648,60,o),
(647,113,cs),
(647,125,o),
(648,140,o),
(652,157,cs),
(707,387,l),
(761,387,ls),
(835,387,o),
(851,359,o),
(851,302,cs),
(851,286,o),
(850,268,o),
(849,247,c),
(889,247,l),
(949,542,l),
(911,542,l),
(879,459,o),
(852,429,o),
(772,428,cs),
(716,427,l),
(788,727,l),
(884,727,ls),
(1008,727,o),
(1050,700,o),
(1086,568,c),
(1124,568,l),
(1124,770,l),
(585,770,ls),
(330,770,o),
(68,555,o),
(68,300,cs),
(68,126,o),
(199,0,o),
(401,0,cs)
);
},
{
closed = 1;
nodes = (
(275,42,o),
(192,120,o),
(192,263,cs),
(192,432,o),
(305,730,o),
(580,730,cs),
(639,730,o),
(665,717,o),
(665,674,cs),
(665,660,o),
(662,641,o),
(657,618,cs),
(546,152,ls),
(525,63,o),
(509,42,o),
(428,42,cs)
);
}
);
width = 1158;
},
{
background = {
shapes = (
{
closed = 1;
nodes = (
(321,770,o),
(60,555,o),
(60,299,cs),
(60,127,o),
(190,0,o),
(393,0,cs),
(1007,0,l),
(1085,211,l),
(1038,211,l),
(985,93,o),
(926,43,o),
(785,43,cs),
(683,43,o),
(640,60,o),
(639,113,cs),
(639,125,o),
(640,140,o),
(644,157,cs),
(699,387,l),
(820,386,o),
(843,371,o),
(843,302,cs),
(843,286,o),
(842,268,o),
(841,247,c),
(881,247,l),
(941,542,l),
(903,542,l),
(865,442,o),
(831,427,o),
(708,427,c),
(776,710,l),
(776,720,o),
(784,727,o),
(795,727,cs),
(876,727,ls),
(1000,727,o),
(1042,700,o),
(1078,568,c),
(1116,568,l),
(1116,770,l),
(577,770,ls)
);
},
{
closed = 1;
nodes = (
(631,730,o),
(657,719,o),
(657,674,cs),
(657,660,o),
(653,641,o),
(649,618,c),
(538,152,ls),
(516,58,o),
(501,42,o),
(407,42,cs),
(267,42,o),
(184,125,o),
(184,263,cs),
(184,298,o),
(189,334,o),
(199,376,cs),
(249,595,o),
(390,730,o),
(567,730,cs)
);
}
);
};
layerId = m002;
shapes = (
{
closed = 1;
nodes = (
(1058,0,l),
(1131,229,l),
(1081,229,l),
(1024,93,o),
(972,55,o),
(831,55,cs),
(726,55,o),
(683,74,o),
(681,127,cs),
(681,139,o),
(682,153,o),
(686,169,cs),
(733,380,l),
(797,380,ls),
(854,380,o),
(883,349,o),
(883,285,cs),
(883,275,o),
(882,262,o),
(882,252,c),
(919,252,l),
(969,549,l),
(932,549,l),
(901,461,o),
(889,434,o),
(800,432,cs),
(745,431,l),
(814,717,l),
(917,717,ls),
(1026,717,o),
(1059,684,o),
(1095,564,c),
(1148,564,l),
(1139,770,l),
(543,770,ls),
(287,770,o),
(46,542,o),
(46,298,cs),
(46,117,o),
(172,0,o),
(351,0,c)
);
},
{
closed = 1;
nodes = (
(275,63,o),
(211,139,o),
(211,287,cs),
(211,524,o),
(380,715,o),
(559,715,cs),
(613,715,o),
(650,699,o),
(650,647,cs),
(650,635,o),
(649,623,o),
(644,603,cs),
(538,164,ls),
(520,89,o),
(486,63,o),
(409,63,cs)
);
}
);
width = 1164;
}
);
unicode = 338;
},
{
color = 4;
glyphname = P;
kernLeft = KERN_I_2ND;
lastChange = "2025-06-06 20:15:48 +0000";
layers = (
{
anchors = (
{
name = bottom;
pos = (125,0);
},
{
name = top;
pos = (466,830);
}
);
background = {
shapes = (
{
closed = 1;
nodes = (
(347,358,ls),
(556,358,o),
(708,459,o),
(708,598,cs),
(708,706,o),
(606,770,o),
(435,770,cs),
(157,770,l),
(146,730,l),
(227,728,o),
(250,715,o),
(250,675,cs),
(250,658,o),
(246,633,o),
(237,600,cs),
(119,159,ls),
(97,77,o),
(58,40,o),
(-6,40,c),
(-17,0,l),
(315,0,l),
(326,45,l),
(250,45,o),
(212,65,o),
(212,105,cs),
(212,122,o),
(220,160,o),
(233,207,cs),
(275,358,l)
);
},
{
closed = 1;
nodes = (
(368,709,o),
(383,725,o),
(437,725,cs),
(543,725,o),
(597,684,o),
(597,604,cs),
(597,490,o),
(488,409,o),
(337,409,cs),
(288,409,l),
(351,645,ls)
);
}
);
};
layerId = m001;
shapes = (
{
closed = 1;
nodes = (
(315,0,l),
(326,45,l),
(250,45,o),
(212,65,o),
(212,105,cs),
(212,122,o),
(220,160,o),
(233,207,cs),
(275,358,l),
(347,358,ls),
(556,358,o),
(708,459,o),
(708,598,cs),
(708,706,o),
(606,770,o),
(435,770,cs),
(157,770,l),
(146,730,l),
(227,728,o),
(250,715,o),
(250,675,cs),
(250,658,o),
(246,633,o),
(237,600,cs),
(119,159,ls),
(97,77,o),
(58,40,o),
(-6,40,c),
(-17,0,l)
);
},
{
closed = 1;
nodes = (
(351,645,ls),
(368,709,o),
(383,725,o),
(437,725,cs),
(543,725,o),
(597,684,o),
(597,604,cs),
(597,490,o),
(488,409,o),
(337,409,cs),
(288,409,l)
);
}
);
width = 667;
},
{
anchors = (
{
name = bottom;
pos = (124,0);
},
{
name = top;
pos = (485,830);
}
);
background = {
shapes = (
{
closed = 1;
nodes = (
(335,0,l),
(346,45,l),
(270,45,o),
(232,65,o),
(232,105,cs),
(232,122,o),
(240,160,o),
(253,207,cs),
(295,358,l),
(367,358,ls),
(576,358,o),
(728,459,o),
(728,598,cs),
(728,706,o),
(626,770,o),
(455,770,cs),
(177,770,l),
(166,730,l),
(247,728,o),
(270,715,o),
(270,675,cs),
(270,658,o),
(266,633,o),
(257,600,cs),
(139,159,ls),
(117,77,o),
(78,40,o),
(14,40,c),
(3,0,l)
);
},
{
closed = 1;
nodes = (
(371,645,ls),
(388,709,o),
(403,725,o),
(457,725,cs),
(563,725,o),
(617,684,o),
(617,604,cs),
(617,490,o),
(508,409,o),
(357,409,cs),
(308,409,l)
);
}
);
};
layerId = m002;
shapes = (
{
closed = 1;
nodes = (
(341,0,l),
(352,40,l),
(250,40,o),
(229,60,o),
(229,102,cs),
(229,118,o),
(232,133,o),
(239,159,cs),
(286,335,l),
(371,335,ls),
(567,335,o),
(743,424,o),
(755,591,cs),
(763,705,o),
(671,770,o),
(507,770,cs),
(161,770,l),
(151,730,l),
(205,727,o),
(227,719,o),
(227,684,cs),
(227,668,o),
(222,646,o),
(214,616,cs),
(90,154,ls),
(65,60,o),
(45,43,o),
(-45,40,c),
(-56,0,l)
);
},
{
closed = 1;
nodes = (
(377,679,ls),
(383,704,o),
(403,714,o),
(467,714,cs),
(539,714,o),
(596,699,o),
(596,612,cs),
(596,543,o),
(561,395,o),
(367,395,cs),
(302,395,l)
);
}
);
width = 704;
},
{
anchors = (
{
name = bottom;
pos = (114,0);
},
{
name = top;
pos = (475,830);
}
);
associatedMasterId = m002;
background = {
shapes = (
{
closed = 1;
nodes = (
(356,358,ls),
(565,358,o),
(717,459,o),
(717,598,cs),
(717,706,o),
(615,770,o),
(444,770,cs),
(166,770,l),
(155,730,l),
(236,728,o),
(259,715,o),
(259,675,cs),
(259,658,o),
(255,633,o),
(246,600,cs),
(128,159,ls),
(106,77,o),
(67,40,o),
(3,40,c),
(-8,0,l),
(324,0,l),
(335,45,l),
(259,45,o),
(221,65,o),
(221,105,cs),
(221,122,o),
(229,160,o),
(242,207,cs),
(284,358,l)
);
},
{
closed = 1;
nodes = (
(377,709,o),
(392,725,o),
(446,725,cs),
(552,725,o),
(606,684,o),
(606,604,cs),
(606,490,o),
(497,409,o),
(346,409,cs),
(297,409,l),
(360,645,ls)
);
}
);
};
layerId = "27C087EB-647D-4406-A877-FA36642BCBEE";
name = "28 May 25 at 10:37AM";
shapes = (
{
closed = 1;
nodes = (
(331,0,l),
(342,40,l),
(250,40,o),
(218,49,o),
(218,95,cs),
(218,111,o),
(222,132,o),
(229,159,cs),
(276,335,l),
(361,335,ls),
(561,335,o),
(746,422,o),
(755,595,cs),
(762,714,o),
(668,770,o),
(497,770,cs),
(151,770,l),
(141,730,l),
(195,727,o),
(217,719,o),
(217,684,cs),
(217,668,o),
(212,646,o),
(204,616,cs),
(80,154,ls),
(55,60,o),
(35,43,o),
(-55,40,c),
(-66,0,l)
);
},
{
closed = 1;
nodes = (
(373,697,ls),
(375,707,o),
(384,714,o),
(395,714,cs),
(472,714,ls),
(556,714,o),
(596,679,o),
(596,615,cs),
(596,544,o),
(560,395,o),
(357,395,cs),
(292,395,l)
);
}
);
width = 705;
}
);
unicode = 80;
},
{
color = 4;
glyphname = Phook;
lastChange = "2025-08-06 17:25:14 +0000";
layers = (
{
layerId = m001;
shapes = (
{
pos = (205,0);
ref = P;
},
{
closed = 1;
nodes = (
(253,454,o),
(293,488,o),
(293,529,cs),
(293,558,o),
(273,581,o),
(240,581,cs),
(207,581,o),
(203,558,o),
(175,558,cs),
(152,558,o),
(139,574,o),
(139,607,cs),
(139,702,o),
(247,730,o),
(323,730,cs),
(554,729,l),
(541,768,l),
(329,771,ls),
(189,775,o),
(79,710,o),
(79,582,cs),
(79,489,o),
(136,454,o),
(195,454,cs)
);
}
);
width = 872;
},
{
background = {
shapes = (
{
closed = 1;
nodes = (
(247,730,o),
(323,730,cs),
(554,729,l),
(541,768,l),
(329,771,ls),
(189,775,o),
(79,710,o),
(79,582,cs),
(79,489,o),
(136,454,o),
(195,454,cs),
(253,454,o),
(293,488,o),
(293,529,cs),
(293,558,o),
(273,581,o),
(240,581,cs),
(207,581,o),
(203,558,o),
(175,558,cs),
(152,558,o),
(139,574,o),
(139,607,cs),
(139,702,o)
);
}
);
};
layerId = m002;
shapes = (
{
pos = (205,0);
ref = P;
},
{
closed = 1;
nodes = (
(253,444,o),
(293,480,o),
(293,524,cs),
(293,556,o),
(273,581,o),
(240,581,cs),
(207,581,o),
(203,558,o),
(175,558,cs),
(152,558,o),
(139,574,o),
(139,607,cs),
(139,702,o),
(247,730,o),
(323,730,cs),
(554,729,l),
(541,768,l),
(329,771,ls),
(189,773,o),
(79,708,o),
(79,577,cs),
(79,480,o),
(136,444,o),
(195,444,cs)
);
}
);
width = 872;
}
);
unicode = 420;
},
{
color = 4;
glyphname = Thorn;
kernLeft = KERN_I_2ND;
lastChange = "2025-06-13 18:06:50 +0000";
layers = (
{
background = {
shapes = (
{
closed = 1;
nodes = (
(373,718,o),
(393,732,o),
(512,732,c),
(523,770,l),
(170,770,l),
(159,732,l),
(230,730,o),
(250,719,o),
(250,682,cs),
(250,667,o),
(247,647,o),
(239,618,cs),
(114,152,ls),
(89,58,o),
(68,41,o),
(-25,38,c),
(-36,0,l),
(316,0,l),
(327,38,l),
(236,38,o),
(209,50,o),
(209,93,cs),
(209,108,o),
(212,127,o),
(220,157,cs),
(225,176,l),
(315,176,ls),
(543,176,o),
(688,273,o),
(688,425,cs),
(688,539,o),
(607,596,o),
(447,596,cs),
(338,596,l),
(343,613,ls)
);
},
{
closed = 1;
nodes = (
(324,543,o),
(332,549,o),
(342,549,cs),
(434,549,ls),
(525,549,o),
(561,520,o),
(561,446,cs),
(561,312,o),
(463,226,o),
(310,226,cs),
(239,226,l),
(321,532,ls)
);
}
);
};
layerId = m001;
shapes = (
{
closed = 1;
nodes = (
(373,718,o),
(393,732,o),
(512,732,c),
(523,770,l),
(170,770,l),
(159,732,l),
(230,730,o),
(250,719,o),
(250,682,cs),
(250,667,o),
(247,647,o),
(239,618,cs),
(114,152,ls),
(89,58,o),
(68,41,o),
(-25,38,c),
(-36,0,l),
(316,0,l),
(327,38,l),
(236,38,o),
(209,50,o),
(209,93,cs),
(209,108,o),
(212,127,o),
(220,157,cs),
(225,176,l),
(315,176,ls),
(543,176,o),
(688,273,o),
(688,425,cs),
(688,539,o),
(607,596,o),
(447,596,cs),
(338,596,l),
(343,613,ls)
);
},
{
closed = 1;
nodes = (
(324,543,o),
(332,549,o),
(342,549,cs),
(434,549,ls),
(525,549,o),
(561,520,o),
(561,446,cs),
(561,312,o),
(463,226,o),
(310,226,cs),
(239,226,l),
(321,532,ls)
);
}
);
width = 705;
},
{
background = {
shapes = (
{
closed = 1;
nodes = (
(403,718,o),
(423,732,o),
(542,732,c),
(553,770,l),
(200,770,l),
(189,732,l),
(260,730,o),
(280,719,o),
(280,682,cs),
(280,667,o),
(277,647,o),
(269,618,cs),
(144,152,ls),
(119,58,o),
(98,41,o),
(5,38,c),
(-6,0,l),
(346,0,l),
(357,38,l),
(266,38,o),
(239,50,o),
(239,93,cs),
(239,108,o),
(242,127,o),
(250,157,cs),
(255,176,l),
(345,176,ls),
(573,176,o),
(718,273,o),
(718,425,cs),
(718,539,o),
(637,596,o),
(477,596,cs),
(368,596,l),
(373,613,ls)
);
},
{
closed = 1;
nodes = (
(354,543,o),
(362,549,o),
(372,549,cs),
(464,549,ls),
(555,549,o),
(591,520,o),
(591,446,cs),
(591,312,o),
(493,226,o),
(340,226,cs),
(269,226,l),
(351,532,ls)
);
}
);
};
layerId = m002;
shapes = (
{
closed = 1;
nodes = (
(403,718,o),
(423,732,o),
(542,732,c),
(553,770,l),
(160,770,l),
(149,732,l),
(220,730,o),
(240,719,o),
(240,682,cs),
(240,667,o),
(237,647,o),
(229,618,cs),
(104,152,ls),
(79,58,o),
(58,41,o),
(-35,38,c),
(-46,0,l),
(346,0,l),
(357,38,l),
(266,38,o),
(239,50,o),
(239,93,cs),
(239,108,o),
(242,127,o),
(250,157,cs),
(255,176,l),
(345,176,ls),
(591,176,o),
(748,273,o),
(748,425,cs),
(748,539,o),
(657,596,o),
(477,596,cs),
(368,596,l),
(373,613,ls)
);
},
{
closed = 1;
nodes = (
(351,533,o),
(359,539,o),
(369,539,cs),
(461,539,ls),
(545,539,o),
(581,513,o),
(581,446,cs),
(581,318,o),
(490,236,o),
(343,236,cs),
(272,236,l),
(348,522,ls)
);
}
);
width = 755;
}
);
unicode = 222;
},
{
color = 4;
glyphname = Pstroke;
lastChange = "2025-08-05 14:38:14 +0000";
layers = (
{
layerId = m001;
shapes = (
{
ref = P;
},
{
closed = 1;
nodes = (
(452,596,l),
(144,596,l),
(128,542,l),
(436,542,l)
);
}
);
width = 667;
},
{
layerId = m002;
shapes = (
{
ref = P;
},
{
closed = 1;
nodes = (
(456,590,l),
(124,590,l),
(108,536,l),
(440,536,l)
);
}
);
width = 667;
}
);
unicode = 11363;
},
{
color = 4;
glyphname = Q;
kernRight = KERN_O_1ST;
lastChange = "2025-05-31 15:54:50 +0000";
layers = (
{
layerId = m001;
shapes = (
{
closed = 1;
nodes = (
(278,780,o),
(74,558,o),
(74,304,cs),
(74,119,o),
(181,-3,o),
(347,-10,c),
(155,-91,ls),
(84,-121,o),
(62,-142,o),
(62,-176,cs),
(62,-207,o),
(81,-226,o),
(113,-226,cs),
(186,-226,o),
(185,-129,o),
(258,-129,cs),
(342,-129,o),
(414,-260,o),
(565,-260,cs),
(677,-260,o),
(767,-188,o),
(791,-79,c),
(758,-64,l),
(738,-133,o),
(681,-168,o),
(614,-168,cs),
(507,-168,o),
(456,-77,o),
(344,-77,c),
(342,-74,l),
(559,44,ls),
(699,120,o),
(798,287,o),
(798,467,cs),
(798,658,o),
(687,780,o),
(513,780,cs)
);
},
{
closed = 1;
nodes = (
(625,728,o),
(677,654,o),
(677,494,cs),
(677,241,o),
(548,52,o),
(375,52,cs),
(258,52,o),
(195,139,o),
(195,301,cs),
(195,541,o),
(335,728,o),
(513,728,cs)
);
}
);
width = 834;
},
{
background = {
shapes = (
{
closed = 1;
nodes = (
(277,780,o),
(73,558,o),
(73,304,cs),
(73,119,o),
(180,-3,o),
(346,-10,c),
(154,-91,ls),
(83,-121,o),
(61,-142,o),
(61,-176,cs),
(61,-207,o),
(80,-226,o),
(112,-226,cs),
(185,-226,o),
(184,-129,o),
(257,-129,cs),
(341,-129,o),
(413,-260,o),
(564,-260,cs),
(676,-260,o),
(766,-188,o),
(790,-79,c),
(757,-64,l),
(737,-133,o),
(680,-168,o),
(613,-168,cs),
(506,-168,o),
(455,-77,o),
(343,-77,c),
(341,-74,l),
(558,44,ls),
(698,120,o),
(797,287,o),
(797,467,cs),
(797,658,o),
(686,780,o),
(512,780,cs)
);
},
{
closed = 1;
nodes = (
(624,728,o),
(676,654,o),
(676,494,cs),
(676,241,o),
(547,52,o),
(374,52,cs),
(257,52,o),
(194,139,o),
(194,301,cs),
(194,541,o),
(334,728,o),
(512,728,cs)
);
}
);
};
layerId = m002;
shapes = (
{
closed = 1;
nodes = (
(267,780,o),
(51,558,o),
(51,304,cs),
(51,119,o),
(169,-3,o),
(346,-10,c),
(154,-91,ls),
(76,-124,o),
(51,-142,o),
(51,-177,cs),
(51,-213,o),
(75,-236,o),
(112,-236,cs),
(185,-236,o),
(184,-139,o),
(257,-139,cs),
(341,-139,o),
(413,-265,o),
(564,-265,cs),
(676,-265,o),
(766,-191,o),
(790,-79,c),
(750,-61,l),
(731,-125,o),
(677,-158,o),
(613,-158,cs),
(510,-158,o),
(462,-71,o),
(354,-71,c),
(352,-68,l),
(558,44,ls),
(708,126,o),
(819,287,o),
(819,467,cs),
(819,658,o),
(698,780,o),
(512,780,cs)
);
},
{
closed = 1;
nodes = (
(611,718,o),
(654,647,o),
(654,494,cs),
(654,241,o),
(535,52,o),
(376,52,cs),
(271,52,o),
(216,139,o),
(216,298,cs),
(216,534,o),
(345,718,o),
(511,718,cs)
);
}
);
width = 823;
}
);
unicode = 81;
},
{
color = 4;
glyphname = R;
kernLeft = KERN_I_2ND;
kernRight = KERN_R_1ST;
lastChange = "2025-08-10 03:16:31 +0000";
layers = (
{
anchors = (
{
name = bottom;
pos = (377,0);
},
{
name = top;
pos = (454,830);
}
);
layerId = m001;
shapes = (
{
closed = 1;
nodes = (
(315,0,l),
(326,45,l),
(250,45,o),
(212,65,o),
(212,105,cs),
(212,122,o),
(220,160,o),
(233,207,cs),
(280,375,l),
(368,375,l),
(515,0,l),
(705,0,l),
(716,40,l),
(629,40,o),
(603,68,o),
(548,204,cs),
(474,387,l),
(606,414,o),
(693,489,o),
(693,598,cs),
(693,706,o),
(595,770,o),
(435,770,cs),
(157,770,l),
(146,730,l),
(227,728,o),
(250,715,o),
(250,675,cs),
(250,658,o),
(246,633,o),
(237,600,cs),
(119,159,ls),
(97,77,o),
(58,40,o),
(-6,40,c),
(-17,0,l)
);
},
{
closed = 1;
nodes = (
(351,645,ls),
(368,709,o),
(383,725,o),
(437,725,cs),
(531,725,o),
(582,684,o),
(582,604,cs),
(582,490,o),
(482,426,o),
(342,426,cs),
(293,426,l)
);
}
);
width = 763;
},
{
anchors = (
{
name = bottom;
pos = (392,0);
},
{
name = top;
pos = (469,830);
}
);
background = {
shapes = (
{
closed = 1;
nodes = (
(383,375,l),
(530,0,l),
(720,0,l),
(731,40,l),
(644,40,o),
(618,68,o),
(563,204,cs),
(489,387,l),
(621,414,o),
(708,489,o),
(708,598,cs),
(708,706,o),
(610,770,o),
(450,770,cs),
(172,770,l),
(161,730,l),
(242,728,o),
(265,715,o),
(265,675,cs),
(265,658,o),
(261,633,o),
(252,600,cs),
(134,159,ls),
(112,77,o),
(73,40,o),
(9,40,c),
(-2,0,l),
(330,0,l),
(341,45,l),
(265,45,o),
(227,65,o),
(227,105,cs),
(227,122,o),
(235,160,o),
(248,207,cs),
(295,375,l)
);
},
{
closed = 1;
nodes = (
(383,709,o),
(398,725,o),
(452,725,cs),
(546,725,o),
(597,684,o),
(597,604,cs),
(597,490,o),
(497,426,o),
(357,426,cs),
(308,426,l),
(366,645,ls)
);
}
);
};
layerId = m002;
shapes = (
{
closed = 1;
nodes = (
(339,0,l),
(350,40,l),
(256,40,o),
(227,60,o),
(227,104,cs),
(227,119,o),
(230,137,o),
(236,159,cs),
(289,355,l),
(350,354,l),
(531,0,l),
(747,0,l),
(758,40,l),
(713,40,o),
(660,59,o),
(640,97,cs),
(498,363,l),
(633,388,o),
(737,480,o),
(737,595,cs),
(737,705,o),
(637,770,o),
(485,770,cs),
(161,770,l),
(151,730,l),
(206,727,o),
(227,719,o),
(227,684,cs),
(227,668,o),
(222,646,o),
(214,616,cs),
(90,154,ls),
(65,60,o),
(43,40,o),
(-45,40,c),
(-56,0,l)
);
},
{
closed = 1;
nodes = (
(361,624,ls),
(384,708,o),
(392,714,o),
(448,714,cs),
(531,714,o),
(579,671,o),
(579,592,cs),
(579,495,o),
(503,415,o),
(370,415,cs),
(305,415,l)
);
}
);
width = 788;
}
);
unicode = 82;
},
{
color = 4;
glyphname = Rstroke;
lastChange = "2025-08-05 14:37:21 +0000";
layers = (
{
layerId = m001;
shapes = (
{
ref = R;
},
{
closed = 1;
nodes = (
(257,426,l),
(99,426,l),
(85,376,l),
(242,376,l)
);
}
);
width = 763;
},
{
layerId = m002;
shapes = (
{
ref = R;
},
{
closed = 1;
nodes = (
(257,415,l),
(99,415,l),
(81,355,l),
(238,355,l)
);
}
);
width = 788;
}
);
unicode = 588;
},
{
color = 4;
glyphname = Rtail;
lastChange = "2025-08-10 03:22:54 +0000";
layers = (
{
anchors = (
{
name = bottom;
pos = (377,0);
},
{
name = top;
pos = (454,830);
}
);
background = {
anchors = (
{
name = bottom;
pos = (377,0);
},
{
name = top;
pos = (454,830);
}
);
shapes = (
{
closed = 1;
nodes = (
(368,709,o),
(383,725,o),
(437,725,cs),
(531,725,o),
(582,684,o),
(582,604,cs),
(582,490,o),
(482,426,o),
(342,426,cs),
(293,426,l),
(351,645,ls)
);
},
{
closed = 1;
nodes = (
(52,-90,o),
(47,-116,o),
(47,-136,cs),
(47,-218,o),
(115,-260,o),
(208,-260,cs),
(325,-260,o),
(422,-193,o),
(422,-114,cs),
(422,-66,o),
(387,-36,o),
(351,-36,cs),
(324,-36,o),
(294,-53,o),
(294,-84,cs),
(294,-108,o),
(311,-122,o),
(311,-149,cs),
(311,-190,o),
(274,-207,o),
(221,-207,cs),
(166,-207,o),
(148,-188,o),
(148,-144,cs),
(148,-116,o),
(155,-76,o),
(168,-28,cs),
(280,375,l),
(368,375,l),
(515,0,l),
(705,0,l),
(716,40,l),
(629,40,o),
(603,68,o),
(548,204,cs),
(474,387,l),
(606,414,o),
(693,489,o),
(693,598,cs),
(693,706,o),
(595,770,o),
(435,770,cs),
(157,770,l),
(146,730,l),
(227,728,o),
(250,715,o),
(250,675,cs),
(250,658,o),
(246,633,o),
(237,600,cs),
(59,-64,ls)
);
}
);
};
layerId = m001;
shapes = (
{
closed = 1;
nodes = (
(325,-260,o),
(422,-193,o),
(422,-114,cs),
(422,-66,o),
(387,-36,o),
(351,-36,cs),
(324,-36,o),
(294,-53,o),
(294,-84,cs),
(294,-108,o),
(311,-122,o),
(311,-149,cs),
(311,-190,o),
(274,-207,o),
(221,-207,cs),
(166,-207,o),
(148,-188,o),
(148,-144,cs),
(148,-116,o),
(155,-76,o),
(168,-28,cs),
(280,375,l),
(368,375,l),
(515,0,l),
(705,0,l),
(716,40,l),
(629,40,o),
(603,68,o),
(548,204,cs),
(474,387,l),
(606,414,o),
(693,489,o),
(693,598,cs),
(693,706,o),
(595,770,o),
(435,770,cs),
(157,770,l),
(146,730,l),
(227,728,o),
(250,715,o),
(250,675,cs),
(250,658,o),
(246,633,o),
(237,600,cs),
(59,-64,ls),
(52,-90,o),
(47,-116,o),
(47,-136,cs),
(47,-218,o),
(115,-260,o),
(208,-260,cs)
);
},
{
closed = 1;
nodes = (
(351,645,ls),
(368,709,o),
(383,725,o),
(437,725,cs),
(531,725,o),
(582,684,o),
(582,604,cs),
(582,490,o),
(482,426,o),
(342,426,cs),
(293,426,l)
);
}
);
width = 763;
},
{
anchors = (
{
name = bottom;
pos = (392,0);
},
{
name = top;
pos = (469,830);
}
);
background = {
anchors = (
{
name = bottom;
pos = (377,0);
},
{
name = top;
pos = (454,830);
}
);
shapes = (
{
closed = 1;
nodes = (
(384,709,o),
(399,725,o),
(453,725,cs),
(547,725,o),
(598,684,o),
(598,604,cs),
(598,490,o),
(498,426,o),
(358,426,cs),
(309,426,l),
(367,645,ls)
);
},
{
closed = 1;
nodes = (
(68,-90,o),
(63,-116,o),
(63,-136,cs),
(63,-218,o),
(131,-260,o),
(224,-260,cs),
(341,-260,o),
(438,-193,o),
(438,-114,cs),
(438,-66,o),
(403,-36,o),
(367,-36,cs),
(340,-36,o),
(310,-53,o),
(310,-84,cs),
(310,-108,o),
(327,-122,o),
(327,-149,cs),
(327,-190,o),
(290,-207,o),
(237,-207,cs),
(182,-207,o),
(164,-188,o),
(164,-144,cs),
(164,-116,o),
(171,-76,o),
(184,-28,cs),
(296,375,l),
(384,375,l),
(531,0,l),
(721,0,l),
(732,40,l),
(645,40,o),
(619,68,o),
(564,204,cs),
(490,387,l),
(622,414,o),
(709,489,o),
(709,598,cs),
(709,706,o),
(611,770,o),
(451,770,cs),
(173,770,l),
(162,730,l),
(243,728,o),
(266,715,o),
(266,675,cs),
(266,658,o),
(262,633,o),
(253,600,cs),
(75,-64,ls)
);
}
);
};
layerId = m002;
shapes = (
{
closed = 1;
nodes = (
(352,-260,o),
(439,-194,o),
(439,-114,cs),
(439,-66,o),
(405,-36,o),
(366,-36,cs),
(336,-36,o),
(301,-53,o),
(301,-84,cs),
(301,-108,o),
(318,-122,o),
(318,-149,cs),
(318,-190,o),
(283,-207,o),
(233,-207,cs),
(182,-207,o),
(165,-188,o),
(165,-144,cs),
(165,-116,o),
(172,-76,o),
(185,-28,cs),
(289,355,l),
(350,354,l),
(531,0,l),
(747,0,l),
(758,40,l),
(713,40,o),
(660,59,o),
(640,97,cs),
(498,363,l),
(633,388,o),
(737,480,o),
(737,595,cs),
(737,705,o),
(637,770,o),
(485,770,cs),
(161,770,l),
(151,730,l),
(206,727,o),
(227,719,o),
(227,684,cs),
(227,668,o),
(222,646,o),
(214,616,cs),
(41,-27,ls),
(30,-68,o),
(24,-104,o),
(24,-131,cs),
(24,-218,o),
(91,-260,o),
(208,-260,cs)
);
},
{
closed = 1;
nodes = (
(361,624,ls),
(382,702,o),
(392,714,o),
(441,714,cs),
(530,714,o),
(579,674,o),
(579,593,cs),
(579,494,o),
(502,415,o),
(370,415,cs),
(305,415,l)
);
}
);
width = 788;
}
);
unicode = 11364;
},
{
color = 4;
glyphname = S;
kernLeft = KERN_S;
kernRight = KERN_S;
lastChange = "2025-06-16 23:21:39 +0000";
layers = (
{
anchors = (
{
name = bottom;
pos = (259,0);
},
{
name = top;
pos = (424,830);
}
);
layerId = m001;
shapes = (
{
closed = 1;
nodes = (
(492,759,o),
(444,780,o),
(382,780,cs),
(251,780,o),
(146,687,o),
(146,572,cs),
(146,387,o),
(428,349,o),
(428,182,cs),
(428,102,o),
(359,43,o),
(264,43,cs),
(161,43,o),
(100,117,o),
(91,254,c),
(58,254,l),
(16,0,l),
(51,0,l),
(72,76,l),
(127,18,o),
(189,-10,o),
(263,-10,cs),
(404,-10,o),
(517,99,o),
(517,234,cs),
(517,439,o),
(244,468,o),
(244,612,cs),
(244,680,o),
(303,729,o),
(385,729,cs),
(470,729,o),
(508,678,o),
(512,558,c),
(546,558,l),
(588,755,l),
(558,755,l),
(538,713,l)
);
}
);
width = 598;
},
{
anchors = (
{
name = bottom;
pos = (277,0);
},
{
name = top;
pos = (442,830);
}
);
background = {
anchors = (
{
name = bottom;
pos = (257,0);
},
{
name = top;
pos = (422,830);
}
);
shapes = (
{
closed = 1;
nodes = (
(517,759,o),
(474,780,o),
(402,780,cs),
(242,780,o),
(144,690,o),
(144,577,cs),
(144,390,o),
(424,354,o),
(424,186,cs),
(424,110,o),
(375,59,o),
(297,53,cs),
(184,45,o),
(112,123,o),
(100,265,c),
(63,265,l),
(14,0,l),
(59,0,l),
(80,76,l),
(138,18,o),
(194,-10,o),
(277,-10,cs),
(436,-10,o),
(557,99,o),
(557,233,cs),
(557,437,o),
(286,463,o),
(286,609,cs),
(286,670,o),
(326,721,o),
(400,721,cs),
(489,721,o),
(534,669,o),
(539,549,c),
(584,549,l),
(628,755,l),
(588,755,l),
(568,713,l)
);
}
);
};
layerId = m002;
shapes = (
{
closed = 1;
nodes = (
(510,759,o),
(470,780,o),
(402,780,cs),
(242,780,o),
(144,690,o),
(144,577,cs),
(144,390,o),
(424,354,o),
(424,186,cs),
(424,110,o),
(375,59,o),
(297,53,cs),
(184,45,o),
(112,123,o),
(100,265,c),
(63,265,l),
(14,0,l),
(63,0,l),
(84,76,l),
(140,18,o),
(196,-10,o),
(277,-10,cs),
(436,-10,o),
(557,99,o),
(557,233,cs),
(557,437,o),
(286,463,o),
(286,609,cs),
(286,670,o),
(326,721,o),
(400,721,cs),
(489,721,o),
(534,669,o),
(539,549,c),
(584,549,l),
(628,755,l),
(578,755,l),
(558,713,l)
);
}
);
width = 606;
},
{
anchors = (
{
name = bottom;
pos = (277,0);
},
{
name = top;
pos = (442,830);
}
);
associatedMasterId = m002;
background = {
anchors = (
{
name = bottom;
pos = (257,0);
},
{
name = top;
pos = (422,830);
}
);
shapes = (
{
closed = 1;
nodes = (
(502,759,o),
(454,780,o),
(392,780,cs),
(261,780,o),
(156,687,o),
(156,572,cs),
(156,387,o),
(438,349,o),
(438,182,cs),
(438,102,o),
(369,43,o),
(274,43,cs),
(171,43,o),
(110,117,o),
(101,254,c),
(68,254,l),
(26,0,l),
(61,0,l),
(82,76,l),
(137,18,o),
(199,-10,o),
(273,-10,cs),
(414,-10,o),
(527,99,o),
(527,234,cs),
(527,439,o),
(254,468,o),
(254,612,cs),
(254,680,o),
(313,729,o),
(395,729,cs),
(480,729,o),
(518,678,o),
(522,558,c),
(556,558,l),
(598,755,l),
(568,755,l),
(548,713,l)
);
}
);
};
layerId = "924342C3-689D-483D-A4A0-1247325B2413";
name = "7 Jun 25 at 10:20PM";
shapes = (
{
closed = 1;
nodes = (
(517,759,o),
(474,780,o),
(402,780,cs),
(242,780,o),
(144,690,o),
(144,577,cs),
(144,390,o),
(424,354,o),
(424,186,cs),
(424,110,o),
(375,59,o),
(297,53,cs),
(184,45,o),
(112,123,o),
(100,265,c),
(63,265,l),
(14,0,l),
(59,0,l),
(80,76,l),
(138,18,o),
(194,-10,o),
(277,-10,cs),
(436,-10,o),
(557,99,o),
(557,233,cs),
(557,437,o),
(286,463,o),
(286,609,cs),
(286,670,o),
(326,721,o),
(400,721,cs),
(489,721,o),
(534,669,o),
(539,549,c),
(584,549,l),
(628,755,l),
(588,755,l),
(568,713,l)
);
}
);
width = 606;
},
{
anchors = (
{
name = bottom;
pos = (277,0);
},
{
name = top;
pos = (442,830);
}
);
associatedMasterId = m002;
background = {
anchors = (
{
name = bottom;
pos = (257,0);
},
{
name = top;
pos = (422,830);
}
);
shapes = (
{
closed = 1;
nodes = (
(490,759,o),
(442,780,o),
(380,780,cs),
(249,780,o),
(144,687,o),
(144,572,cs),
(144,387,o),
(426,349,o),
(426,182,cs),
(426,102,o),
(357,43,o),
(262,43,cs),
(159,43,o),
(98,117,o),
(89,254,c),
(56,254,l),
(14,0,l),
(49,0,l),
(70,76,l),
(125,18,o),
(187,-10,o),
(261,-10,cs),
(402,-10,o),
(515,99,o),
(515,234,cs),
(515,439,o),
(242,468,o),
(242,612,cs),
(242,680,o),
(301,729,o),
(383,729,cs),
(468,729,o),
(506,678,o),
(510,558,c),
(544,558,l),
(586,755,l),
(556,755,l),
(536,713,l)
);
},
{
closed = 0;
nodes = (
(586,558,l),
(628,755,l)
);
}
);
};
layerId = "94A1862A-72C9-439D-A8F2-E94B221CA83D";
name = "30 May 25 at 8:21PM";
shapes = (
{
closed = 1;
nodes = (
(517,760,o),
(474,780,o),
(402,780,cs),
(242,780,o),
(144,687,o),
(144,574,cs),
(144,387,o),
(424,354,o),
(424,186,cs),
(424,110,o),
(370,59,o),
(286,53,cs),
(176,45,o),
(106,123,o),
(98,265,c),
(61,265,l),
(14,0,l),
(59,0,l),
(80,76,l),
(138,18,o),
(194,-10,o),
(277,-10,cs),
(436,-10,o),
(557,99,o),
(557,234,cs),
(557,437,o),
(286,463,o),
(286,609,cs),
(286,670,o),
(331,720,o),
(411,720,cs),
(494,720,o),
(534,669,o),
(539,549,c),
(584,549,l),
(628,755,l),
(588,755,l),
(568,713,l)
);
}
);
width = 606;
}
);
unicode = 83;
},
{
color = 4;
glyphname = Germandbls;
lastChange = "2025-08-10 23:54:39 +0000";
layers = (
{
background = {
shapes = (
{
closed = 1;
nodes = (
(171,0,l),
(306,504,ls),
(347,657,o),
(425,729,o),
(573,729,cs),
(640,729,o),
(694,713,o),
(740,689,c),
(509,409,l),
(591,408,o),
(665,376,o),
(665,278,cs),
(665,171,o),
(591,41,o),
(485,41,cs),
(394,41,o),
(341,122,o),
(356,225,c),
(319,225,l),
(262,11,l),
(297,11,l),
(338,60,l),
(376,12,o),
(414,-10,o),
(484,-10,cs),
(655,-10,o),
(795,123,o),
(795,275,cs),
(795,382,o),
(704,423,o),
(643,424,c),
(870,699,l),
(770,765,o),
(668,780,o),
(585,780,cs),
(398,780,o),
(254,701,o),
(199,496,cs),
(129,235,ls),
(103,138,o),
(88,85,o),
(58,60,cs),
(39,44,o),
(13,38,o),
(-35,38,c),
(-45,0,l)
);
}
);
};
layerId = m001;
shapes = (
{
closed = 1;
nodes = (
(171,0,l),
(306,504,ls),
(347,657,o),
(425,729,o),
(573,729,cs),
(640,729,o),
(694,713,o),
(740,689,c),
(509,409,l),
(591,408,o),
(665,376,o),
(665,278,cs),
(665,171,o),
(591,41,o),
(485,41,cs),
(394,41,o),
(341,122,o),
(356,225,c),
(319,225,l),
(262,11,l),
(297,11,l),
(338,60,l),
(376,12,o),
(414,-10,o),
(484,-10,cs),
(655,-10,o),
(795,123,o),
(795,275,cs),
(795,382,o),
(704,423,o),
(643,424,c),
(870,699,l),
(770,765,o),
(668,780,o),
(585,780,cs),
(398,780,o),
(254,701,o),
(199,496,cs),
(129,235,ls),
(103,138,o),
(88,85,o),
(58,60,cs),
(39,44,o),
(13,38,o),
(-35,38,c),
(-45,0,l)
);
}
);
width = 855;
},
{
background = {
shapes = (
{
closed = 1;
nodes = (
(195,0,l),
(330,504,ls),
(371,657,o),
(449,729,o),
(597,729,cs),
(664,729,o),
(718,713,o),
(764,689,c),
(533,409,l),
(615,408,o),
(689,376,o),
(689,278,cs),
(689,171,o),
(615,41,o),
(509,41,cs),
(418,41,o),
(365,122,o),
(380,225,c),
(343,225,l),
(286,11,l),
(321,11,l),
(362,60,l),
(400,12,o),
(438,-10,o),
(508,-10,cs),
(679,-10,o),
(819,123,o),
(819,275,cs),
(819,382,o),
(728,423,o),
(667,424,c),
(894,699,l),
(794,765,o),
(692,780,o),
(609,780,cs),
(422,780,o),
(278,701,o),
(223,496,cs),
(153,235,ls),
(127,138,o),
(112,85,o),
(82,60,cs),
(63,44,o),
(37,38,o),
(-11,38,c),
(-21,0,l)
);
}
);
};
layerId = m002;
shapes = (
{
closed = 1;
nodes = (
(195,0,l),
(330,504,ls),
(369,651,o),
(449,719,o),
(597,719,cs),
(660,719,o),
(710,707,o),
(753,689,c),
(523,409,l),
(609,407,o),
(679,376,o),
(679,276,cs),
(679,176,o),
(613,51,o),
(510,51,cs),
(426,51,o),
(376,129,o),
(388,235,c),
(345,235,l),
(286,11,l),
(327,11,l),
(362,60,l),
(395,17,o),
(448,-10,o),
(529,-10,cs),
(711,-10,o),
(853,130,o),
(853,273,cs),
(853,382,o),
(765,422,o),
(701,424,c),
(915,685,l),
(810,762,o),
(697,780,o),
(603,780,cs),
(404,780,o),
(234,703,o),
(179,497,cs),
(109,235,ls),
(83,137,o),
(68,85,o),
(38,60,cs),
(19,44,o),
(-7,38,o),
(-55,38,c),
(-65,0,l)
);
}
);
width = 879;
}
);
unicode = 7838;
},
{
color = 4;
glyphname = T;
kernLeft = KERN_T;
kernRight = KERN_T;
lastChange = "2025-05-29 04:22:37 +0000";
layers = (
{
anchors = (
{
name = bottom;
pos = (311,0);
},
{
name = top;
pos = (528,830);
}
);
layerId = m001;
shapes = (
{
closed = 1;
nodes = (
(494,0,l),
(506,40,l),
(421,40,o),
(391,56,o),
(391,97,cs),
(391,117,o),
(399,138,o),
(407,168,cs),
(525,611,ls),
(550,705,o),
(576,728,o),
(643,728,cs),
(735,728,o),
(783,685,o),
(783,557,c),
(821,557,l),
(841,770,l),
(173,770,l),
(78,557,l),
(118,557,l),
(170,659,o),
(261,728,o),
(371,728,cs),
(408,728,o),
(433,720,o),
(433,674,cs),
(433,658,o),
(430,638,o),
(424,614,cs),
(302,158,ls),
(274,54,o),
(236,40,o),
(157,40,c),
(146,0,l)
);
}
);
width = 780;
},
{
anchors = (
{
name = bottom;
pos = (315,0);
},
{
name = top;
pos = (532,830);
}
);
background = {
shapes = (
{
closed = 1;
nodes = (
(554,706,o),
(580,728,o),
(646,728,cs),
(739,728,o),
(787,685,o),
(787,557,c),
(825,557,l),
(845,770,l),
(177,770,l),
(82,557,l),
(122,557,l),
(179,665,o),
(265,728,o),
(382,728,cs),
(420,728,o),
(437,712,o),
(437,674,cs),
(437,658,o),
(434,638,o),
(428,614,cs),
(306,158,ls),
(278,54,o),
(240,40,o),
(161,40,c),
(150,0,l),
(498,0,l),
(510,40,l),
(426,40,o),
(395,55,o),
(395,98,cs),
(395,116,o),
(403,138,o),
(411,168,cs),
(529,610,ls)
);
}
);
};
layerId = m002;
shapes = (
{
closed = 1;
nodes = (
(523,0,l),
(534,40,l),
(449,43,o),
(422,61,o),
(422,103,cs),
(422,120,o),
(426,139,o),
(432,163,cs),
(558,632,ls),
(577,702,o),
(595,718,o),
(681,718,cs),
(751,718,o),
(785,682,o),
(787,550,c),
(840,550,l),
(869,770,l),
(166,770,l),
(77,550,l),
(126,550,l),
(204,682,o),
(278,718,o),
(359,718,cs),
(397,718,o),
(416,704,o),
(416,670,cs),
(416,659,o),
(414,647,o),
(410,632,cs),
(285,163,ls),
(262,77,o),
(235,44,o),
(115,40,c),
(104,0,l)
);
}
);
width = 797;
},
{
anchors = (
{
name = bottom;
pos = (314,0);
},
{
name = top;
pos = (531,830);
}
);
associatedMasterId = m002;
background = {
shapes = (
{
closed = 1;
nodes = (
(553,706,o),
(579,728,o),
(645,728,cs),
(738,728,o),
(786,685,o),
(786,557,c),
(824,557,l),
(844,770,l),
(176,770,l),
(81,557,l),
(121,557,l),
(178,665,o),
(264,728,o),
(381,728,cs),
(419,728,o),
(436,712,o),
(436,674,cs),
(436,658,o),
(433,638,o),
(427,614,cs),
(305,158,ls),
(277,54,o),
(239,40,o),
(160,40,c),
(149,0,l),
(497,0,l),
(509,40,l),
(425,40,o),
(394,55,o),
(394,98,cs),
(394,116,o),
(402,138,o),
(410,168,cs),
(528,610,ls)
);
}
);
};
layerId = "CBCC3A54-DC66-4E3E-B805-F3F03CD633FC";
name = "29 May 25 at 1:14AM";
shapes = (
{
closed = 1;
nodes = (
(160,770,l),
(71,550,l),
(120,550,l),
(188,712,o),
(262,718,o),
(329,718,cs),
(418,718,o),
(430,711,o),
(424,687,cs),
(284,163,ls),
(261,77,o),
(234,44,o),
(114,40,c),
(103,0,l),
(522,0,l),
(533,40,l),
(416,44,o),
(408,77,o),
(431,163,cs),
(571,687,ls),
(578,711,o),
(594,718,o),
(698,718,cs),
(765,718,o),
(799,682,o),
(791,550,c),
(844,550,l),
(873,770,l)
);
}
);
width = 800;
}
);
unicode = 84;
},
{
color = 4;
glyphname = Tbar;
kernLeft = KERN_T;
kernRight = KERN_T;
lastChange = "2025-08-05 14:51:06 +0000";
layers = (
{
layerId = m001;
shapes = (
{
closed = 1;
nodes = (
(757,449,l),
(123,449,l),
(110,399,l),
(744,399,l)
);
},
{
pos = (4,0);
ref = T;
}
);
width = 797;
},
{
layerId = m002;
shapes = (
{
closed = 1;
nodes = (
(757,449,l),
(123,449,l),
(110,399,l),
(744,399,l)
);
},
{
pos = (4,0);
ref = T;
}
);
width = 797;
}
);
unicode = 358;
},
{
color = 4;
glyphname = Tdiagonalstroke;
lastChange = "2025-08-05 14:51:45 +0000";
layers = (
{
layerId = m001;
shapes = (
{
ref = T;
},
{
closed = 1;
nodes = (
(22,-80,l),
(92,-80,l),
(828,820,l),
(758,820,l)
);
}
);
width = 780;
},
{
layerId = m002;
shapes = (
{
ref = T;
},
{
closed = 1;
nodes = (
(-8,-80,l),
(62,-80,l),
(858,820,l),
(788,820,l)
);
}
);
width = 780;
}
);
unicode = 574;
},
{
color = 4;
glyphname = Thook;
lastChange = "2025-08-06 17:27:46 +0000";
layers = (
{
anchors = (
{
name = bottom;
pos = (341,0);
},
{
name = top;
pos = (558,830);
}
);
background = {
anchors = (
{
name = bottom;
pos = (341,0);
},
{
name = top;
pos = (558,830);
}
);
shapes = (
{
closed = 1;
nodes = (
(580,706,o),
(606,728,o),
(672,728,cs),
(765,728,o),
(813,685,o),
(813,557,c),
(851,557,l),
(871,770,l),
(343,770,l),
(332,730,l),
(406,730,l),
(444,730,o),
(463,712,o),
(463,674,cs),
(463,658,o),
(460,638,o),
(454,614,cs),
(332,158,ls),
(304,54,o),
(266,40,o),
(187,40,c),
(176,0,l),
(524,0,l),
(536,40,l),
(452,40,o),
(421,55,o),
(421,98,cs),
(421,116,o),
(429,138,o),
(437,168,cs),
(555,610,ls)
);
},
{
closed = 1;
nodes = (
(247,730,o),
(323,730,cs),
(554,729,l),
(541,768,l),
(329,770,ls),
(189,771,o),
(79,710,o),
(79,582,cs),
(79,489,o),
(136,454,o),
(195,454,cs),
(253,454,o),
(293,488,o),
(293,529,cs),
(293,558,o),
(273,581,o),
(240,581,cs),
(207,581,o),
(203,558,o),
(175,558,cs),
(152,558,o),
(139,574,o),
(139,607,cs),
(139,702,o)
);
}
);
};
layerId = m001;
shapes = (
{
closed = 1;
nodes = (
(524,0,l),
(536,40,l),
(452,40,o),
(421,55,o),
(421,98,cs),
(421,116,o),
(429,138,o),
(437,168,cs),
(555,610,ls),
(580,706,o),
(606,728,o),
(672,728,cs),
(765,728,o),
(813,685,o),
(813,557,c),
(851,557,l),
(871,770,l),
(329,770,ls),
(189,771,o),
(79,710,o),
(79,582,cs),
(79,489,o),
(136,454,o),
(195,454,cs),
(253,454,o),
(293,488,o),
(293,529,cs),
(293,558,o),
(273,581,o),
(240,581,cs),
(207,581,o),
(203,558,o),
(175,558,cs),
(152,558,o),
(139,574,o),
(139,607,cs),
(139,702,o),
(247,730,o),
(323,730,cs),
(415,730,l),
(448,727,o),
(463,709,o),
(463,674,cs),
(463,658,o),
(460,638,o),
(454,614,cs),
(332,158,ls),
(304,54,o),
(266,40,o),
(187,40,c),
(176,0,l)
);
}
);
width = 810;
},
{
anchors = (
{
name = bottom;
pos = (341,0);
},
{
name = top;
pos = (558,830);
}
);
background = {
anchors = (
{
name = bottom;
pos = (341,0);
},
{
name = top;
pos = (558,830);
}
);
shapes = (
{
closed = 1;
nodes = (
(580,706,o),
(606,728,o),
(672,728,cs),
(765,728,o),
(813,685,o),
(813,557,c),
(851,557,l),
(871,770,l),
(343,770,l),
(332,730,l),
(406,730,l),
(444,730,o),
(463,712,o),
(463,674,cs),
(463,658,o),
(460,638,o),
(454,614,cs),
(332,158,ls),
(304,54,o),
(266,40,o),
(187,40,c),
(176,0,l),
(524,0,l),
(536,40,l),
(452,40,o),
(421,55,o),
(421,98,cs),
(421,116,o),
(429,138,o),
(437,168,cs),
(555,610,ls)
);
},
{
closed = 1;
nodes = (
(247,730,o),
(323,730,cs),
(554,729,l),
(541,768,l),
(329,770,ls),
(189,771,o),
(79,710,o),
(79,582,cs),
(79,489,o),
(136,454,o),
(195,454,cs),
(253,454,o),
(293,488,o),
(293,529,cs),
(293,558,o),
(273,581,o),
(240,581,cs),
(207,581,o),
(203,558,o),
(175,558,cs),
(152,558,o),
(139,574,o),
(139,607,cs),
(139,702,o)
);
}
);
};
layerId = m002;
shapes = (
{
closed = 1;
nodes = (
(548,0,l),
(559,40,l),
(474,43,o),
(447,61,o),
(447,103,cs),
(447,120,o),
(451,139,o),
(457,163,cs),
(583,632,ls),
(602,702,o),
(620,718,o),
(706,718,cs),
(776,718,o),
(810,682,o),
(812,550,c),
(865,550,l),
(894,770,l),
(330,770,ls),
(190,770,o),
(79,708,o),
(79,577,cs),
(79,480,o),
(136,444,o),
(195,444,cs),
(253,444,o),
(293,480,o),
(293,524,cs),
(293,556,o),
(273,581,o),
(240,581,cs),
(207,581,o),
(203,558,o),
(175,558,cs),
(152,558,o),
(139,574,o),
(139,607,cs),
(139,694,o),
(247,719,o),
(323,719,cs),
(384,718,ls),
(422,718,o),
(441,704,o),
(441,670,cs),
(441,659,o),
(439,647,o),
(435,632,cs),
(310,163,ls),
(287,77,o),
(260,44,o),
(140,40,c),
(129,0,l)
);
}
);
width = 810;
}
);
unicode = 428;
},
{
color = 4;
glyphname = Tretroflexhook;
lastChange = "2025-08-10 07:29:48 +0000";
layers = (
{
anchors = (
{
name = bottom;
pos = (311,0);
},
{
name = top;
pos = (528,830);
}
);
background = {
anchors = (
{
name = bottom;
pos = (311,0);
},
{
name = top;
pos = (528,830);
}
);
shapes = (
{
closed = 1;
nodes = (
(242,-64,ls),
(235,-90,o),
(231,-116,o),
(231,-136,cs),
(231,-218,o),
(299,-260,o),
(392,-260,cs),
(509,-260,o),
(606,-193,o),
(606,-114,cs),
(606,-66,o),
(571,-36,o),
(535,-36,cs),
(508,-36,o),
(478,-53,o),
(478,-84,cs),
(478,-108,o),
(495,-122,o),
(495,-149,cs),
(495,-190,o),
(458,-207,o),
(405,-207,cs),
(350,-207,o),
(332,-188,o),
(332,-144,cs),
(332,-116,o),
(339,-76,o),
(352,-28,cs),
(525,610,ls),
(551,707,o),
(576,728,o),
(641,728,cs),
(735,728,o),
(783,685,o),
(783,557,c),
(821,557,l),
(841,770,l),
(173,770,l),
(78,557,l),
(118,557,l),
(174,665,o),
(266,728,o),
(371,728,cs),
(408,728,o),
(433,720,o),
(433,675,cs),
(433,660,o),
(430,636,o),
(424,614,cs)
);
}
);
};
layerId = m001;
shapes = (
{
closed = 1;
nodes = (
(509,-260,o),
(606,-193,o),
(606,-114,cs),
(606,-66,o),
(571,-36,o),
(535,-36,cs),
(508,-36,o),
(478,-53,o),
(478,-84,cs),
(478,-108,o),
(495,-122,o),
(495,-149,cs),
(495,-190,o),
(458,-207,o),
(405,-207,cs),
(350,-207,o),
(332,-188,o),
(332,-144,cs),
(332,-116,o),
(339,-76,o),
(352,-28,cs),
(525,610,ls),
(551,707,o),
(576,728,o),
(641,728,cs),
(735,728,o),
(783,685,o),
(783,557,c),
(821,557,l),
(841,770,l),
(173,770,l),
(78,557,l),
(118,557,l),
(174,665,o),
(266,728,o),
(371,728,cs),
(408,728,o),
(433,720,o),
(433,675,cs),
(433,660,o),
(430,636,o),
(424,614,cs),
(242,-64,ls),
(235,-90,o),
(231,-116,o),
(231,-136,cs),
(231,-218,o),
(299,-260,o),
(392,-260,cs)
);
}
);
width = 780;
},
{
anchors = (
{
name = bottom;
pos = (311,0);
},
{
name = top;
pos = (528,830);
}
);
associatedMasterId = m001;
background = {
shapes = (
{
closed = 1;
nodes = (
(242,-64,ls),
(235,-91,o),
(231,-114,o),
(231,-136,cs),
(231,-219,o),
(285,-260,o),
(383,-260,cs),
(509,-260,o),
(604,-159,o),
(604,-82,cs),
(604,-53,o),
(588,-34,o),
(557,-34,cs),
(514,-34,o),
(469,-79,o),
(469,-111,cs),
(469,-127,o),
(481,-134,o),
(481,-148,cs),
(481,-182,o),
(432,-207,o),
(395,-207,cs),
(353,-207,o),
(333,-186,o),
(333,-137,cs),
(333,-110,o),
(339,-74,o),
(352,-28,cs),
(525,610,ls),
(550,706,o),
(576,728,o),
(642,728,cs),
(735,728,o),
(783,685,o),
(783,557,c),
(821,557,l),
(841,770,l),
(173,770,l),
(78,557,l),
(118,557,l),
(175,665,o),
(261,728,o),
(378,728,cs),
(416,728,o),
(433,712,o),
(433,674,cs),
(433,658,o),
(430,638,o),
(424,614,cs)
);
}
);
};
layerId = "408F93B0-5393-4301-B7FD-3350BC30715C";
name = "3 Nov 24 at 6:47PM";
shapes = (
{
closed = 1;
nodes = (
(242,-64,ls),
(235,-90,o),
(231,-116,o),
(231,-136,cs),
(231,-219,o),
(303,-260,o),
(406,-260,cs),
(508,-260,o),
(603,-220,o),
(603,-126,cs),
(603,-67,o),
(566,-28,o),
(526,-28,cs),
(494,-28,o),
(470,-52,o),
(470,-82,cs),
(470,-112,o),
(495,-119,o),
(495,-151,cs),
(495,-188,o),
(460,-207,o),
(407,-207,cs),
(352,-207,o),
(332,-186,o),
(332,-143,cs),
(332,-117,o),
(339,-76,o),
(352,-28,cs),
(525,610,ls),
(550,706,o),
(576,728,o),
(642,728,cs),
(735,728,o),
(783,685,o),
(783,557,c),
(821,557,l),
(841,770,l),
(173,770,l),
(78,557,l),
(118,557,l),
(175,665,o),
(261,728,o),
(378,728,cs),
(416,728,o),
(433,712,o),
(433,674,cs),
(433,658,o),
(430,638,o),
(424,614,cs)
);
}
);
width = 780;
},
{
anchors = (
{
name = bottom;
pos = (315,0);
},
{
name = top;
pos = (532,830);
}
);
background = {
anchors = (
{
name = bottom;
pos = (311,0);
},
{
name = top;
pos = (528,830);
}
);
shapes = (
{
closed = 1;
nodes = (
(242,-64,ls),
(235,-90,o),
(231,-116,o),
(231,-136,cs),
(231,-218,o),
(299,-260,o),
(392,-260,cs),
(509,-260,o),
(606,-193,o),
(606,-114,cs),
(606,-66,o),
(571,-36,o),
(535,-36,cs),
(508,-36,o),
(478,-53,o),
(478,-84,cs),
(478,-108,o),
(495,-122,o),
(495,-149,cs),
(495,-190,o),
(458,-207,o),
(405,-207,cs),
(350,-207,o),
(332,-188,o),
(332,-144,cs),
(332,-116,o),
(339,-76,o),
(352,-28,cs),
(525,610,ls),
(551,707,o),
(576,728,o),
(641,728,cs),
(735,728,o),
(783,685,o),
(783,557,c),
(821,557,l),
(841,770,l),
(173,770,l),
(78,557,l),
(118,557,l),
(174,665,o),
(266,728,o),
(371,728,cs),
(408,728,o),
(433,720,o),
(433,675,cs),
(433,660,o),
(430,636,o),
(424,614,cs)
);
}
);
};
layerId = m002;
shapes = (
{
closed = 1;
nodes = (
(546,-260,o),
(633,-194,o),
(633,-114,cs),
(633,-66,o),
(599,-36,o),
(560,-36,cs),
(530,-36,o),
(495,-53,o),
(495,-84,cs),
(495,-108,o),
(512,-122,o),
(512,-149,cs),
(512,-190,o),
(477,-207,o),
(427,-207,cs),
(376,-207,o),
(359,-188,o),
(359,-144,cs),
(359,-116,o),
(366,-76,o),
(379,-28,cs),
(558,632,ls),
(577,702,o),
(595,718,o),
(681,718,cs),
(751,718,o),
(785,682,o),
(787,550,c),
(840,550,l),
(869,770,l),
(166,770,l),
(77,550,l),
(126,550,l),
(204,682,o),
(278,718,o),
(359,718,cs),
(397,718,o),
(416,704,o),
(416,670,cs),
(416,659,o),
(414,647,o),
(410,632,cs),
(233,-27,ls),
(222,-68,o),
(216,-104,o),
(216,-131,cs),
(216,-218,o),
(284,-260,o),
(402,-260,cs)
);
}
);
width = 780;
},
{
anchors = (
{
name = bottom;
pos = (311,0);
},
{
name = top;
pos = (528,830);
}
);
associatedMasterId = m002;
background = {
shapes = (
{
closed = 1;
nodes = (
(242,-64,ls),
(235,-91,o),
(231,-114,o),
(231,-136,cs),
(231,-219,o),
(285,-260,o),
(383,-260,cs),
(509,-260,o),
(604,-159,o),
(604,-82,cs),
(604,-53,o),
(588,-34,o),
(557,-34,cs),
(514,-34,o),
(469,-79,o),
(469,-111,cs),
(469,-127,o),
(481,-134,o),
(481,-148,cs),
(481,-182,o),
(432,-207,o),
(395,-207,cs),
(353,-207,o),
(333,-186,o),
(333,-137,cs),
(333,-110,o),
(339,-74,o),
(352,-28,cs),
(525,610,ls),
(550,706,o),
(576,728,o),
(642,728,cs),
(735,728,o),
(783,685,o),
(783,557,c),
(821,557,l),
(841,770,l),
(173,770,l),
(78,557,l),
(118,557,l),
(175,665,o),
(261,728,o),
(378,728,cs),
(416,728,o),
(433,712,o),
(433,674,cs),
(433,658,o),
(430,638,o),
(424,614,cs)
);
}
);
};
layerId = "0AE41BF0-1C3A-4EE5-A2F7-CBC866D97671";
name = "3 Nov 24 at 6:47PM";
shapes = (
{
closed = 1;
nodes = (
(242,-64,ls),
(235,-90,o),
(231,-116,o),
(231,-136,cs),
(231,-219,o),
(303,-260,o),
(406,-260,cs),
(508,-260,o),
(603,-220,o),
(603,-126,cs),
(603,-67,o),
(566,-28,o),
(526,-28,cs),
(494,-28,o),
(470,-52,o),
(470,-82,cs),
(470,-112,o),
(495,-119,o),
(495,-151,cs),
(495,-188,o),
(460,-207,o),
(407,-207,cs),
(352,-207,o),
(332,-186,o),
(332,-143,cs),
(332,-117,o),
(339,-76,o),
(352,-28,cs),
(525,610,ls),
(550,706,o),
(576,728,o),
(642,728,cs),
(735,728,o),
(783,685,o),
(783,557,c),
(821,557,l),
(841,770,l),
(173,770,l),
(78,557,l),
(118,557,l),
(175,665,o),
(261,728,o),
(378,728,cs),
(416,728,o),
(433,712,o),
(433,674,cs),
(433,658,o),
(430,638,o),
(424,614,cs)
);
}
);
width = 780;
}
);
unicode = 430;
},
{
color = 4;
glyphname = U;
kernLeft = KERN_U;
kernRight = KERN_U;
lastChange = "2025-08-11 12:07:56 +0000";
layers = (
{
anchors = (
{
name = bottom;
pos = (355,0);
},
{
name = ogonek;
pos = (390,10);
},
{
name = top;
pos = (534,830);
}
);
layerId = m001;
shapes = (
{
closed = 1;
nodes = (
(539,-10,o),
(653,128,o),
(710,392,cs),
(753,592,ls),
(779,712,o),
(798,730,o),
(863,730,c),
(875,770,l),
(612,770,l),
(600,730,l),
(662,727,o),
(702,710,o),
(702,670,cs),
(702,624,o),
(663,418,o),
(622,290,cs),
(577,150,o),
(507,46,o),
(375,46,cs),
(270,46,o),
(214,114,o),
(214,220,cs),
(214,248,o),
(218,280,o),
(227,314,cs),
(292,565,ls),
(329,710,o),
(345,730,o),
(440,730,c),
(451,770,l),
(132,770,l),
(119,730,l),
(188,730,o),
(213,716,o),
(213,676,cs),
(213,657,o),
(207,626,o),
(200,599,cs),
(134,353,ls),
(121,304,o),
(114,261,o),
(114,219,cs),
(114,73,o),
(198,-10,o),
(367,-10,cs)
);
}
);
width = 808;
},
{
anchors = (
{
name = bottom;
pos = (357,0);
},
{
name = ogonek;
pos = (397,10);
},
{
name = top;
pos = (545,830);
}
);
background = {
shapes = (
{
closed = 1;
nodes = (
(132,304,o),
(125,261,o),
(125,219,cs),
(125,73,o),
(209,-10,o),
(378,-10,cs),
(550,-10,o),
(664,128,o),
(721,392,cs),
(764,592,ls),
(790,712,o),
(809,730,o),
(874,730,c),
(886,770,l),
(623,770,l),
(611,730,l),
(673,727,o),
(713,710,o),
(713,670,cs),
(713,624,o),
(674,418,o),
(633,290,cs),
(588,150,o),
(518,46,o),
(386,46,cs),
(281,46,o),
(225,114,o),
(225,220,cs),
(225,248,o),
(229,280,o),
(238,314,cs),
(303,565,ls),
(340,710,o),
(356,730,o),
(451,730,c),
(462,770,l),
(143,770,l),
(130,730,l),
(199,730,o),
(224,716,o),
(224,676,cs),
(224,657,o),
(218,626,o),
(211,599,cs),
(145,353,ls)
);
}
);
};
layerId = m002;
shapes = (
{
closed = 1;
nodes = (
(539,-10,o),
(646,81,o),
(700,310,cs),
(750,522,ls),
(781,652,o),
(788,730,o),
(890,730,c),
(901,770,l),
(607,770,l),
(596,730,l),
(667,730,o),
(691,712,o),
(691,652,cs),
(691,576,o),
(655,406,o),
(617,289,cs),
(566,132,o),
(508,62,o),
(375,62,cs),
(270,62,o),
(224,106,o),
(224,194,cs),
(224,227,o),
(224,267,o),
(244,342,cs),
(299,547,ls),
(333,673,o),
(339,730,o),
(466,730,c),
(477,770,l),
(120,770,l),
(109,730,l),
(152,730,o),
(184,730,o),
(184,683,cs),
(184,660,o),
(175,622,o),
(156,547,cs),
(96,314,ls),
(85,269,o),
(78,227,o),
(78,190,cs),
(78,67,o),
(147,-10,o),
(340,-10,cs)
);
}
);
width = 804;
}
);
unicode = 85;
},
{
color = 4;
glyphname = Ubar;
lastChange = "2025-08-05 14:52:12 +0000";
layers = (
{
layerId = m001;
shapes = (
{
ref = U;
},
{
closed = 1;
nodes = (
(774,396,l),
(76,396,l),
(60,342,l),
(758,342,l)
);
}
);
width = 808;
},
{
layerId = m002;
shapes = (
{
ref = U;
},
{
closed = 1;
nodes = (
(784,396,l),
(56,396,l),
(40,342,l),
(768,342,l)
);
}
);
width = 808;
}
);
unicode = 580;
},
{
color = 4;
glyphname = V;
lastChange = "2025-06-16 23:03:26 +0000";
layers = (
{
anchors = (
{
name = bottom;
pos = (152,0);
},
{
name = top;
pos = (558,824);
}
);
layerId = m001;
shapes = (
{
closed = 1;
nodes = (
(244,142,l),
(345,603,ls),
(369,712,o),
(386,730,o),
(464,730,c),
(474,770,l),
(178,770,l),
(168,730,l),
(241,730,o),
(261,720,o),
(261,681,cs),
(261,665,o),
(257,639,o),
(249,604,cs),
(110,-10,l),
(194,-10,l),
(645,539,ls),
(766,687,o),
(825,730,o),
(888,730,c),
(898,770,l),
(639,770,l),
(629,730,l),
(675,730,o),
(698,725,o),
(698,705,cs),
(698,681,o),
(660,634,o),
(586,546,cs),
(248,142,l)
);
}
);
width = 752;
},
{
anchors = (
{
name = bottom;
pos = (188,0);
},
{
name = top;
pos = (594,824);
}
);
layerId = m002;
shapes = (
{
closed = 1;
nodes = (
(280,142,l),
(381,603,ls),
(405,712,o),
(422,730,o),
(500,730,c),
(510,770,l),
(172,770,l),
(162,730,l),
(235,730,o),
(255,720,o),
(255,681,cs),
(255,665,o),
(251,639,o),
(243,604,cs),
(104,-10,l),
(248,-10,l),
(699,539,ls),
(820,687,o),
(879,730,o),
(942,730,c),
(952,770,l),
(675,770,l),
(665,730,l),
(711,730,o),
(734,725,o),
(734,705,cs),
(734,681,o),
(696,634,o),
(622,546,cs),
(284,142,l)
);
}
);
width = 817;
},
{
anchors = (
{
name = bottom;
pos = (152,0);
},
{
name = top;
pos = (558,824);
}
);
associatedMasterId = m002;
layerId = "98FFA315-66BC-46C5-AADE-16945BF869C2";
name = "29 May 25 at 12:01PM";
shapes = (
{
closed = 1;
nodes = (
(244,142,l),
(345,603,ls),
(369,712,o),
(386,730,o),
(464,730,c),
(474,770,l),
(178,770,l),
(168,730,l),
(241,730,o),
(261,720,o),
(261,681,cs),
(261,665,o),
(257,639,o),
(249,604,cs),
(110,-10,l),
(194,-10,l),
(645,539,ls),
(766,687,o),
(825,730,o),
(888,730,c),
(898,770,l),
(639,770,l),
(629,730,l),
(675,730,o),
(698,725,o),
(698,705,cs),
(698,681,o),
(660,634,o),
(586,546,cs),
(248,142,l)
);
}
);
width = 752;
},
{
anchors = (
{
name = bottom;
pos = (152,0);
},
{
name = top;
pos = (558,824);
}
);
associatedMasterId = m001;
layerId = "1CBF426A-6361-4BA7-8717-F059FB1CD8CE";
name = "29 May 25 at 12:03PM";
shapes = (
{
closed = 1;
nodes = (
(244,142,l),
(345,603,ls),
(369,712,o),
(386,730,o),
(464,730,c),
(474,770,l),
(178,770,l),
(168,730,l),
(241,730,o),
(261,720,o),
(261,681,cs),
(261,665,o),
(257,639,o),
(249,604,cs),
(110,-10,l),
(212,-10,l),
(663,539,ls),
(784,687,o),
(843,730,o),
(906,730,c),
(916,770,l),
(639,770,l),
(629,730,l),
(675,730,o),
(698,725,o),
(698,705,cs),
(698,681,o),
(660,634,o),
(586,546,cs),
(248,142,l)
);
}
);
width = 792;
}
);
unicode = 86;
},
{
color = 4;
glyphname = Vhook;
lastChange = "2025-08-11 12:10:42 +0000";
layers = (
{
anchors = (
{
name = bottom;
pos = (355,0);
},
{
name = ogonek;
pos = (390,10);
}
);
background = {
anchors = (
{
name = bottom;
pos = (355,0);
},
{
name = ogonek;
pos = (390,10);
}
);
shapes = (
{
closed = 1;
nodes = (
(759,656,o),
(739,780,o),
(614,780,cs),
(560,780,o),
(516,757,o),
(516,712,cs),
(516,687,o),
(530,671,o),
(555,671,cs),
(576,671,o),
(608,682,o),
(632,682,cs),
(691,682,o),
(701,612,o),
(701,559,cs),
(701,356,o),
(559,46,o),
(353,46,cs),
(261,46,o),
(214,110,o),
(214,218,cs),
(214,249,o),
(218,280,o),
(227,314,cs),
(292,565,ls),
(330,711,o),
(345,730,o),
(440,730,c),
(451,770,l),
(132,770,l),
(119,730,l),
(188,730,o),
(213,716,o),
(213,676,cs),
(213,657,o),
(207,626,o),
(200,599,cs),
(134,353,ls),
(121,304,o),
(114,261,o),
(114,218,cs),
(114,73,o),
(194,-10,o),
(332,-10,cs),
(632,-10,o),
(759,380,o),
(759,578,cs)
);
}
);
};
layerId = m001;
shapes = (
{
closed = 1;
nodes = (
(759,656,o),
(739,780,o),
(614,780,cs),
(560,780,o),
(516,760,o),
(516,717,cs),
(516,690,o),
(530,671,o),
(555,671,cs),
(576,671,o),
(608,682,o),
(632,682,cs),
(691,682,o),
(701,612,o),
(701,559,cs),
(701,356,o),
(559,46,o),
(353,46,cs),
(261,46,o),
(214,110,o),
(214,218,cs),
(214,249,o),
(218,280,o),
(227,314,cs),
(292,565,ls),
(330,711,o),
(345,730,o),
(440,730,c),
(451,770,l),
(132,770,l),
(119,730,l),
(188,730,o),
(213,716,o),
(213,676,cs),
(213,657,o),
(207,626,o),
(200,599,cs),
(134,353,ls),
(121,304,o),
(114,261,o),
(114,218,cs),
(114,73,o),
(194,-10,o),
(332,-10,cs),
(632,-10,o),
(759,380,o),
(759,578,cs)
);
}
);
width = 758;
},
{
anchors = (
{
name = bottom;
pos = (355,0);
},
{
name = ogonek;
pos = (390,10);
}
);
associatedMasterId = m001;
background = {
shapes = (
{
closed = 1;
nodes = (
(121,304,o),
(114,261,o),
(114,219,cs),
(114,73,o),
(198,-10,o),
(367,-10,cs),
(539,-10,o),
(653,128,o),
(710,392,cs),
(753,592,ls),
(779,712,o),
(798,730,o),
(863,730,c),
(875,770,l),
(612,770,l),
(600,730,l),
(662,727,o),
(702,710,o),
(702,670,cs),
(702,654,o),
(698,621,o),
(690,578,cs),
(675,493,o),
(649,375,o),
(622,290,cs),
(577,150,o),
(507,46,o),
(375,46,cs),
(270,46,o),
(214,114,o),
(214,220,cs),
(214,248,o),
(218,280,o),
(227,314,cs),
(292,565,ls),
(329,710,o),
(345,730,o),
(440,730,c),
(451,770,l),
(132,770,l),
(119,730,l),
(188,730,o),
(213,716,o),
(213,676,cs),
(213,657,o),
(207,626,o),
(200,599,cs),
(134,353,ls)
);
}
);
};
layerId = "C727DDA5-0A43-4B4D-82A0-146585C85545";
name = "4 Nov 24 at 2:35AM";
shapes = (
{
closed = 1;
nodes = (
(757,581,o),
(757,649,o),
(729,703,cs),
(703,753,o),
(659,780,o),
(602,780,cs),
(550,780,o),
(504,757,o),
(504,713,cs),
(504,687,o),
(520,671,o),
(547,671,cs),
(570,671,o),
(600,682,o),
(626,682,cs),
(711,682,o),
(697,568,o),
(697,503,cs),
(697,376,o),
(571,46,o),
(352,46,cs),
(260,46,o),
(214,111,o),
(214,218,cs),
(214,249,o),
(218,280,o),
(227,314,cs),
(292,565,ls),
(330,711,o),
(345,730,o),
(440,730,c),
(451,770,l),
(132,770,l),
(119,730,l),
(188,730,o),
(213,716,o),
(213,676,cs),
(213,657,o),
(207,626,o),
(200,599,cs),
(134,353,ls),
(121,304,o),
(114,261,o),
(114,218,cs),
(114,74,o),
(194,-10,o),
(329,-10,cs),
(629,-10,o),
(757,366,o),
(757,519,cs)
);
}
);
width = 778;
},
{
anchors = (
{
name = bottom;
pos = (355,0);
},
{
name = ogonek;
pos = (390,10);
}
);
associatedMasterId = m001;
background = {
shapes = (
{
closed = 1;
nodes = (
(121,304,o),
(114,261,o),
(114,219,cs),
(114,73,o),
(198,-10,o),
(367,-10,cs),
(539,-10,o),
(653,128,o),
(710,392,cs),
(753,592,ls),
(779,712,o),
(798,730,o),
(863,730,c),
(875,770,l),
(612,770,l),
(600,730,l),
(662,727,o),
(702,710,o),
(702,670,cs),
(702,654,o),
(698,621,o),
(690,578,cs),
(675,493,o),
(649,375,o),
(622,290,cs),
(577,150,o),
(507,46,o),
(375,46,cs),
(270,46,o),
(214,114,o),
(214,220,cs),
(214,248,o),
(218,280,o),
(227,314,cs),
(292,565,ls),
(329,710,o),
(345,730,o),
(440,730,c),
(451,770,l),
(132,770,l),
(119,730,l),
(188,730,o),
(213,716,o),
(213,676,cs),
(213,657,o),
(207,626,o),
(200,599,cs),
(134,353,ls)
);
}
);
};
layerId = "3DE6EE5C-19F6-4392-9C6F-0301781A1EDF";
name = "4 Nov 24 at 2:37AM";
shapes = (
{
closed = 1;
nodes = (
(759,654,o),
(725,780,o),
(602,780,cs),
(550,780,o),
(504,757,o),
(504,713,cs),
(504,687,o),
(520,671,o),
(547,671,cs),
(570,671,o),
(600,682,o),
(626,682,cs),
(690,682,o),
(701,612,o),
(701,552,cs),
(701,346,o),
(561,46,o),
(355,46,cs),
(260,46,o),
(214,110,o),
(214,218,cs),
(214,249,o),
(218,280,o),
(227,314,cs),
(292,565,ls),
(330,711,o),
(345,730,o),
(440,730,c),
(451,770,l),
(132,770,l),
(119,730,l),
(188,730,o),
(213,716,o),
(213,676,cs),
(213,657,o),
(207,626,o),
(200,599,cs),
(134,353,ls),
(121,304,o),
(114,261,o),
(114,218,cs),
(114,72,o),
(194,-10,o),
(334,-10,cs),
(636,-10,o),
(759,370,o),
(759,556,cs)
);
}
);
width = 762;
},
{
anchors = (
{
name = bottom;
pos = (389,0);
},
{
name = ogonek;
pos = (424,10);
}
);
background = {
anchors = (
{
name = bottom;
pos = (389,0);
},
{
name = ogonek;
pos = (424,10);
}
);
shapes = (
{
closed = 1;
nodes = (
(793,656,o),
(773,780,o),
(648,780,cs),
(594,780,o),
(550,757,o),
(550,712,cs),
(550,687,o),
(564,671,o),
(589,671,cs),
(610,671,o),
(642,682,o),
(666,682,cs),
(725,682,o),
(735,612,o),
(735,559,cs),
(735,356,o),
(593,46,o),
(387,46,cs),
(295,46,o),
(248,110,o),
(248,218,cs),
(248,249,o),
(252,280,o),
(261,314,cs),
(326,565,ls),
(364,711,o),
(379,730,o),
(474,730,c),
(485,770,l),
(166,770,l),
(153,730,l),
(222,730,o),
(247,716,o),
(247,676,cs),
(247,657,o),
(241,626,o),
(234,599,cs),
(168,353,ls),
(155,304,o),
(148,261,o),
(148,218,cs),
(148,73,o),
(228,-10,o),
(366,-10,cs),
(666,-10,o),
(793,380,o),
(793,578,cs)
);
}
);
};
layerId = m002;
shapes = (
{
closed = 1;
nodes = (
(793,662,o),
(773,780,o),
(644,780,cs),
(586,780,o),
(538,757,o),
(538,708,cs),
(538,682,o),
(552,661,o),
(578,661,cs),
(597,661,o),
(628,672,o),
(652,672,cs),
(710,672,o),
(720,608,o),
(720,556,cs),
(720,360,o),
(584,56,o),
(386,56,cs),
(295,56,o),
(248,116,o),
(248,218,cs),
(248,249,o),
(252,280,o),
(261,314,cs),
(326,565,ls),
(364,711,o),
(379,730,o),
(474,730,c),
(485,770,l),
(122,770,l),
(109,730,l),
(178,730,o),
(203,716,o),
(203,676,cs),
(203,657,o),
(197,626,o),
(190,599,cs),
(124,353,ls),
(111,304,o),
(104,260,o),
(104,220,cs),
(104,78,o),
(200,-10,o),
(352,-10,cs),
(647,-10,o),
(793,336,o),
(793,574,cs)
);
}
);
width = 764;
},
{
anchors = (
{
name = bottom;
pos = (355,0);
},
{
name = ogonek;
pos = (390,10);
}
);
associatedMasterId = m002;
background = {
shapes = (
{
closed = 1;
nodes = (
(121,304,o),
(114,261,o),
(114,219,cs),
(114,73,o),
(198,-10,o),
(367,-10,cs),
(539,-10,o),
(653,128,o),
(710,392,cs),
(753,592,ls),
(779,712,o),
(798,730,o),
(863,730,c),
(875,770,l),
(612,770,l),
(600,730,l),
(662,727,o),
(702,710,o),
(702,670,cs),
(702,654,o),
(698,621,o),
(690,578,cs),
(675,493,o),
(649,375,o),
(622,290,cs),
(577,150,o),
(507,46,o),
(375,46,cs),
(270,46,o),
(214,114,o),
(214,220,cs),
(214,248,o),
(218,280,o),
(227,314,cs),
(292,565,ls),
(329,710,o),
(345,730,o),
(440,730,c),
(451,770,l),
(132,770,l),
(119,730,l),
(188,730,o),
(213,716,o),
(213,676,cs),
(213,657,o),
(207,626,o),
(200,599,cs),
(134,353,ls)
);
}
);
};
layerId = "26B6B3EC-12F1-4289-83DC-AC80507FACFA";
name = "4 Nov 24 at 2:35AM";
shapes = (
{
closed = 1;
nodes = (
(757,581,o),
(757,649,o),
(729,703,cs),
(703,753,o),
(659,780,o),
(602,780,cs),
(550,780,o),
(504,757,o),
(504,713,cs),
(504,687,o),
(520,671,o),
(547,671,cs),
(570,671,o),
(600,682,o),
(626,682,cs),
(711,682,o),
(697,568,o),
(697,503,cs),
(697,376,o),
(571,46,o),
(352,46,cs),
(260,46,o),
(214,111,o),
(214,218,cs),
(214,249,o),
(218,280,o),
(227,314,cs),
(292,565,ls),
(330,711,o),
(345,730,o),
(440,730,c),
(451,770,l),
(132,770,l),
(119,730,l),
(188,730,o),
(213,716,o),
(213,676,cs),
(213,657,o),
(207,626,o),
(200,599,cs),
(134,353,ls),
(121,304,o),
(114,261,o),
(114,218,cs),
(114,74,o),
(194,-10,o),
(329,-10,cs),
(629,-10,o),
(757,366,o),
(757,519,cs)
);
}
);
width = 778;
},
{
anchors = (
{
name = bottom;
pos = (355,0);
},
{
name = ogonek;
pos = (390,10);
}
);
associatedMasterId = m002;
background = {
shapes = (
{
closed = 1;
nodes = (
(121,304,o),
(114,261,o),
(114,219,cs),
(114,73,o),
(198,-10,o),
(367,-10,cs),
(539,-10,o),
(653,128,o),
(710,392,cs),
(753,592,ls),
(779,712,o),
(798,730,o),
(863,730,c),
(875,770,l),
(612,770,l),
(600,730,l),
(662,727,o),
(702,710,o),
(702,670,cs),
(702,654,o),
(698,621,o),
(690,578,cs),
(675,493,o),
(649,375,o),
(622,290,cs),
(577,150,o),
(507,46,o),
(375,46,cs),
(270,46,o),
(214,114,o),
(214,220,cs),
(214,248,o),
(218,280,o),
(227,314,cs),
(292,565,ls),
(329,710,o),
(345,730,o),
(440,730,c),
(451,770,l),
(132,770,l),
(119,730,l),
(188,730,o),
(213,716,o),
(213,676,cs),
(213,657,o),
(207,626,o),
(200,599,cs),
(134,353,ls)
);
}
);
};
layerId = "485FF3BE-6C89-410C-BA3B-2BBB1C704AAE";
name = "4 Nov 24 at 2:37AM";
shapes = (
{
closed = 1;
nodes = (
(759,654,o),
(725,780,o),
(602,780,cs),
(550,780,o),
(504,757,o),
(504,713,cs),
(504,687,o),
(520,671,o),
(547,671,cs),
(570,671,o),
(600,682,o),
(626,682,cs),
(690,682,o),
(701,612,o),
(701,552,cs),
(701,346,o),
(561,46,o),
(355,46,cs),
(260,46,o),
(214,110,o),
(214,218,cs),
(214,249,o),
(218,280,o),
(227,314,cs),
(292,565,ls),
(330,711,o),
(345,730,o),
(440,730,c),
(451,770,l),
(132,770,l),
(119,730,l),
(188,730,o),
(213,716,o),
(213,676,cs),
(213,657,o),
(207,626,o),
(200,599,cs),
(134,353,ls),
(121,304,o),
(114,261,o),
(114,218,cs),
(114,72,o),
(194,-10,o),
(334,-10,cs),
(636,-10,o),
(759,370,o),
(759,556,cs)
);
}
);
width = 762;
}
);
unicode = 434;
},
{
color = 4;
glyphname = Vturned;
lastChange = "2025-08-09 01:48:07 +0000";
layers = (
{
background = {
shapes = (
{
closed = 1;
nodes = (
(484,654,l),
(482,513,o),
(482,518,o),
(475,167,cs),
(473,58,o),
(462,40,o),
(384,40,c),
(382,0,l),
(678,0,l),
(680,40,l),
(578,40,o),
(571,59,o),
(571,162,cs),
(571,229,o),
(574,550,o),
(574,780,c),
(490,780,l),
(150,231,ls),
(60,85,o),
(14,40,o),
(-49,40,c),
(-51,0,l),
(207,0,l),
(209,40,l),
(155,40,o),
(130,50,o),
(130,79,cs),
(130,91,o),
(134,99,o),
(212,224,cs),
(480,654,l)
);
}
);
};
layerId = m001;
shapes = (
{
closed = 1;
nodes = (
(484,654,l),
(482,513,o),
(482,518,o),
(475,167,cs),
(473,58,o),
(462,40,o),
(384,40,c),
(382,0,l),
(678,0,l),
(680,40,l),
(578,40,o),
(571,59,o),
(571,162,cs),
(571,229,o),
(574,550,o),
(574,780,c),
(490,780,l),
(150,231,ls),
(60,85,o),
(14,40,o),
(-49,40,c),
(-51,0,l),
(207,0,l),
(209,40,l),
(155,40,o),
(130,50,o),
(130,79,cs),
(130,91,o),
(134,99,o),
(212,224,cs),
(480,654,l)
);
}
);
width = 724;
},
{
associatedMasterId = m001;
layerId = "F558EBA0-3A13-4206-9022-592A0D3B38D9";
name = "27 Oct 24 at 9:43PM";
shapes = (
{
closed = 1;
nodes = (
(573,628,l),
(472,167,ls),
(448,58,o),
(431,40,o),
(353,40,c),
(343,0,l),
(639,0,l),
(649,40,l),
(576,40,o),
(556,50,o),
(556,89,cs),
(556,105,o),
(560,131,o),
(568,166,cs),
(707,780,l),
(623,780,l),
(172,231,ls),
(51,83,o),
(-8,40,o),
(-71,40,c),
(-81,0,l),
(178,0,l),
(188,40,l),
(142,40,o),
(119,45,o),
(119,65,cs),
(119,89,o),
(157,136,o),
(231,224,cs),
(569,628,l)
);
}
);
width = 753;
},
{
background = {
shapes = (
{
closed = 1;
nodes = (
(502,654,l),
(500,513,o),
(500,518,o),
(493,167,cs),
(491,58,o),
(480,40,o),
(402,40,c),
(400,0,l),
(696,0,l),
(698,40,l),
(596,40,o),
(589,59,o),
(589,162,cs),
(589,229,o),
(592,550,o),
(592,780,c),
(508,780,l),
(168,231,ls),
(78,85,o),
(32,40,o),
(-31,40,c),
(-33,0,l),
(225,0,l),
(227,40,l),
(173,40,o),
(148,50,o),
(148,79,cs),
(148,91,o),
(152,99,o),
(230,224,cs),
(498,654,l)
);
}
);
};
layerId = m002;
shapes = (
{
closed = 1;
nodes = (
(502,654,l),
(500,513,o),
(500,518,o),
(493,167,cs),
(491,58,o),
(480,40,o),
(402,40,c),
(400,0,l),
(739,0,l),
(741,40,l),
(639,40,o),
(632,59,o),
(632,162,cs),
(632,229,o),
(635,550,o),
(635,780,c),
(491,780,l),
(151,231,ls),
(61,85,o),
(15,40,o),
(-48,40,c),
(-50,0,l),
(225,0,l),
(227,40,l),
(173,40,o),
(148,50,o),
(148,79,cs),
(148,91,o),
(152,99,o),
(230,224,cs),
(498,654,l)
);
}
);
width = 785;
},
{
associatedMasterId = m002;
layerId = "6A912DD9-B499-4E37-B254-147F06BAA38D";
name = "27 Oct 24 at 9:43PM";
shapes = (
{
closed = 1;
nodes = (
(573,628,l),
(472,167,ls),
(448,58,o),
(431,40,o),
(353,40,c),
(343,0,l),
(639,0,l),
(649,40,l),
(576,40,o),
(556,50,o),
(556,89,cs),
(556,105,o),
(560,131,o),
(568,166,cs),
(707,780,l),
(623,780,l),
(172,231,ls),
(51,83,o),
(-8,40,o),
(-71,40,c),
(-81,0,l),
(178,0,l),
(188,40,l),
(142,40,o),
(119,45,o),
(119,65,cs),
(119,89,o),
(157,136,o),
(231,224,cs),
(569,628,l)
);
}
);
width = 753;
}
);
unicode = 581;
},
{
color = 4;
glyphname = W;
kernLeft = KERN_W;
kernRight = KERN_W;
lastChange = "2025-06-16 23:04:06 +0000";
layers = (
{
anchors = (
{
name = bottom;
pos = (342,0);
},
{
name = top;
pos = (703,830);
}
);
layerId = m001;
shapes = (
{
closed = 1;
nodes = (
(584,152,l),
(685,603,ls),
(709,712,o),
(726,730,o),
(804,730,c),
(814,770,l),
(528,770,l),
(518,730,l),
(583,730,o),
(601,720,o),
(601,681,cs),
(601,665,o),
(597,639,o),
(589,604,cs),
(585,587,l),
(246,152,l),
(242,152,l),
(343,603,ls),
(367,711,o),
(386,730,o),
(442,730,c),
(452,770,l),
(176,770,l),
(166,730,l),
(239,730,o),
(259,720,o),
(259,681,cs),
(259,665,o),
(255,639,o),
(247,604,cs),
(108,-10,l),
(192,-10,l),
(558,467,l),
(450,-10,l),
(534,-10,l),
(955,539,ls),
(1071,691,o),
(1135,730,o),
(1198,730,c),
(1208,770,l),
(949,770,l),
(939,730,l),
(981,730,o),
(1002,726,o),
(1002,707,cs),
(1002,684,o),
(967,637,o),
(896,546,cs),
(588,152,l)
);
}
);
width = 1064;
},
{
anchors = (
{
name = bottom;
pos = (388,0);
},
{
name = top;
pos = (759,830);
}
);
background = {
anchors = (
{
name = bottom;
pos = (418,0);
},
{
name = top;
pos = (779,830);
}
);
shapes = (
{
closed = 1;
nodes = (
(660,152,l),
(761,603,ls),
(785,712,o),
(802,730,o),
(880,730,c),
(890,770,l),
(564,770,l),
(554,730,l),
(619,730,o),
(637,720,o),
(637,681,cs),
(637,665,o),
(633,639,o),
(625,604,cs),
(621,587,l),
(282,152,l),
(278,152,l),
(379,603,ls),
(403,711,o),
(422,730,o),
(478,730,c),
(488,770,l),
(172,770,l),
(162,730,l),
(235,730,o),
(255,720,o),
(255,681,cs),
(255,665,o),
(251,639,o),
(243,604,cs),
(104,-10,l),
(228,-10,l),
(594,467,l),
(486,-10,l),
(628,-10,l),
(1049,539,ls),
(1165,691,o),
(1229,730,o),
(1292,730,c),
(1302,770,l),
(1025,770,l),
(1015,730,l),
(1057,730,o),
(1078,726,o),
(1078,707,cs),
(1078,684,o),
(1043,637,o),
(972,546,cs),
(664,152,l)
);
}
);
};
layerId = m002;
shapes = (
{
closed = 1;
nodes = (
(660,152,l),
(761,603,ls),
(785,712,o),
(802,730,o),
(880,730,c),
(890,770,l),
(564,770,l),
(554,730,l),
(619,730,o),
(637,720,o),
(637,681,cs),
(637,665,o),
(633,639,o),
(625,604,cs),
(621,587,l),
(282,152,l),
(278,152,l),
(379,603,ls),
(403,711,o),
(422,730,o),
(478,730,c),
(488,770,l),
(172,770,l),
(162,730,l),
(235,730,o),
(255,720,o),
(255,681,cs),
(255,665,o),
(251,639,o),
(243,604,cs),
(104,-10,l),
(246,-10,l),
(586,433,l),
(486,-10,l),
(628,-10,l),
(1049,539,ls),
(1165,691,o),
(1229,730,o),
(1292,730,c),
(1302,770,l),
(1025,770,l),
(1015,730,l),
(1057,730,o),
(1078,726,o),
(1078,707,cs),
(1078,684,o),
(1043,637,o),
(972,546,cs),
(664,152,l)
);
}
);
width = 1164;
}
);
unicode = 87;
},
